<svg width="832" height="224" viewBox="0 0 832 224" fill="none" xmlns="http://www.w3.org/2000/svg">
<rect x="336" y="48" width="160" height="88" rx="3" fill="#ECEDF2"/>
<path d="M366.898 99V85.92H371.078C371.985 85.92 372.785 86.02 373.478 86.22C374.185 86.42 374.738 86.76 375.138 87.24C375.552 87.7067 375.758 88.34 375.758 89.14C375.758 89.7533 375.598 90.3333 375.278 90.88C374.958 91.4133 374.512 91.78 373.938 91.98V92.06C374.658 92.22 375.252 92.56 375.718 93.08C376.198 93.5867 376.438 94.28 376.438 95.16C376.438 96.0267 376.218 96.7467 375.778 97.32C375.352 97.8933 374.758 98.32 373.998 98.6C373.238 98.8667 372.378 99 371.418 99H366.898ZM369.218 91.32H370.878C371.785 91.32 372.445 91.1533 372.858 90.82C373.272 90.4867 373.478 90.04 373.478 89.48C373.478 88.84 373.265 88.3867 372.838 88.12C372.412 87.8533 371.772 87.72 370.918 87.72H369.218V91.32ZM369.218 97.2H371.178C372.138 97.2 372.878 97.0267 373.398 96.68C373.918 96.32 374.178 95.7733 374.178 95.04C374.178 94.3467 373.925 93.8467 373.418 93.54C372.912 93.22 372.165 93.06 371.178 93.06H369.218V97.2ZM382.832 99.24C381.925 99.24 381.105 99.04 380.372 98.64C379.639 98.2267 379.059 97.64 378.632 96.88C378.205 96.1067 377.992 95.18 377.992 94.1C377.992 93.0333 378.205 92.1133 378.632 91.34C379.072 90.5667 379.639 89.9733 380.332 89.56C381.025 89.1467 381.752 88.94 382.512 88.94C383.405 88.94 384.152 89.14 384.752 89.54C385.352 89.9267 385.805 90.4733 386.112 91.18C386.419 91.8733 386.572 92.68 386.572 93.6C386.572 94.08 386.539 94.4533 386.472 94.72H380.232C380.339 95.5867 380.652 96.26 381.172 96.74C381.692 97.22 382.345 97.46 383.132 97.46C383.559 97.46 383.952 97.4 384.312 97.28C384.685 97.1467 385.052 96.9667 385.412 96.74L386.192 98.18C385.725 98.4867 385.205 98.74 384.632 98.94C384.059 99.14 383.459 99.24 382.832 99.24ZM380.212 93.16H384.572C384.572 92.4 384.405 91.8067 384.072 91.38C383.739 90.94 383.239 90.72 382.572 90.72C381.999 90.72 381.485 90.9333 381.032 91.36C380.592 91.7733 380.319 92.3733 380.212 93.16ZM390.469 93.46C390.469 94.7267 390.682 95.6933 391.109 96.36C391.549 97.0267 392.175 97.36 392.989 97.36C393.629 97.36 394.142 97.0733 394.529 96.5C394.915 95.9133 395.109 95.14 395.109 94.18C395.109 93.2333 394.922 92.5267 394.549 92.06C394.175 91.58 393.649 91.34 392.969 91.34C392.555 91.34 392.129 91.4467 391.689 91.66C391.262 91.8733 390.855 92.2533 390.469 92.8C390.469 92.9067 390.469 93.02 390.469 93.14C390.469 93.2467 390.469 93.3533 390.469 93.46ZM393.009 99.24C391.502 99.24 390.335 98.6933 389.509 97.6C388.682 96.4933 388.269 94.9467 388.269 92.96C388.269 91.3867 388.415 90.1067 388.709 89.12C389.002 88.1333 389.422 87.3667 389.969 86.82C390.515 86.26 391.162 85.8467 391.909 85.58C392.669 85.3 393.509 85.0933 394.429 84.96C395.015 84.88 395.455 84.8 395.749 84.72C396.042 84.64 396.335 84.5333 396.629 84.4L397.089 86.44C396.835 86.6133 396.515 86.7533 396.129 86.86C395.742 86.9667 395.335 87.0533 394.909 87.12C394.175 87.2267 393.542 87.34 393.009 87.46C392.489 87.5667 392.062 87.7467 391.729 88C391.395 88.24 391.135 88.6 390.949 89.08C390.762 89.5467 390.629 90.1933 390.549 91.02C390.935 90.5533 391.395 90.2 391.929 89.96C392.475 89.72 393.035 89.6 393.609 89.6C394.342 89.6 394.995 89.78 395.569 90.14C396.155 90.4867 396.615 91 396.949 91.68C397.295 92.36 397.469 93.1933 397.469 94.18C397.469 95.1933 397.269 96.08 396.869 96.84C396.482 97.6 395.949 98.1933 395.269 98.62C394.602 99.0333 393.849 99.24 393.009 99.24ZM399.203 94.8V93.12H403.963V94.8H399.203ZM410.369 99.24C409.475 99.24 408.669 99.04 407.949 98.64C407.242 98.2267 406.675 97.64 406.249 96.88C405.835 96.1067 405.629 95.18 405.629 94.1C405.629 93.0067 405.855 92.08 406.309 91.32C406.762 90.5467 407.362 89.96 408.109 89.56C408.869 89.1467 409.682 88.94 410.549 88.94C411.175 88.94 411.722 89.0467 412.189 89.26C412.655 89.4733 413.069 89.7333 413.429 90.04L412.309 91.54C412.055 91.3133 411.795 91.14 411.529 91.02C411.262 90.8867 410.975 90.82 410.669 90.82C409.882 90.82 409.235 91.12 408.729 91.72C408.235 92.32 407.989 93.1133 407.989 94.1C407.989 95.0733 408.229 95.86 408.709 96.46C409.202 97.06 409.835 97.36 410.609 97.36C410.995 97.36 411.355 97.28 411.689 97.12C412.035 96.9467 412.349 96.7467 412.629 96.52L413.569 98.04C413.115 98.44 412.609 98.74 412.049 98.94C411.489 99.14 410.929 99.24 410.369 99.24ZM419.219 99.24C418.312 99.24 417.492 99.04 416.759 98.64C416.025 98.2267 415.445 97.64 415.019 96.88C414.592 96.1067 414.379 95.18 414.379 94.1C414.379 93.0333 414.592 92.1133 415.019 91.34C415.459 90.5667 416.025 89.9733 416.719 89.56C417.412 89.1467 418.139 88.94 418.899 88.94C419.792 88.94 420.539 89.14 421.139 89.54C421.739 89.9267 422.192 90.4733 422.499 91.18C422.805 91.8733 422.959 92.68 422.959 93.6C422.959 94.08 422.925 94.4533 422.859 94.72H416.619C416.725 95.5867 417.039 96.26 417.559 96.74C418.079 97.22 418.732 97.46 419.519 97.46C419.945 97.46 420.339 97.4 420.699 97.28C421.072 97.1467 421.439 96.9667 421.799 96.74L422.579 98.18C422.112 98.4867 421.592 98.74 421.019 98.94C420.445 99.14 419.845 99.24 419.219 99.24ZM416.599 93.16H420.959C420.959 92.4 420.792 91.8067 420.459 91.38C420.125 90.94 419.625 90.72 418.959 90.72C418.385 90.72 417.872 90.9333 417.419 91.36C416.979 91.7733 416.705 92.3733 416.599 93.16ZM425.155 102.88V89.18H427.055L427.215 90.22H427.295C427.709 89.8733 428.169 89.5733 428.675 89.32C429.195 89.0667 429.722 88.94 430.255 88.94C431.482 88.94 432.429 89.3933 433.095 90.3C433.775 91.2067 434.115 92.42 434.115 93.94C434.115 95.06 433.915 96.02 433.515 96.82C433.115 97.6067 432.595 98.2067 431.955 98.62C431.329 99.0333 430.649 99.24 429.915 99.24C429.489 99.24 429.062 99.1467 428.635 98.96C428.209 98.76 427.795 98.4933 427.395 98.16L427.455 99.8V102.88H425.155ZM429.435 97.34C430.089 97.34 430.635 97.0533 431.075 96.48C431.515 95.9067 431.735 95.0667 431.735 93.96C431.735 92.9733 431.569 92.2067 431.235 91.66C430.902 91.1133 430.362 90.84 429.615 90.84C428.922 90.84 428.202 91.2067 427.455 91.94V96.52C427.815 96.8133 428.162 97.0267 428.495 97.16C428.829 97.28 429.142 97.34 429.435 97.34ZM436.444 99V89.18H440.424C441.158 89.18 441.804 89.26 442.364 89.42C442.938 89.58 443.391 89.8467 443.724 90.22C444.058 90.5933 444.224 91.0933 444.224 91.72C444.224 92.2 444.084 92.6267 443.804 93C443.538 93.36 443.131 93.62 442.584 93.78V93.86C443.171 93.9933 443.658 94.2467 444.044 94.62C444.431 94.98 444.624 95.5 444.624 96.18C444.624 96.8333 444.444 97.3733 444.084 97.8C443.738 98.2133 443.264 98.52 442.664 98.72C442.064 98.9067 441.384 99 440.624 99H436.444ZM438.704 93.16H440.204C440.844 93.16 441.304 93.0533 441.584 92.84C441.864 92.6267 442.004 92.3333 442.004 91.96C442.004 91.5733 441.871 91.2733 441.604 91.06C441.338 90.8467 440.891 90.74 440.264 90.74H438.704V93.16ZM438.704 97.44H440.464C441.131 97.44 441.611 97.3133 441.904 97.06C442.211 96.8067 442.364 96.4667 442.364 96.04C442.364 95.64 442.198 95.32 441.864 95.08C441.544 94.84 441.051 94.72 440.384 94.72H438.704V97.44ZM450.996 99.24C450.089 99.24 449.269 99.04 448.536 98.64C447.803 98.2267 447.223 97.64 446.796 96.88C446.369 96.1067 446.156 95.18 446.156 94.1C446.156 93.0333 446.369 92.1133 446.796 91.34C447.236 90.5667 447.803 89.9733 448.496 89.56C449.189 89.1467 449.916 88.94 450.676 88.94C451.569 88.94 452.316 89.14 452.916 89.54C453.516 89.9267 453.969 90.4733 454.276 91.18C454.583 91.8733 454.736 92.68 454.736 93.6C454.736 94.08 454.703 94.4533 454.636 94.72H448.396C448.503 95.5867 448.816 96.26 449.336 96.74C449.856 97.22 450.509 97.46 451.296 97.46C451.723 97.46 452.116 97.4 452.476 97.28C452.849 97.1467 453.216 96.9667 453.576 96.74L454.356 98.18C453.889 98.4867 453.369 98.74 452.796 98.94C452.223 99.14 451.623 99.24 450.996 99.24ZM448.376 93.16H452.736C452.736 92.4 452.569 91.8067 452.236 91.38C451.903 90.94 451.403 90.72 450.736 90.72C450.163 90.72 449.649 90.9333 449.196 91.36C448.756 91.7733 448.483 92.3733 448.376 93.16ZM456.933 102.88V89.18H458.833L458.993 90.22H459.073C459.486 89.8733 459.946 89.5733 460.453 89.32C460.973 89.0667 461.499 88.94 462.033 88.94C463.259 88.94 464.206 89.3933 464.873 90.3C465.553 91.2067 465.893 92.42 465.893 93.94C465.893 95.06 465.693 96.02 465.293 96.82C464.893 97.6067 464.373 98.2067 463.733 98.62C463.106 99.0333 462.426 99.24 461.693 99.24C461.266 99.24 460.839 99.1467 460.413 98.96C459.986 98.76 459.573 98.4933 459.173 98.16L459.233 99.8V102.88H456.933ZM461.213 97.34C461.866 97.34 462.413 97.0533 462.853 96.48C463.293 95.9067 463.513 95.0667 463.513 93.96C463.513 92.9733 463.346 92.2067 463.013 91.66C462.679 91.1133 462.139 90.84 461.393 90.84C460.699 90.84 459.979 91.2067 459.233 91.94V96.52C459.593 96.8133 459.939 97.0267 460.273 97.16C460.606 97.28 460.919 97.34 461.213 97.34Z" fill="#333333"/>
<rect x="640" y="48" width="192" height="128" rx="3" fill="#ECEDF2"/>
<path d="M670.357 119V105.92H672.677V117.04H678.117V119H670.357ZM683.962 119.24C683.149 119.24 682.389 119.04 681.682 118.64C680.976 118.227 680.402 117.64 679.962 116.88C679.522 116.107 679.302 115.18 679.302 114.1C679.302 113.007 679.522 112.08 679.962 111.32C680.402 110.547 680.976 109.96 681.682 109.56C682.389 109.147 683.149 108.94 683.962 108.94C684.789 108.94 685.556 109.147 686.262 109.56C686.969 109.96 687.542 110.547 687.982 111.32C688.422 112.08 688.642 113.007 688.642 114.1C688.642 115.18 688.422 116.107 687.982 116.88C687.542 117.64 686.969 118.227 686.262 118.64C685.556 119.04 684.789 119.24 683.962 119.24ZM683.962 117.36C684.682 117.36 685.249 117.06 685.662 116.46C686.076 115.86 686.282 115.073 686.282 114.1C686.282 113.113 686.076 112.32 685.662 111.72C685.249 111.12 684.682 110.82 683.962 110.82C683.242 110.82 682.676 111.12 682.262 111.72C681.862 112.32 681.662 113.113 681.662 114.1C681.662 115.073 681.862 115.86 682.262 116.46C682.676 117.06 683.242 117.36 683.962 117.36ZM694.339 123.34C693.566 123.34 692.866 123.247 692.239 123.06C691.626 122.873 691.139 122.587 690.779 122.2C690.432 121.827 690.259 121.353 690.259 120.78C690.259 119.967 690.726 119.267 691.659 118.68V118.6C691.406 118.44 691.192 118.227 691.019 117.96C690.859 117.693 690.779 117.36 690.779 116.96C690.779 116.573 690.886 116.227 691.099 115.92C691.326 115.6 691.579 115.34 691.859 115.14V115.06C691.526 114.807 691.226 114.453 690.959 114C690.706 113.547 690.579 113.033 690.579 112.46C690.579 111.7 690.759 111.06 691.119 110.54C691.479 110.02 691.952 109.627 692.539 109.36C693.139 109.08 693.779 108.94 694.459 108.94C694.726 108.94 694.979 108.967 695.219 109.02C695.472 109.06 695.699 109.113 695.899 109.18H699.419V110.88H697.619C697.779 111.067 697.912 111.307 698.019 111.6C698.126 111.88 698.179 112.193 698.179 112.54C698.179 113.26 698.012 113.873 697.679 114.38C697.346 114.873 696.899 115.247 696.339 115.5C695.779 115.753 695.152 115.88 694.459 115.88C694.246 115.88 694.026 115.86 693.799 115.82C693.572 115.78 693.346 115.713 693.119 115.62C692.972 115.753 692.852 115.887 692.759 116.02C692.679 116.153 692.639 116.333 692.639 116.56C692.639 116.84 692.752 117.06 692.979 117.22C693.219 117.38 693.639 117.46 694.239 117.46H695.979C697.166 117.46 698.059 117.653 698.659 118.04C699.272 118.413 699.579 119.027 699.579 119.88C699.579 120.52 699.366 121.1 698.939 121.62C698.512 122.153 697.906 122.573 697.119 122.88C696.332 123.187 695.406 123.34 694.339 123.34ZM694.459 114.44C694.926 114.44 695.326 114.267 695.659 113.92C695.992 113.573 696.159 113.087 696.159 112.46C696.159 111.847 695.992 111.373 695.659 111.04C695.339 110.693 694.939 110.52 694.459 110.52C693.979 110.52 693.572 110.687 693.239 111.02C692.906 111.353 692.739 111.833 692.739 112.46C692.739 113.087 692.906 113.573 693.239 113.92C693.572 114.267 693.979 114.44 694.459 114.44ZM694.699 121.84C695.486 121.84 696.126 121.68 696.619 121.36C697.112 121.04 697.359 120.673 697.359 120.26C697.359 119.873 697.206 119.613 696.899 119.48C696.606 119.347 696.179 119.28 695.619 119.28H694.279C693.746 119.28 693.299 119.233 692.939 119.14C692.432 119.527 692.179 119.96 692.179 120.44C692.179 120.88 692.406 121.22 692.859 121.46C693.312 121.713 693.926 121.84 694.699 121.84ZM701.31 119V109.18H703.61V119H701.31ZM702.47 107.46C702.056 107.46 701.723 107.34 701.47 107.1C701.216 106.86 701.09 106.54 701.09 106.14C701.09 105.753 701.216 105.44 701.47 105.2C701.723 104.96 702.056 104.84 702.47 104.84C702.883 104.84 703.216 104.96 703.47 105.2C703.723 105.44 703.85 105.753 703.85 106.14C703.85 106.54 703.723 106.86 703.47 107.1C703.216 107.34 702.883 107.46 702.47 107.46ZM706.544 119V109.18H708.444L708.604 110.5H708.684C709.124 110.073 709.604 109.707 710.124 109.4C710.644 109.093 711.237 108.94 711.904 108.94C712.957 108.94 713.724 109.28 714.204 109.96C714.684 110.64 714.924 111.6 714.924 112.84V119H712.624V113.14C712.624 112.327 712.504 111.753 712.264 111.42C712.024 111.087 711.631 110.92 711.084 110.92C710.657 110.92 710.277 111.027 709.944 111.24C709.624 111.44 709.257 111.74 708.844 112.14V119H706.544ZM721.755 119.24C720.942 119.24 720.182 119.04 719.475 118.64C718.769 118.227 718.195 117.64 717.755 116.88C717.315 116.107 717.095 115.18 717.095 114.1C717.095 113.007 717.315 112.08 717.755 111.32C718.195 110.547 718.769 109.96 719.475 109.56C720.182 109.147 720.942 108.94 721.755 108.94C722.582 108.94 723.349 109.147 724.055 109.56C724.762 109.96 725.335 110.547 725.775 111.32C726.215 112.08 726.435 113.007 726.435 114.1C726.435 115.18 726.215 116.107 725.775 116.88C725.335 117.64 724.762 118.227 724.055 118.64C723.349 119.04 722.582 119.24 721.755 119.24ZM721.755 117.36C722.475 117.36 723.042 117.06 723.455 116.46C723.869 115.86 724.075 115.073 724.075 114.1C724.075 113.113 723.869 112.32 723.455 111.72C723.042 111.12 722.475 110.82 721.755 110.82C721.035 110.82 720.469 111.12 720.055 111.72C719.655 112.32 719.455 113.113 719.455 114.1C719.455 115.073 719.655 115.86 720.055 116.46C720.469 117.06 721.035 117.36 721.755 117.36ZM728.712 119V109.18H730.612L730.772 110.52H730.852C731.265 110.08 731.712 109.707 732.192 109.4C732.685 109.093 733.239 108.94 733.852 108.94C734.572 108.94 735.145 109.1 735.572 109.42C736.012 109.727 736.345 110.153 736.572 110.7C737.039 110.193 737.525 109.773 738.032 109.44C738.552 109.107 739.119 108.94 739.732 108.94C740.772 108.94 741.539 109.28 742.032 109.96C742.525 110.64 742.772 111.6 742.772 112.84V119H740.452V113.14C740.452 112.327 740.325 111.753 740.072 111.42C739.832 111.087 739.459 110.92 738.952 110.92C738.339 110.92 737.652 111.327 736.892 112.14V119H734.592V113.14C734.592 112.327 734.465 111.753 734.212 111.42C733.972 111.087 733.592 110.92 733.072 110.92C732.459 110.92 731.772 111.327 731.012 112.14V119H728.712ZM753.591 119.24C752.711 119.24 751.858 119.073 751.031 118.74C750.218 118.407 749.498 117.933 748.871 117.32L750.231 115.74C750.698 116.18 751.231 116.54 751.831 116.82C752.431 117.087 753.031 117.22 753.631 117.22C754.378 117.22 754.945 117.067 755.331 116.76C755.718 116.453 755.911 116.047 755.911 115.54C755.911 114.993 755.718 114.6 755.331 114.36C754.958 114.12 754.478 113.873 753.891 113.62L752.091 112.84C751.665 112.653 751.245 112.413 750.831 112.12C750.431 111.827 750.098 111.453 749.831 111C749.578 110.547 749.451 110 749.451 109.36C749.451 108.667 749.638 108.047 750.011 107.5C750.398 106.94 750.918 106.5 751.571 106.18C752.238 105.847 752.998 105.68 753.851 105.68C754.611 105.68 755.345 105.833 756.051 106.14C756.758 106.433 757.365 106.833 757.871 107.34L756.691 108.82C756.278 108.473 755.838 108.2 755.371 108C754.918 107.8 754.411 107.7 753.851 107.7C753.238 107.7 752.738 107.84 752.351 108.12C751.978 108.387 751.791 108.76 751.791 109.24C751.791 109.573 751.885 109.853 752.071 110.08C752.271 110.293 752.531 110.48 752.851 110.64C753.171 110.787 753.511 110.933 753.871 111.08L755.651 111.82C756.425 112.153 757.058 112.593 757.551 113.14C758.045 113.673 758.291 114.413 758.291 115.36C758.291 116.067 758.105 116.713 757.731 117.3C757.358 117.887 756.818 118.36 756.111 118.72C755.418 119.067 754.578 119.24 753.591 119.24ZM764.67 119.24C763.763 119.24 762.943 119.04 762.21 118.64C761.476 118.227 760.896 117.64 760.47 116.88C760.043 116.107 759.83 115.18 759.83 114.1C759.83 113.033 760.043 112.113 760.47 111.34C760.91 110.567 761.476 109.973 762.17 109.56C762.863 109.147 763.59 108.94 764.35 108.94C765.243 108.94 765.99 109.14 766.59 109.54C767.19 109.927 767.643 110.473 767.95 111.18C768.256 111.873 768.41 112.68 768.41 113.6C768.41 114.08 768.376 114.453 768.31 114.72H762.07C762.176 115.587 762.49 116.26 763.01 116.74C763.53 117.22 764.183 117.46 764.97 117.46C765.396 117.46 765.79 117.4 766.15 117.28C766.523 117.147 766.89 116.967 767.25 116.74L768.03 118.18C767.563 118.487 767.043 118.74 766.47 118.94C765.896 119.14 765.296 119.24 764.67 119.24ZM762.05 113.16H766.41C766.41 112.4 766.243 111.807 765.91 111.38C765.576 110.94 765.076 110.72 764.41 110.72C763.836 110.72 763.323 110.933 762.87 111.36C762.43 111.773 762.156 112.373 762.05 113.16ZM770.606 119V109.18H772.506L772.666 110.92H772.746C773.093 110.28 773.513 109.793 774.006 109.46C774.5 109.113 775.006 108.94 775.526 108.94C775.993 108.94 776.366 109.007 776.646 109.14L776.246 111.14C776.073 111.087 775.913 111.047 775.766 111.02C775.62 110.993 775.44 110.98 775.226 110.98C774.84 110.98 774.433 111.133 774.006 111.44C773.58 111.733 773.213 112.253 772.906 113V119H770.606ZM780.58 119L777.16 109.18H779.5L781.06 114.28C781.193 114.76 781.327 115.247 781.46 115.74C781.607 116.233 781.747 116.733 781.88 117.24H781.96C782.107 116.733 782.247 116.233 782.38 115.74C782.527 115.247 782.667 114.76 782.8 114.28L784.36 109.18H786.58L783.24 119H780.58ZM792.365 119.24C791.458 119.24 790.638 119.04 789.905 118.64C789.172 118.227 788.592 117.64 788.165 116.88C787.738 116.107 787.525 115.18 787.525 114.1C787.525 113.033 787.738 112.113 788.165 111.34C788.605 110.567 789.172 109.973 789.865 109.56C790.558 109.147 791.285 108.94 792.045 108.94C792.938 108.94 793.685 109.14 794.285 109.54C794.885 109.927 795.338 110.473 795.645 111.18C795.952 111.873 796.105 112.68 796.105 113.6C796.105 114.08 796.072 114.453 796.005 114.72H789.765C789.872 115.587 790.185 116.26 790.705 116.74C791.225 117.22 791.878 117.46 792.665 117.46C793.092 117.46 793.485 117.4 793.845 117.28C794.218 117.147 794.585 116.967 794.945 116.74L795.725 118.18C795.258 118.487 794.738 118.74 794.165 118.94C793.592 119.14 792.992 119.24 792.365 119.24ZM789.745 113.16H794.105C794.105 112.4 793.938 111.807 793.605 111.38C793.272 110.94 792.772 110.72 792.105 110.72C791.532 110.72 791.018 110.933 790.565 111.36C790.125 111.773 789.852 112.373 789.745 113.16ZM798.302 119V109.18H800.202L800.362 110.92H800.442C800.788 110.28 801.208 109.793 801.702 109.46C802.195 109.113 802.702 108.94 803.222 108.94C803.688 108.94 804.062 109.007 804.342 109.14L803.942 111.14C803.768 111.087 803.608 111.047 803.462 111.02C803.315 110.993 803.135 110.98 802.922 110.98C802.535 110.98 802.128 111.133 801.702 111.44C801.275 111.733 800.908 112.253 800.602 113V119H798.302Z" fill="#333333"/>
<rect y="48" width="192" height="128" rx="6" fill="#ECEDF2"/>
<rect x="4" y="60" width="184" height="112" rx="2" fill="white"/>
<path d="M60.912 119.2V106.12H69.432V108.08H63.232V111.42H65.372C66.3053 111.42 67.1386 111.54 67.872 111.78C68.6186 112.02 69.2053 112.413 69.632 112.96C70.072 113.493 70.292 114.22 70.292 115.14C70.292 116.087 70.0853 116.86 69.672 117.46C69.2586 118.06 68.6853 118.5 67.952 118.78C67.232 119.06 66.3986 119.2 65.452 119.2H60.912ZM63.232 117.4H65.172C67.0653 117.4 68.012 116.66 68.012 115.18C68.012 114.447 67.7653 113.927 67.272 113.62C66.792 113.313 66.0786 113.16 65.132 113.16H63.232V117.4ZM72.5088 123.08V109.38H74.4088L74.5688 110.42H74.6488C75.0622 110.073 75.5222 109.773 76.0288 109.52C76.5488 109.267 77.0755 109.14 77.6088 109.14C78.8355 109.14 79.7822 109.593 80.4488 110.5C81.1288 111.407 81.4688 112.62 81.4688 114.14C81.4688 115.26 81.2688 116.22 80.8688 117.02C80.4688 117.807 79.9488 118.407 79.3088 118.82C78.6822 119.233 78.0022 119.44 77.2688 119.44C76.8422 119.44 76.4155 119.347 75.9888 119.16C75.5622 118.96 75.1488 118.693 74.7488 118.36L74.8088 120V123.08H72.5088ZM76.7888 117.54C77.4422 117.54 77.9888 117.253 78.4288 116.68C78.8688 116.107 79.0888 115.267 79.0888 114.16C79.0888 113.173 78.9222 112.407 78.5888 111.86C78.2555 111.313 77.7155 111.04 76.9688 111.04C76.2755 111.04 75.5555 111.407 74.8088 112.14V116.72C75.1688 117.013 75.5155 117.227 75.8488 117.36C76.1822 117.48 76.4955 117.54 76.7888 117.54ZM85.9435 119.44C85.0902 119.44 84.3902 119.173 83.8435 118.64C83.3102 118.107 83.0435 117.413 83.0435 116.56C83.0435 115.507 83.5035 114.693 84.4235 114.12C85.3435 113.533 86.8102 113.133 88.8235 112.92C88.8102 112.4 88.6702 111.953 88.4035 111.58C88.1502 111.193 87.6902 111 87.0235 111C86.5435 111 86.0702 111.093 85.6035 111.28C85.1502 111.467 84.7035 111.693 84.2635 111.96L83.4235 110.42C83.9702 110.073 84.5835 109.773 85.2635 109.52C85.9568 109.267 86.6902 109.14 87.4635 109.14C88.6902 109.14 89.6035 109.507 90.2035 110.24C90.8168 110.96 91.1235 112.007 91.1235 113.38V119.2H89.2235L89.0635 118.12H88.9835C88.5435 118.493 88.0702 118.807 87.5635 119.06C87.0702 119.313 86.5302 119.44 85.9435 119.44ZM86.6835 117.64C87.0835 117.64 87.4435 117.547 87.7635 117.36C88.0968 117.16 88.4502 116.893 88.8235 116.56V114.36C87.4902 114.533 86.5635 114.793 86.0435 115.14C85.5235 115.473 85.2635 115.887 85.2635 116.38C85.2635 116.82 85.3968 117.14 85.6635 117.34C85.9302 117.54 86.2702 117.64 86.6835 117.64ZM94.536 123.24C94.2693 123.24 94.036 123.22 93.836 123.18C93.636 123.14 93.4427 123.093 93.256 123.04L93.676 121.24C93.7693 121.267 93.876 121.293 93.996 121.32C94.1293 121.36 94.256 121.38 94.376 121.38C94.896 121.38 95.3093 121.22 95.616 120.9C95.936 120.593 96.176 120.193 96.336 119.7L96.516 119.08L92.656 109.38H94.996L96.696 114.2C96.8427 114.627 96.9827 115.08 97.116 115.56C97.2627 116.027 97.4093 116.493 97.556 116.96H97.636C97.756 116.507 97.876 116.047 97.996 115.58C98.1293 115.1 98.256 114.64 98.376 114.2L99.856 109.38H102.076L98.516 119.64C98.1027 120.747 97.6027 121.62 97.016 122.26C96.4293 122.913 95.6027 123.24 94.536 123.24ZM106.406 119.44C105.739 119.44 105.099 119.36 104.486 119.2C103.873 119.027 103.259 118.707 102.646 118.24L103.586 116.76C104.013 117.093 104.453 117.327 104.906 117.46C105.359 117.593 105.793 117.66 106.206 117.66C106.793 117.66 107.293 117.533 107.706 117.28C108.119 117.027 108.326 116.673 108.326 116.22C108.326 115.353 107.659 114.92 106.326 114.92H104.866V113.36H106.126C106.753 113.36 107.219 113.253 107.526 113.04C107.833 112.813 107.986 112.507 107.986 112.12C107.986 111.72 107.826 111.42 107.506 111.22C107.199 111.02 106.779 110.92 106.246 110.92C105.753 110.92 105.306 110.98 104.906 111.1C104.519 111.22 104.133 111.413 103.746 111.68L102.846 110.18C103.353 109.833 103.893 109.573 104.466 109.4C105.053 109.227 105.693 109.14 106.386 109.14C107.066 109.14 107.693 109.24 108.266 109.44C108.853 109.627 109.319 109.92 109.666 110.32C110.026 110.72 110.206 111.233 110.206 111.86C110.206 112.3 110.073 112.72 109.806 113.12C109.539 113.507 109.139 113.793 108.606 113.98V114.06C109.193 114.207 109.673 114.473 110.046 114.86C110.419 115.233 110.606 115.76 110.606 116.44C110.606 117.08 110.406 117.627 110.006 118.08C109.606 118.52 109.086 118.86 108.446 119.1C107.806 119.327 107.126 119.44 106.406 119.44ZM116.982 119.44C116.076 119.44 115.256 119.24 114.522 118.84C113.789 118.427 113.209 117.84 112.782 117.08C112.356 116.307 112.142 115.38 112.142 114.3C112.142 113.233 112.356 112.313 112.782 111.54C113.222 110.767 113.789 110.173 114.482 109.76C115.176 109.347 115.902 109.14 116.662 109.14C117.556 109.14 118.302 109.34 118.902 109.74C119.502 110.127 119.956 110.673 120.262 111.38C120.569 112.073 120.722 112.88 120.722 113.8C120.722 114.28 120.689 114.653 120.622 114.92H114.382C114.489 115.787 114.802 116.46 115.322 116.94C115.842 117.42 116.496 117.66 117.282 117.66C117.709 117.66 118.102 117.6 118.462 117.48C118.836 117.347 119.202 117.167 119.562 116.94L120.342 118.38C119.876 118.687 119.356 118.94 118.782 119.14C118.209 119.34 117.609 119.44 116.982 119.44ZM114.362 113.36H118.722C118.722 112.6 118.556 112.007 118.222 111.58C117.889 111.14 117.389 110.92 116.722 110.92C116.149 110.92 115.636 111.133 115.182 111.56C114.742 111.973 114.469 112.573 114.362 113.36ZM122.919 123.08V109.38H124.819L124.979 110.42H125.059C125.472 110.073 125.932 109.773 126.439 109.52C126.959 109.267 127.486 109.14 128.019 109.14C129.246 109.14 130.192 109.593 130.859 110.5C131.539 111.407 131.879 112.62 131.879 114.14C131.879 115.26 131.679 116.22 131.279 117.02C130.879 117.807 130.359 118.407 129.719 118.82C129.092 119.233 128.412 119.44 127.679 119.44C127.252 119.44 126.826 119.347 126.399 119.16C125.972 118.96 125.559 118.693 125.159 118.36L125.219 120V123.08H122.919ZM127.199 117.54C127.852 117.54 128.399 117.253 128.839 116.68C129.279 116.107 129.499 115.267 129.499 114.16C129.499 113.173 129.332 112.407 128.999 111.86C128.666 111.313 128.126 111.04 127.379 111.04C126.686 111.04 125.966 111.407 125.219 112.14V116.72C125.579 117.013 125.926 117.227 126.259 117.36C126.592 117.48 126.906 117.54 127.199 117.54Z" fill="#333333"/>
<rect x="4" y="52" width="164" height="4" rx="2" fill="white"/>
<circle cx="186" cy="54" r="2" fill="white"/>
<circle cx="180" cy="54" r="2" fill="white"/>
<circle cx="174" cy="54" r="2" fill="white"/>
<rect x="632" y="92" width="8" height="24" fill="#9A9FAF"/>
<rect x="328" y="80" width="8" height="24" fill="#9A9FAF"/>
<rect x="192" y="80" width="8" height="24" fill="#9A9FAF"/>
<rect x="192" y="120" width="8" height="24" fill="#9A9FAF"/>
<path d="M550.905 72L549.237 64.128H550.269L551.097 68.412C551.169 68.836 551.245 69.26 551.325 69.684C551.405 70.108 551.481 70.532 551.553 70.956H551.601C551.689 70.532 551.781 70.108 551.877 69.684C551.973 69.252 552.065 68.828 552.153 68.412L553.245 64.128H554.157L555.249 68.412C555.345 68.828 555.441 69.252 555.537 69.684C555.633 70.108 555.729 70.532 555.825 70.956H555.873C555.945 70.532 556.017 70.108 556.089 69.684C556.161 69.252 556.237 68.828 556.317 68.412L557.145 64.128H558.105L556.473 72H555.273L554.085 67.26C554.013 66.956 553.945 66.66 553.881 66.372C553.825 66.076 553.765 65.776 553.701 65.472H553.653C553.597 65.776 553.533 66.076 553.461 66.372C553.389 66.66 553.321 66.956 553.257 67.26L552.093 72H550.905ZM561.743 72.144C561.223 72.144 560.751 72.024 560.327 71.784C559.903 71.536 559.567 71.184 559.319 70.728C559.071 70.272 558.947 69.728 558.947 69.096C558.947 68.456 559.071 67.908 559.319 67.452C559.575 66.996 559.903 66.644 560.303 66.396C560.703 66.148 561.123 66.024 561.563 66.024C562.307 66.024 562.879 66.272 563.279 66.768C563.687 67.264 563.891 67.928 563.891 68.76C563.891 68.864 563.887 68.968 563.879 69.072C563.879 69.168 563.871 69.252 563.855 69.324H559.919C559.959 69.94 560.151 70.432 560.495 70.8C560.847 71.168 561.303 71.352 561.863 71.352C562.143 71.352 562.399 71.312 562.631 71.232C562.871 71.144 563.099 71.032 563.315 70.896L563.663 71.544C563.415 71.704 563.131 71.844 562.811 71.964C562.499 72.084 562.143 72.144 561.743 72.144ZM559.907 68.616H563.027C563.027 68.024 562.899 67.576 562.643 67.272C562.395 66.96 562.043 66.804 561.587 66.804C561.179 66.804 560.811 66.964 560.483 67.284C560.163 67.596 559.971 68.04 559.907 68.616ZM567.912 72.144C567.64 72.144 567.356 72.08 567.06 71.952C566.772 71.816 566.5 71.632 566.244 71.4H566.208L566.124 72H565.332V63.456H566.316V65.784L566.292 66.84C566.556 66.608 566.844 66.416 567.156 66.264C567.476 66.104 567.796 66.024 568.116 66.024C568.876 66.024 569.452 66.292 569.844 66.828C570.236 67.364 570.432 68.084 570.432 68.988C570.432 69.652 570.312 70.22 570.072 70.692C569.84 71.164 569.532 71.524 569.148 71.772C568.772 72.02 568.36 72.144 567.912 72.144ZM567.744 71.316C568.224 71.316 568.62 71.112 568.932 70.704C569.252 70.288 569.412 69.72 569.412 69C569.412 68.36 569.292 67.844 569.052 67.452C568.82 67.052 568.428 66.852 567.876 66.852C567.628 66.852 567.376 66.92 567.12 67.056C566.864 67.192 566.596 67.388 566.316 67.644V70.704C566.572 70.928 566.824 71.088 567.072 71.184C567.328 71.272 567.552 71.316 567.744 71.316ZM574.244 72.144C573.692 72.144 573.18 72.04 572.708 71.832C572.236 71.616 571.828 71.332 571.484 70.98L572.084 70.284C572.364 70.58 572.692 70.82 573.068 71.004C573.452 71.18 573.848 71.268 574.256 71.268C574.776 71.268 575.18 71.152 575.468 70.92C575.756 70.68 575.9 70.368 575.9 69.984C575.9 69.712 575.84 69.496 575.72 69.336C575.608 69.176 575.452 69.04 575.252 68.928C575.06 68.816 574.84 68.704 574.592 68.592L573.464 68.1C573.216 67.996 572.968 67.86 572.72 67.692C572.48 67.524 572.276 67.308 572.108 67.044C571.948 66.78 571.868 66.456 571.868 66.072C571.868 65.672 571.972 65.316 572.18 65.004C572.396 64.684 572.692 64.436 573.068 64.26C573.444 64.076 573.868 63.984 574.34 63.984C574.812 63.984 575.248 64.076 575.648 64.26C576.048 64.436 576.388 64.668 576.668 64.956L576.128 65.604C575.888 65.372 575.62 65.192 575.324 65.064C575.036 64.928 574.708 64.86 574.34 64.86C573.9 64.86 573.544 64.964 573.272 65.172C573.008 65.38 572.876 65.66 572.876 66.012C572.876 66.26 572.94 66.468 573.068 66.636C573.204 66.796 573.372 66.928 573.572 67.032C573.772 67.136 573.976 67.232 574.184 67.32L575.3 67.8C575.604 67.928 575.876 68.084 576.116 68.268C576.364 68.444 576.56 68.664 576.704 68.928C576.848 69.184 576.92 69.508 576.92 69.9C576.92 70.316 576.812 70.696 576.596 71.04C576.38 71.376 576.072 71.644 575.672 71.844C575.272 72.044 574.796 72.144 574.244 72.144ZM580.643 72.144C580.171 72.144 579.727 72.024 579.311 71.784C578.903 71.544 578.571 71.196 578.315 70.74C578.067 70.284 577.943 69.736 577.943 69.096C577.943 68.44 578.067 67.884 578.315 67.428C578.571 66.972 578.903 66.624 579.311 66.384C579.727 66.144 580.171 66.024 580.643 66.024C581.123 66.024 581.567 66.144 581.975 66.384C582.383 66.624 582.711 66.972 582.959 67.428C583.215 67.884 583.343 68.44 583.343 69.096C583.343 69.736 583.215 70.284 582.959 70.74C582.711 71.196 582.383 71.544 581.975 71.784C581.567 72.024 581.123 72.144 580.643 72.144ZM580.643 71.328C581.147 71.328 581.551 71.124 581.855 70.716C582.167 70.3 582.323 69.76 582.323 69.096C582.323 68.424 582.167 67.88 581.855 67.464C581.551 67.048 581.147 66.84 580.643 66.84C580.147 66.84 579.743 67.048 579.431 67.464C579.119 67.88 578.963 68.424 578.963 69.096C578.963 69.76 579.119 70.3 579.431 70.716C579.743 71.124 580.147 71.328 580.643 71.328ZM587.183 72.144C586.671 72.144 586.207 72.024 585.791 71.784C585.375 71.544 585.047 71.196 584.807 70.74C584.567 70.284 584.447 69.736 584.447 69.096C584.447 68.44 584.575 67.884 584.831 67.428C585.095 66.972 585.439 66.624 585.863 66.384C586.295 66.144 586.759 66.024 587.255 66.024C587.639 66.024 587.967 66.092 588.239 66.228C588.519 66.364 588.759 66.524 588.959 66.708L588.455 67.356C588.287 67.204 588.107 67.08 587.915 66.984C587.731 66.888 587.523 66.84 587.291 66.84C586.939 66.84 586.623 66.936 586.343 67.128C586.071 67.312 585.855 67.576 585.695 67.92C585.543 68.256 585.467 68.648 585.467 69.096C585.467 69.76 585.631 70.3 585.959 70.716C586.295 71.124 586.731 71.328 587.267 71.328C587.539 71.328 587.791 71.272 588.023 71.16C588.255 71.04 588.459 70.9 588.635 70.74L589.067 71.4C588.803 71.632 588.511 71.816 588.191 71.952C587.871 72.08 587.535 72.144 587.183 72.144ZM590.351 72V63.456H591.323V69.24H591.359L593.843 66.168H594.935L592.979 68.508L595.199 72H594.119L592.415 69.192L591.323 70.464V72H590.351ZM598.446 72.144C597.926 72.144 597.454 72.024 597.03 71.784C596.606 71.536 596.27 71.184 596.022 70.728C595.774 70.272 595.65 69.728 595.65 69.096C595.65 68.456 595.774 67.908 596.022 67.452C596.278 66.996 596.606 66.644 597.006 66.396C597.406 66.148 597.826 66.024 598.266 66.024C599.01 66.024 599.582 66.272 599.982 66.768C600.39 67.264 600.594 67.928 600.594 68.76C600.594 68.864 600.59 68.968 600.582 69.072C600.582 69.168 600.574 69.252 600.558 69.324H596.622C596.662 69.94 596.854 70.432 597.198 70.8C597.55 71.168 598.006 71.352 598.566 71.352C598.846 71.352 599.102 71.312 599.334 71.232C599.574 71.144 599.802 71.032 600.018 70.896L600.366 71.544C600.118 71.704 599.834 71.844 599.514 71.964C599.202 72.084 598.846 72.144 598.446 72.144ZM596.61 68.616H599.73C599.73 68.024 599.602 67.576 599.346 67.272C599.098 66.96 598.746 66.804 598.29 66.804C597.882 66.804 597.514 66.964 597.186 67.284C596.866 67.596 596.674 68.04 596.61 68.616ZM603.754 72.144C603.13 72.144 602.694 71.964 602.446 71.604C602.206 71.244 602.086 70.776 602.086 70.2V66.972H601.222V66.228L602.134 66.168L602.254 64.536H603.082V66.168H604.654V66.972H603.082V70.212C603.082 70.572 603.146 70.852 603.274 71.052C603.41 71.244 603.646 71.34 603.982 71.34C604.086 71.34 604.198 71.324 604.318 71.292C604.438 71.252 604.546 71.216 604.642 71.184L604.834 71.928C604.674 71.984 604.498 72.032 604.306 72.072C604.122 72.12 603.938 72.144 603.754 72.144ZM606.652 67.812C606.452 67.812 606.28 67.744 606.136 67.608C606 67.464 605.932 67.284 605.932 67.068C605.932 66.836 606 66.652 606.136 66.516C606.28 66.372 606.452 66.3 606.652 66.3C606.844 66.3 607.008 66.372 607.144 66.516C607.288 66.652 607.36 66.836 607.36 67.068C607.36 67.284 607.288 67.464 607.144 67.608C607.008 67.744 606.844 67.812 606.652 67.812ZM606.652 72.144C606.452 72.144 606.28 72.076 606.136 71.94C606 71.796 605.932 71.616 605.932 71.4C605.932 71.168 606 70.984 606.136 70.848C606.28 70.704 606.452 70.632 606.652 70.632C606.844 70.632 607.008 70.704 607.144 70.848C607.288 70.984 607.36 71.168 607.36 71.4C607.36 71.616 607.288 71.796 607.144 71.94C607.008 72.076 606.844 72.144 606.652 72.144ZM611.141 72.144C610.661 72.144 610.233 72.056 609.857 71.88C609.481 71.696 609.181 71.444 608.957 71.124C608.741 70.804 608.633 70.444 608.633 70.044C608.633 69.708 608.701 69.412 608.837 69.156C608.981 68.892 609.161 68.664 609.377 68.472C609.601 68.272 609.833 68.108 610.073 67.98V67.932C609.793 67.732 609.545 67.488 609.329 67.2C609.113 66.912 609.005 66.568 609.005 66.168C609.005 65.776 609.101 65.432 609.293 65.136C609.485 64.84 609.745 64.612 610.073 64.452C610.401 64.284 610.769 64.2 611.177 64.2C611.841 64.2 612.365 64.392 612.749 64.776C613.141 65.16 613.337 65.648 613.337 66.24C613.337 66.504 613.281 66.756 613.169 66.996C613.057 67.228 612.921 67.44 612.761 67.632C612.601 67.816 612.441 67.968 612.281 68.088V68.136C612.513 68.264 612.729 68.416 612.929 68.592C613.129 68.768 613.293 68.98 613.421 69.228C613.549 69.468 613.613 69.76 613.613 70.104C613.613 70.48 613.509 70.824 613.301 71.136C613.101 71.448 612.813 71.696 612.437 71.88C612.069 72.056 611.637 72.144 611.141 72.144ZM611.681 67.824C611.937 67.592 612.133 67.348 612.269 67.092C612.413 66.836 612.485 66.568 612.485 66.288C612.485 65.912 612.369 65.592 612.137 65.328C611.905 65.064 611.577 64.932 611.153 64.932C610.801 64.932 610.505 65.044 610.265 65.268C610.033 65.492 609.917 65.792 609.917 66.168C609.917 66.472 609.997 66.724 610.157 66.924C610.325 67.124 610.545 67.296 610.817 67.44C611.089 67.576 611.377 67.704 611.681 67.824ZM611.165 71.412C611.613 71.412 611.973 71.288 612.245 71.04C612.525 70.784 612.665 70.46 612.665 70.068C612.665 69.74 612.569 69.472 612.377 69.264C612.185 69.056 611.929 68.876 611.609 68.724C611.297 68.572 610.957 68.424 610.589 68.28C610.285 68.48 610.029 68.72 609.821 69C609.621 69.28 609.521 69.596 609.521 69.948C609.521 70.372 609.677 70.724 609.989 71.004C610.309 71.276 610.701 71.412 611.165 71.412ZM617.093 72.144C616.325 72.144 615.721 71.8 615.281 71.112C614.849 70.416 614.633 69.428 614.633 68.148C614.633 66.86 614.849 65.88 615.281 65.208C615.721 64.536 616.325 64.2 617.093 64.2C617.853 64.2 618.449 64.536 618.881 65.208C619.321 65.88 619.541 66.86 619.541 68.148C619.541 69.428 619.321 70.416 618.881 71.112C618.449 71.8 617.853 72.144 617.093 72.144ZM617.093 71.352C617.541 71.352 617.901 71.1 618.173 70.596C618.445 70.084 618.581 69.268 618.581 68.148C618.581 67.028 618.445 66.224 618.173 65.736C617.901 65.24 617.541 64.992 617.093 64.992C616.645 64.992 616.281 65.24 616.001 65.736C615.729 66.224 615.593 67.028 615.593 68.148C615.593 69.268 615.729 70.084 616.001 70.596C616.281 71.1 616.645 71.352 617.093 71.352ZM623.07 72.144C622.59 72.144 622.162 72.056 621.786 71.88C621.41 71.696 621.11 71.444 620.886 71.124C620.67 70.804 620.562 70.444 620.562 70.044C620.562 69.708 620.63 69.412 620.766 69.156C620.91 68.892 621.09 68.664 621.306 68.472C621.53 68.272 621.762 68.108 622.002 67.98V67.932C621.722 67.732 621.474 67.488 621.258 67.2C621.042 66.912 620.934 66.568 620.934 66.168C620.934 65.776 621.03 65.432 621.222 65.136C621.414 64.84 621.674 64.612 622.002 64.452C622.33 64.284 622.698 64.2 623.106 64.2C623.77 64.2 624.294 64.392 624.678 64.776C625.07 65.16 625.266 65.648 625.266 66.24C625.266 66.504 625.21 66.756 625.098 66.996C624.986 67.228 624.85 67.44 624.69 67.632C624.53 67.816 624.37 67.968 624.21 68.088V68.136C624.442 68.264 624.658 68.416 624.858 68.592C625.058 68.768 625.222 68.98 625.35 69.228C625.478 69.468 625.542 69.76 625.542 70.104C625.542 70.48 625.438 70.824 625.23 71.136C625.03 71.448 624.742 71.696 624.366 71.88C623.998 72.056 623.566 72.144 623.07 72.144ZM623.61 67.824C623.866 67.592 624.062 67.348 624.198 67.092C624.342 66.836 624.414 66.568 624.414 66.288C624.414 65.912 624.298 65.592 624.066 65.328C623.834 65.064 623.506 64.932 623.082 64.932C622.73 64.932 622.434 65.044 622.194 65.268C621.962 65.492 621.846 65.792 621.846 66.168C621.846 66.472 621.926 66.724 622.086 66.924C622.254 67.124 622.474 67.296 622.746 67.44C623.018 67.576 623.306 67.704 623.61 67.824ZM623.094 71.412C623.542 71.412 623.902 71.288 624.174 71.04C624.454 70.784 624.594 70.46 624.594 70.068C624.594 69.74 624.498 69.472 624.306 69.264C624.114 69.056 623.858 68.876 623.538 68.724C623.226 68.572 622.886 68.424 622.518 68.28C622.214 68.48 621.958 68.72 621.75 69C621.55 69.28 621.45 69.596 621.45 69.948C621.45 70.372 621.606 70.724 621.918 71.004C622.238 71.276 622.63 71.412 623.094 71.412ZM629.023 72.144C628.255 72.144 627.651 71.8 627.211 71.112C626.779 70.416 626.563 69.428 626.563 68.148C626.563 66.86 626.779 65.88 627.211 65.208C627.651 64.536 628.255 64.2 629.023 64.2C629.783 64.2 630.379 64.536 630.811 65.208C631.251 65.88 631.471 66.86 631.471 68.148C631.471 69.428 631.251 70.416 630.811 71.112C630.379 71.8 629.783 72.144 629.023 72.144ZM629.023 71.352C629.471 71.352 629.831 71.1 630.103 70.596C630.375 70.084 630.511 69.268 630.511 68.148C630.511 67.028 630.375 66.224 630.103 65.736C629.831 65.24 629.471 64.992 629.023 64.992C628.575 64.992 628.211 65.24 627.931 65.736C627.659 66.224 627.523 67.028 627.523 68.148C627.523 69.268 627.659 70.084 627.931 70.596C628.211 71.1 628.575 71.352 629.023 71.352ZM606.652 83.812C606.452 83.812 606.28 83.744 606.136 83.608C606 83.464 605.932 83.284 605.932 83.068C605.932 82.836 606 82.652 606.136 82.516C606.28 82.372 606.452 82.3 606.652 82.3C606.844 82.3 607.008 82.372 607.144 82.516C607.288 82.652 607.36 82.836 607.36 83.068C607.36 83.284 607.288 83.464 607.144 83.608C607.008 83.744 606.844 83.812 606.652 83.812ZM606.652 88.144C606.452 88.144 606.28 88.076 606.136 87.94C606 87.796 605.932 87.616 605.932 87.4C605.932 87.168 606 86.984 606.136 86.848C606.28 86.704 606.452 86.632 606.652 86.632C606.844 86.632 607.008 86.704 607.144 86.848C607.288 86.984 607.36 87.168 607.36 87.4C607.36 87.616 607.288 87.796 607.144 87.94C607.008 88.076 606.844 88.144 606.652 88.144ZM611.141 88.144C610.661 88.144 610.233 88.056 609.857 87.88C609.481 87.696 609.181 87.444 608.957 87.124C608.741 86.804 608.633 86.444 608.633 86.044C608.633 85.708 608.701 85.412 608.837 85.156C608.981 84.892 609.161 84.664 609.377 84.472C609.601 84.272 609.833 84.108 610.073 83.98V83.932C609.793 83.732 609.545 83.488 609.329 83.2C609.113 82.912 609.005 82.568 609.005 82.168C609.005 81.776 609.101 81.432 609.293 81.136C609.485 80.84 609.745 80.612 610.073 80.452C610.401 80.284 610.769 80.2 611.177 80.2C611.841 80.2 612.365 80.392 612.749 80.776C613.141 81.16 613.337 81.648 613.337 82.24C613.337 82.504 613.281 82.756 613.169 82.996C613.057 83.228 612.921 83.44 612.761 83.632C612.601 83.816 612.441 83.968 612.281 84.088V84.136C612.513 84.264 612.729 84.416 612.929 84.592C613.129 84.768 613.293 84.98 613.421 85.228C613.549 85.468 613.613 85.76 613.613 86.104C613.613 86.48 613.509 86.824 613.301 87.136C613.101 87.448 612.813 87.696 612.437 87.88C612.069 88.056 611.637 88.144 611.141 88.144ZM611.681 83.824C611.937 83.592 612.133 83.348 612.269 83.092C612.413 82.836 612.485 82.568 612.485 82.288C612.485 81.912 612.369 81.592 612.137 81.328C611.905 81.064 611.577 80.932 611.153 80.932C610.801 80.932 610.505 81.044 610.265 81.268C610.033 81.492 609.917 81.792 609.917 82.168C609.917 82.472 609.997 82.724 610.157 82.924C610.325 83.124 610.545 83.296 610.817 83.44C611.089 83.576 611.377 83.704 611.681 83.824ZM611.165 87.412C611.613 87.412 611.973 87.288 612.245 87.04C612.525 86.784 612.665 86.46 612.665 86.068C612.665 85.74 612.569 85.472 612.377 85.264C612.185 85.056 611.929 84.876 611.609 84.724C611.297 84.572 610.957 84.424 610.589 84.28C610.285 84.48 610.029 84.72 609.821 85C609.621 85.28 609.521 85.596 609.521 85.948C609.521 86.372 609.677 86.724 609.989 87.004C610.309 87.276 610.701 87.412 611.165 87.412ZM615.353 85.096H617.753V82.876C617.753 82.668 617.761 82.42 617.777 82.132C617.793 81.844 617.805 81.6 617.813 81.4H617.765C617.669 81.584 617.569 81.764 617.465 81.94C617.361 82.116 617.253 82.296 617.141 82.48L615.353 85.096ZM617.753 88V85.888H614.309V85.24L617.585 80.344H618.689V85.096H619.733V85.888H618.689V88H617.753ZM621.318 85.096H623.718V82.876C623.718 82.668 623.726 82.42 623.742 82.132C623.758 81.844 623.77 81.6 623.778 81.4H623.73C623.634 81.584 623.534 81.764 623.43 81.94C623.326 82.116 623.218 82.296 623.106 82.48L621.318 85.096ZM623.718 88V85.888H620.274V85.24L623.55 80.344H624.654V85.096H625.698V85.888H624.654V88H623.718ZM628.867 88.144C628.259 88.144 627.751 88.036 627.343 87.82C626.935 87.596 626.603 87.344 626.347 87.064L626.851 86.416C627.083 86.656 627.355 86.868 627.667 87.052C627.979 87.236 628.359 87.328 628.807 87.328C629.271 87.328 629.651 87.2 629.947 86.944C630.243 86.688 630.391 86.348 630.391 85.924C630.391 85.62 630.311 85.356 630.151 85.132C629.999 84.9 629.743 84.72 629.383 84.592C629.031 84.464 628.551 84.4 627.943 84.4V83.644C628.487 83.644 628.915 83.58 629.227 83.452C629.547 83.324 629.775 83.152 629.911 82.936C630.047 82.72 630.115 82.48 630.115 82.216C630.115 81.84 629.995 81.544 629.755 81.328C629.523 81.112 629.203 81.004 628.795 81.004C628.475 81.004 628.179 81.076 627.907 81.22C627.643 81.364 627.395 81.552 627.163 81.784L626.635 81.16C626.931 80.88 627.259 80.652 627.619 80.476C627.979 80.292 628.383 80.2 628.831 80.2C629.495 80.2 630.043 80.372 630.475 80.716C630.907 81.052 631.123 81.528 631.123 82.144C631.123 82.608 630.995 82.988 630.739 83.284C630.483 83.58 630.147 83.808 629.731 83.968V84.016C630.195 84.12 630.587 84.34 630.907 84.676C631.227 85.004 631.387 85.432 631.387 85.96C631.387 86.408 631.275 86.796 631.051 87.124C630.827 87.452 630.523 87.704 630.139 87.88C629.763 88.056 629.339 88.144 628.867 88.144Z" fill="black"/>
<path d="M293.007 60V51.456H293.991V53.784L293.955 54.984C294.235 54.72 294.527 54.496 294.831 54.312C295.143 54.12 295.499 54.024 295.899 54.024C296.515 54.024 296.963 54.22 297.243 54.612C297.531 54.996 297.675 55.56 297.675 56.304V60H296.691V56.436C296.691 55.892 296.603 55.496 296.427 55.248C296.251 55 295.971 54.876 295.587 54.876C295.291 54.876 295.023 54.952 294.783 55.104C294.551 55.256 294.287 55.48 293.991 55.776V60H293.007ZM301.371 60.144C300.747 60.144 300.311 59.964 300.063 59.604C299.823 59.244 299.703 58.776 299.703 58.2V54.972H298.839V54.228L299.751 54.168L299.871 52.536H300.699V54.168H302.271V54.972H300.699V58.212C300.699 58.572 300.763 58.852 300.891 59.052C301.027 59.244 301.263 59.34 301.599 59.34C301.703 59.34 301.815 59.324 301.935 59.292C302.055 59.252 302.163 59.216 302.259 59.184L302.451 59.928C302.291 59.984 302.115 60.032 301.923 60.072C301.739 60.12 301.555 60.144 301.371 60.144ZM305.191 60.144C304.567 60.144 304.131 59.964 303.883 59.604C303.643 59.244 303.523 58.776 303.523 58.2V54.972H302.659V54.228L303.571 54.168L303.691 52.536H304.519V54.168H306.091V54.972H304.519V58.212C304.519 58.572 304.583 58.852 304.711 59.052C304.847 59.244 305.083 59.34 305.419 59.34C305.523 59.34 305.635 59.324 305.755 59.292C305.875 59.252 305.983 59.216 306.079 59.184L306.271 59.928C306.111 59.984 305.935 60.032 305.743 60.072C305.559 60.12 305.375 60.144 305.191 60.144ZM307.41 62.46V54.168H308.226L308.31 54.84H308.346C308.61 54.616 308.898 54.424 309.21 54.264C309.53 54.104 309.862 54.024 310.206 54.024C310.958 54.024 311.53 54.296 311.922 54.84C312.314 55.376 312.51 56.096 312.51 57C312.51 57.656 312.39 58.22 312.15 58.692C311.918 59.164 311.61 59.524 311.226 59.772C310.85 60.02 310.438 60.144 309.99 60.144C309.718 60.144 309.446 60.084 309.174 59.964C308.91 59.844 308.642 59.68 308.37 59.472L308.394 60.492V62.46H307.41ZM309.822 59.316C310.302 59.316 310.698 59.112 311.01 58.704C311.33 58.288 311.49 57.72 311.49 57C311.49 56.36 311.37 55.844 311.13 55.452C310.898 55.052 310.506 54.852 309.954 54.852C309.706 54.852 309.454 54.92 309.198 55.056C308.95 55.192 308.682 55.388 308.394 55.644V58.704C308.658 58.928 308.914 59.088 309.162 59.184C309.41 59.272 309.63 59.316 309.822 59.316ZM314.582 55.812C314.382 55.812 314.21 55.744 314.066 55.608C313.93 55.464 313.862 55.284 313.862 55.068C313.862 54.836 313.93 54.652 314.066 54.516C314.21 54.372 314.382 54.3 314.582 54.3C314.774 54.3 314.938 54.372 315.074 54.516C315.218 54.652 315.29 54.836 315.29 55.068C315.29 55.284 315.218 55.464 315.074 55.608C314.938 55.744 314.774 55.812 314.582 55.812ZM314.582 60.144C314.382 60.144 314.21 60.076 314.066 59.94C313.93 59.796 313.862 59.616 313.862 59.4C313.862 59.168 313.93 58.984 314.066 58.848C314.21 58.704 314.382 58.632 314.582 58.632C314.774 58.632 314.938 58.704 315.074 58.848C315.218 58.984 315.29 59.168 315.29 59.4C315.29 59.616 315.218 59.796 315.074 59.94C314.938 60.076 314.774 60.144 314.582 60.144ZM319.07 60.144C318.59 60.144 318.162 60.056 317.786 59.88C317.41 59.696 317.11 59.444 316.886 59.124C316.67 58.804 316.562 58.444 316.562 58.044C316.562 57.708 316.63 57.412 316.766 57.156C316.91 56.892 317.09 56.664 317.306 56.472C317.53 56.272 317.762 56.108 318.002 55.98V55.932C317.722 55.732 317.474 55.488 317.258 55.2C317.042 54.912 316.934 54.568 316.934 54.168C316.934 53.776 317.03 53.432 317.222 53.136C317.414 52.84 317.674 52.612 318.002 52.452C318.33 52.284 318.698 52.2 319.106 52.2C319.77 52.2 320.294 52.392 320.678 52.776C321.07 53.16 321.266 53.648 321.266 54.24C321.266 54.504 321.21 54.756 321.098 54.996C320.986 55.228 320.85 55.44 320.69 55.632C320.53 55.816 320.37 55.968 320.21 56.088V56.136C320.442 56.264 320.658 56.416 320.858 56.592C321.058 56.768 321.222 56.98 321.35 57.228C321.478 57.468 321.542 57.76 321.542 58.104C321.542 58.48 321.438 58.824 321.23 59.136C321.03 59.448 320.742 59.696 320.366 59.88C319.998 60.056 319.566 60.144 319.07 60.144ZM319.61 55.824C319.866 55.592 320.062 55.348 320.198 55.092C320.342 54.836 320.414 54.568 320.414 54.288C320.414 53.912 320.298 53.592 320.066 53.328C319.834 53.064 319.506 52.932 319.082 52.932C318.73 52.932 318.434 53.044 318.194 53.268C317.962 53.492 317.846 53.792 317.846 54.168C317.846 54.472 317.926 54.724 318.086 54.924C318.254 55.124 318.474 55.296 318.746 55.44C319.018 55.576 319.306 55.704 319.61 55.824ZM319.094 59.412C319.542 59.412 319.902 59.288 320.174 59.04C320.454 58.784 320.594 58.46 320.594 58.068C320.594 57.74 320.498 57.472 320.306 57.264C320.114 57.056 319.858 56.876 319.538 56.724C319.226 56.572 318.886 56.424 318.518 56.28C318.214 56.48 317.958 56.72 317.75 57C317.55 57.28 317.45 57.596 317.45 57.948C317.45 58.372 317.606 58.724 317.918 59.004C318.238 59.276 318.63 59.412 319.094 59.412ZM325.023 60.144C324.255 60.144 323.651 59.8 323.211 59.112C322.779 58.416 322.563 57.428 322.563 56.148C322.563 54.86 322.779 53.88 323.211 53.208C323.651 52.536 324.255 52.2 325.023 52.2C325.783 52.2 326.379 52.536 326.811 53.208C327.251 53.88 327.471 54.86 327.471 56.148C327.471 57.428 327.251 58.416 326.811 59.112C326.379 59.8 325.783 60.144 325.023 60.144ZM325.023 59.352C325.471 59.352 325.831 59.1 326.103 58.596C326.375 58.084 326.511 57.268 326.511 56.148C326.511 55.028 326.375 54.224 326.103 53.736C325.831 53.24 325.471 52.992 325.023 52.992C324.575 52.992 324.211 53.24 323.931 53.736C323.659 54.224 323.523 55.028 323.523 56.148C323.523 57.268 323.659 58.084 323.931 58.596C324.211 59.1 324.575 59.352 325.023 59.352ZM282.015 76V67.456H282.999V69.784L282.963 70.984C283.243 70.72 283.535 70.496 283.839 70.312C284.151 70.12 284.507 70.024 284.907 70.024C285.523 70.024 285.971 70.22 286.251 70.612C286.539 70.996 286.683 71.56 286.683 72.304V76H285.699V72.436C285.699 71.892 285.611 71.496 285.435 71.248C285.259 71 284.979 70.876 284.595 70.876C284.299 70.876 284.031 70.952 283.791 71.104C283.559 71.256 283.295 71.48 282.999 71.776V76H282.015ZM290.379 76.144C289.755 76.144 289.319 75.964 289.071 75.604C288.831 75.244 288.711 74.776 288.711 74.2V70.972H287.847V70.228L288.759 70.168L288.879 68.536H289.707V70.168H291.279V70.972H289.707V74.212C289.707 74.572 289.771 74.852 289.899 75.052C290.035 75.244 290.271 75.34 290.607 75.34C290.711 75.34 290.823 75.324 290.943 75.292C291.063 75.252 291.171 75.216 291.267 75.184L291.459 75.928C291.299 75.984 291.123 76.032 290.931 76.072C290.747 76.12 290.563 76.144 290.379 76.144ZM294.199 76.144C293.575 76.144 293.139 75.964 292.891 75.604C292.651 75.244 292.531 74.776 292.531 74.2V70.972H291.667V70.228L292.579 70.168L292.699 68.536H293.527V70.168H295.099V70.972H293.527V74.212C293.527 74.572 293.591 74.852 293.719 75.052C293.855 75.244 294.091 75.34 294.427 75.34C294.531 75.34 294.643 75.324 294.763 75.292C294.883 75.252 294.991 75.216 295.087 75.184L295.279 75.928C295.119 75.984 294.943 76.032 294.751 76.072C294.567 76.12 294.383 76.144 294.199 76.144ZM296.418 78.46V70.168H297.234L297.318 70.84H297.354C297.618 70.616 297.906 70.424 298.218 70.264C298.538 70.104 298.87 70.024 299.214 70.024C299.966 70.024 300.538 70.296 300.93 70.84C301.322 71.376 301.518 72.096 301.518 73C301.518 73.656 301.398 74.22 301.158 74.692C300.926 75.164 300.618 75.524 300.234 75.772C299.858 76.02 299.446 76.144 298.998 76.144C298.726 76.144 298.454 76.084 298.182 75.964C297.918 75.844 297.65 75.68 297.378 75.472L297.402 76.492V78.46H296.418ZM298.83 75.316C299.31 75.316 299.706 75.112 300.018 74.704C300.338 74.288 300.498 73.72 300.498 73C300.498 72.36 300.378 71.844 300.138 71.452C299.906 71.052 299.514 70.852 298.962 70.852C298.714 70.852 298.462 70.92 298.206 71.056C297.958 71.192 297.69 71.388 297.402 71.644V74.704C297.666 74.928 297.922 75.088 298.17 75.184C298.418 75.272 298.638 75.316 298.83 75.316ZM304.598 76.144C304.182 76.144 303.786 76.068 303.41 75.916C303.034 75.756 302.706 75.564 302.426 75.34L302.918 74.68C303.174 74.88 303.438 75.048 303.71 75.184C303.982 75.312 304.29 75.376 304.634 75.376C305.018 75.376 305.306 75.288 305.498 75.112C305.69 74.928 305.786 74.712 305.786 74.464C305.786 74.264 305.718 74.096 305.582 73.96C305.454 73.824 305.286 73.712 305.078 73.624C304.878 73.528 304.67 73.44 304.454 73.36C304.182 73.256 303.914 73.14 303.65 73.012C303.386 72.876 303.17 72.704 303.002 72.496C302.834 72.28 302.75 72.008 302.75 71.68C302.75 71.208 302.926 70.816 303.278 70.504C303.638 70.184 304.134 70.024 304.766 70.024C305.126 70.024 305.462 70.088 305.774 70.216C306.086 70.344 306.354 70.5 306.578 70.684L306.098 71.308C305.898 71.156 305.69 71.032 305.474 70.936C305.258 70.84 305.022 70.792 304.766 70.792C304.398 70.792 304.126 70.876 303.95 71.044C303.782 71.212 303.698 71.408 303.698 71.632C303.698 71.816 303.758 71.968 303.878 72.088C303.998 72.2 304.154 72.3 304.346 72.388C304.538 72.468 304.742 72.552 304.958 72.64C305.238 72.744 305.514 72.864 305.786 73C306.058 73.128 306.282 73.304 306.458 73.528C306.642 73.744 306.734 74.036 306.734 74.404C306.734 74.716 306.65 75.004 306.482 75.268C306.322 75.532 306.082 75.744 305.762 75.904C305.45 76.064 305.062 76.144 304.598 76.144ZM308.617 71.812C308.417 71.812 308.245 71.744 308.101 71.608C307.965 71.464 307.897 71.284 307.897 71.068C307.897 70.836 307.965 70.652 308.101 70.516C308.245 70.372 308.417 70.3 308.617 70.3C308.809 70.3 308.973 70.372 309.109 70.516C309.253 70.652 309.325 70.836 309.325 71.068C309.325 71.284 309.253 71.464 309.109 71.608C308.973 71.744 308.809 71.812 308.617 71.812ZM308.617 76.144C308.417 76.144 308.245 76.076 308.101 75.94C307.965 75.796 307.897 75.616 307.897 75.4C307.897 75.168 307.965 74.984 308.101 74.848C308.245 74.704 308.417 74.632 308.617 74.632C308.809 74.632 308.973 74.704 309.109 74.848C309.253 74.984 309.325 75.168 309.325 75.4C309.325 75.616 309.253 75.796 309.109 75.94C308.973 76.076 308.809 76.144 308.617 76.144ZM311.353 73.096H313.753V70.876C313.753 70.668 313.761 70.42 313.777 70.132C313.793 69.844 313.805 69.6 313.813 69.4H313.765C313.669 69.584 313.569 69.764 313.465 69.94C313.361 70.116 313.253 70.296 313.141 70.48L311.353 73.096ZM313.753 76V73.888H310.309V73.24L313.585 68.344H314.689V73.096H315.733V73.888H314.689V76H313.753ZM317.318 73.096H319.718V70.876C319.718 70.668 319.726 70.42 319.742 70.132C319.758 69.844 319.77 69.6 319.778 69.4H319.73C319.634 69.584 319.534 69.764 319.43 69.94C319.326 70.116 319.218 70.296 319.106 70.48L317.318 73.096ZM319.718 76V73.888H316.274V73.24L319.55 68.344H320.654V73.096H321.698V73.888H320.654V76H319.718ZM324.867 76.144C324.259 76.144 323.751 76.036 323.343 75.82C322.935 75.596 322.603 75.344 322.347 75.064L322.851 74.416C323.083 74.656 323.355 74.868 323.667 75.052C323.979 75.236 324.359 75.328 324.807 75.328C325.271 75.328 325.651 75.2 325.947 74.944C326.243 74.688 326.391 74.348 326.391 73.924C326.391 73.62 326.311 73.356 326.151 73.132C325.999 72.9 325.743 72.72 325.383 72.592C325.031 72.464 324.551 72.4 323.943 72.4V71.644C324.487 71.644 324.915 71.58 325.227 71.452C325.547 71.324 325.775 71.152 325.911 70.936C326.047 70.72 326.115 70.48 326.115 70.216C326.115 69.84 325.995 69.544 325.755 69.328C325.523 69.112 325.203 69.004 324.795 69.004C324.475 69.004 324.179 69.076 323.907 69.22C323.643 69.364 323.395 69.552 323.163 69.784L322.635 69.16C322.931 68.88 323.259 68.652 323.619 68.476C323.979 68.292 324.383 68.2 324.831 68.2C325.495 68.2 326.043 68.372 326.475 68.716C326.907 69.052 327.123 69.528 327.123 70.144C327.123 70.608 326.995 70.988 326.739 71.284C326.483 71.58 326.147 71.808 325.731 71.968V72.016C326.195 72.12 326.587 72.34 326.907 72.676C327.227 73.004 327.387 73.432 327.387 73.96C327.387 74.408 327.275 74.796 327.051 75.124C326.827 75.452 326.523 75.704 326.139 75.88C325.763 76.056 325.339 76.144 324.867 76.144Z" fill="black"/>
<path d="M205 92H323" stroke="#F7931E" stroke-width="2"/>
<path d="M328 91.9995C328 91.9995 318 97 318 97L319.999 91.9995L318 87C318 87 328 91.9995 328 91.9995Z" fill="#F7931E"/>
<path d="M200 92.0005C200 92.0005 210 87 210 87L208.001 92.0005L210 97C210 97 200 92.0005 200 92.0005Z" fill="#F7931E"/>
<path d="M632 103.999C632 103.999 622 109 622 109L623.999 103.999L622 99C622 99 632 103.999 632 103.999Z" fill="#F7931E"/>
<path d="M200 132.001C200 132.001 210 127 210 127L208.001 132.001L210 137C210 137 200 132.001 200 132.001Z" fill="#F7931E"/>
<path d="M208 132C298 132 307.5 159 416 159C539.5 159 557 104 624 104" stroke="#F7931E" stroke-width="2"/>
</svg>
