<svg width="832" height="208" viewBox="0 0 832 208" fill="none" xmlns="http://www.w3.org/2000/svg">
<path d="M205 124H627" stroke="#F7931E" stroke-width="2"/>
<path d="M632 123.999C632 123.999 622 129 622 129L623.999 123.999L622 119C622 119 632 123.999 632 123.999Z" fill="#F7931E"/>
<path d="M200 124.001C200 124.001 210 119 210 119L208.001 124.001L210 129C210 129 200 124.001 200 124.001Z" fill="#F7931E"/>
<rect x="336" y="40" width="160" height="128" rx="3" fill="#ECEDF2"/>
<path d="M366.898 91V77.92H371.078C371.985 77.92 372.785 78.02 373.478 78.22C374.185 78.42 374.738 78.76 375.138 79.24C375.552 79.7067 375.758 80.34 375.758 81.14C375.758 81.7533 375.598 82.3333 375.278 82.88C374.958 83.4133 374.512 83.78 373.938 83.98V84.06C374.658 84.22 375.252 84.56 375.718 85.08C376.198 85.5867 376.438 86.28 376.438 87.16C376.438 88.0267 376.218 88.7467 375.778 89.32C375.352 89.8933 374.758 90.32 373.998 90.6C373.238 90.8667 372.378 91 371.418 91H366.898ZM369.218 83.32H370.878C371.785 83.32 372.445 83.1533 372.858 82.82C373.272 82.4867 373.478 82.04 373.478 81.48C373.478 80.84 373.265 80.3867 372.838 80.12C372.412 79.8533 371.772 79.72 370.918 79.72H369.218V83.32ZM369.218 89.2H371.178C372.138 89.2 372.878 89.0267 373.398 88.68C373.918 88.32 374.178 87.7733 374.178 87.04C374.178 86.3467 373.925 85.8467 373.418 85.54C372.912 85.22 372.165 85.06 371.178 85.06H369.218V89.2ZM382.832 91.24C381.925 91.24 381.105 91.04 380.372 90.64C379.639 90.2267 379.059 89.64 378.632 88.88C378.205 88.1067 377.992 87.18 377.992 86.1C377.992 85.0333 378.205 84.1133 378.632 83.34C379.072 82.5667 379.639 81.9733 380.332 81.56C381.025 81.1467 381.752 80.94 382.512 80.94C383.405 80.94 384.152 81.14 384.752 81.54C385.352 81.9267 385.805 82.4733 386.112 83.18C386.419 83.8733 386.572 84.68 386.572 85.6C386.572 86.08 386.539 86.4533 386.472 86.72H380.232C380.339 87.5867 380.652 88.26 381.172 88.74C381.692 89.22 382.345 89.46 383.132 89.46C383.559 89.46 383.952 89.4 384.312 89.28C384.685 89.1467 385.052 88.9667 385.412 88.74L386.192 90.18C385.725 90.4867 385.205 90.74 384.632 90.94C384.059 91.14 383.459 91.24 382.832 91.24ZM380.212 85.16H384.572C384.572 84.4 384.405 83.8067 384.072 83.38C383.739 82.94 383.239 82.72 382.572 82.72C381.999 82.72 381.485 82.9333 381.032 83.36C380.592 83.7733 380.319 84.3733 380.212 85.16ZM390.469 85.46C390.469 86.7267 390.682 87.6933 391.109 88.36C391.549 89.0267 392.175 89.36 392.989 89.36C393.629 89.36 394.142 89.0733 394.529 88.5C394.915 87.9133 395.109 87.14 395.109 86.18C395.109 85.2333 394.922 84.5267 394.549 84.06C394.175 83.58 393.649 83.34 392.969 83.34C392.555 83.34 392.129 83.4467 391.689 83.66C391.262 83.8733 390.855 84.2533 390.469 84.8C390.469 84.9067 390.469 85.02 390.469 85.14C390.469 85.2467 390.469 85.3533 390.469 85.46ZM393.009 91.24C391.502 91.24 390.335 90.6933 389.509 89.6C388.682 88.4933 388.269 86.9467 388.269 84.96C388.269 83.3867 388.415 82.1067 388.709 81.12C389.002 80.1333 389.422 79.3667 389.969 78.82C390.515 78.26 391.162 77.8467 391.909 77.58C392.669 77.3 393.509 77.0933 394.429 76.96C395.015 76.88 395.455 76.8 395.749 76.72C396.042 76.64 396.335 76.5333 396.629 76.4L397.089 78.44C396.835 78.6133 396.515 78.7533 396.129 78.86C395.742 78.9667 395.335 79.0533 394.909 79.12C394.175 79.2267 393.542 79.34 393.009 79.46C392.489 79.5667 392.062 79.7467 391.729 80C391.395 80.24 391.135 80.6 390.949 81.08C390.762 81.5467 390.629 82.1933 390.549 83.02C390.935 82.5533 391.395 82.2 391.929 81.96C392.475 81.72 393.035 81.6 393.609 81.6C394.342 81.6 394.995 81.78 395.569 82.14C396.155 82.4867 396.615 83 396.949 83.68C397.295 84.36 397.469 85.1933 397.469 86.18C397.469 87.1933 397.269 88.08 396.869 88.84C396.482 89.6 395.949 90.1933 395.269 90.62C394.602 91.0333 393.849 91.24 393.009 91.24ZM399.203 86.8V85.12H403.963V86.8H399.203ZM410.369 91.24C409.475 91.24 408.669 91.04 407.949 90.64C407.242 90.2267 406.675 89.64 406.249 88.88C405.835 88.1067 405.629 87.18 405.629 86.1C405.629 85.0067 405.855 84.08 406.309 83.32C406.762 82.5467 407.362 81.96 408.109 81.56C408.869 81.1467 409.682 80.94 410.549 80.94C411.175 80.94 411.722 81.0467 412.189 81.26C412.655 81.4733 413.069 81.7333 413.429 82.04L412.309 83.54C412.055 83.3133 411.795 83.14 411.529 83.02C411.262 82.8867 410.975 82.82 410.669 82.82C409.882 82.82 409.235 83.12 408.729 83.72C408.235 84.32 407.989 85.1133 407.989 86.1C407.989 87.0733 408.229 87.86 408.709 88.46C409.202 89.06 409.835 89.36 410.609 89.36C410.995 89.36 411.355 89.28 411.689 89.12C412.035 88.9467 412.349 88.7467 412.629 88.52L413.569 90.04C413.115 90.44 412.609 90.74 412.049 90.94C411.489 91.14 410.929 91.24 410.369 91.24ZM419.219 91.24C418.312 91.24 417.492 91.04 416.759 90.64C416.025 90.2267 415.445 89.64 415.019 88.88C414.592 88.1067 414.379 87.18 414.379 86.1C414.379 85.0333 414.592 84.1133 415.019 83.34C415.459 82.5667 416.025 81.9733 416.719 81.56C417.412 81.1467 418.139 80.94 418.899 80.94C419.792 80.94 420.539 81.14 421.139 81.54C421.739 81.9267 422.192 82.4733 422.499 83.18C422.805 83.8733 422.959 84.68 422.959 85.6C422.959 86.08 422.925 86.4533 422.859 86.72H416.619C416.725 87.5867 417.039 88.26 417.559 88.74C418.079 89.22 418.732 89.46 419.519 89.46C419.945 89.46 420.339 89.4 420.699 89.28C421.072 89.1467 421.439 88.9667 421.799 88.74L422.579 90.18C422.112 90.4867 421.592 90.74 421.019 90.94C420.445 91.14 419.845 91.24 419.219 91.24ZM416.599 85.16H420.959C420.959 84.4 420.792 83.8067 420.459 83.38C420.125 82.94 419.625 82.72 418.959 82.72C418.385 82.72 417.872 82.9333 417.419 83.36C416.979 83.7733 416.705 84.3733 416.599 85.16ZM425.155 94.88V81.18H427.055L427.215 82.22H427.295C427.709 81.8733 428.169 81.5733 428.675 81.32C429.195 81.0667 429.722 80.94 430.255 80.94C431.482 80.94 432.429 81.3933 433.095 82.3C433.775 83.2067 434.115 84.42 434.115 85.94C434.115 87.06 433.915 88.02 433.515 88.82C433.115 89.6067 432.595 90.2067 431.955 90.62C431.329 91.0333 430.649 91.24 429.915 91.24C429.489 91.24 429.062 91.1467 428.635 90.96C428.209 90.76 427.795 90.4933 427.395 90.16L427.455 91.8V94.88H425.155ZM429.435 89.34C430.089 89.34 430.635 89.0533 431.075 88.48C431.515 87.9067 431.735 87.0667 431.735 85.96C431.735 84.9733 431.569 84.2067 431.235 83.66C430.902 83.1133 430.362 82.84 429.615 82.84C428.922 82.84 428.202 83.2067 427.455 83.94V88.52C427.815 88.8133 428.162 89.0267 428.495 89.16C428.829 89.28 429.142 89.34 429.435 89.34ZM436.444 91V81.18H440.424C441.158 81.18 441.804 81.26 442.364 81.42C442.938 81.58 443.391 81.8467 443.724 82.22C444.058 82.5933 444.224 83.0933 444.224 83.72C444.224 84.2 444.084 84.6267 443.804 85C443.538 85.36 443.131 85.62 442.584 85.78V85.86C443.171 85.9933 443.658 86.2467 444.044 86.62C444.431 86.98 444.624 87.5 444.624 88.18C444.624 88.8333 444.444 89.3733 444.084 89.8C443.738 90.2133 443.264 90.52 442.664 90.72C442.064 90.9067 441.384 91 440.624 91H436.444ZM438.704 85.16H440.204C440.844 85.16 441.304 85.0533 441.584 84.84C441.864 84.6267 442.004 84.3333 442.004 83.96C442.004 83.5733 441.871 83.2733 441.604 83.06C441.338 82.8467 440.891 82.74 440.264 82.74H438.704V85.16ZM438.704 89.44H440.464C441.131 89.44 441.611 89.3133 441.904 89.06C442.211 88.8067 442.364 88.4667 442.364 88.04C442.364 87.64 442.198 87.32 441.864 87.08C441.544 86.84 441.051 86.72 440.384 86.72H438.704V89.44ZM450.996 91.24C450.089 91.24 449.269 91.04 448.536 90.64C447.803 90.2267 447.223 89.64 446.796 88.88C446.369 88.1067 446.156 87.18 446.156 86.1C446.156 85.0333 446.369 84.1133 446.796 83.34C447.236 82.5667 447.803 81.9733 448.496 81.56C449.189 81.1467 449.916 80.94 450.676 80.94C451.569 80.94 452.316 81.14 452.916 81.54C453.516 81.9267 453.969 82.4733 454.276 83.18C454.583 83.8733 454.736 84.68 454.736 85.6C454.736 86.08 454.703 86.4533 454.636 86.72H448.396C448.503 87.5867 448.816 88.26 449.336 88.74C449.856 89.22 450.509 89.46 451.296 89.46C451.723 89.46 452.116 89.4 452.476 89.28C452.849 89.1467 453.216 88.9667 453.576 88.74L454.356 90.18C453.889 90.4867 453.369 90.74 452.796 90.94C452.223 91.14 451.623 91.24 450.996 91.24ZM448.376 85.16H452.736C452.736 84.4 452.569 83.8067 452.236 83.38C451.903 82.94 451.403 82.72 450.736 82.72C450.163 82.72 449.649 82.9333 449.196 83.36C448.756 83.7733 448.483 84.3733 448.376 85.16ZM456.933 94.88V81.18H458.833L458.993 82.22H459.073C459.486 81.8733 459.946 81.5733 460.453 81.32C460.973 81.0667 461.499 80.94 462.033 80.94C463.259 80.94 464.206 81.3933 464.873 82.3C465.553 83.2067 465.893 84.42 465.893 85.94C465.893 87.06 465.693 88.02 465.293 88.82C464.893 89.6067 464.373 90.2067 463.733 90.62C463.106 91.0333 462.426 91.24 461.693 91.24C461.266 91.24 460.839 91.1467 460.413 90.96C459.986 90.76 459.573 90.4933 459.173 90.16L459.233 91.8V94.88H456.933ZM461.213 89.34C461.866 89.34 462.413 89.0533 462.853 88.48C463.293 87.9067 463.513 87.0667 463.513 85.96C463.513 84.9733 463.346 84.2067 463.013 83.66C462.679 83.1133 462.139 82.84 461.393 82.84C460.699 82.84 459.979 83.2067 459.233 83.94V88.52C459.593 88.8133 459.939 89.0267 460.273 89.16C460.606 89.28 460.919 89.34 461.213 89.34Z" fill="#333333"/>
<rect x="640" y="40" width="192" height="128" rx="3" fill="#ECEDF2"/>
<path d="M670.357 111V97.92H672.677V109.04H678.117V111H670.357ZM683.962 111.24C683.149 111.24 682.389 111.04 681.682 110.64C680.976 110.227 680.402 109.64 679.962 108.88C679.522 108.107 679.302 107.18 679.302 106.1C679.302 105.007 679.522 104.08 679.962 103.32C680.402 102.547 680.976 101.96 681.682 101.56C682.389 101.147 683.149 100.94 683.962 100.94C684.789 100.94 685.556 101.147 686.262 101.56C686.969 101.96 687.542 102.547 687.982 103.32C688.422 104.08 688.642 105.007 688.642 106.1C688.642 107.18 688.422 108.107 687.982 108.88C687.542 109.64 686.969 110.227 686.262 110.64C685.556 111.04 684.789 111.24 683.962 111.24ZM683.962 109.36C684.682 109.36 685.249 109.06 685.662 108.46C686.076 107.86 686.282 107.073 686.282 106.1C686.282 105.113 686.076 104.32 685.662 103.72C685.249 103.12 684.682 102.82 683.962 102.82C683.242 102.82 682.676 103.12 682.262 103.72C681.862 104.32 681.662 105.113 681.662 106.1C681.662 107.073 681.862 107.86 682.262 108.46C682.676 109.06 683.242 109.36 683.962 109.36ZM694.339 115.34C693.566 115.34 692.866 115.247 692.239 115.06C691.626 114.873 691.139 114.587 690.779 114.2C690.432 113.827 690.259 113.353 690.259 112.78C690.259 111.967 690.726 111.267 691.659 110.68V110.6C691.406 110.44 691.192 110.227 691.019 109.96C690.859 109.693 690.779 109.36 690.779 108.96C690.779 108.573 690.886 108.227 691.099 107.92C691.326 107.6 691.579 107.34 691.859 107.14V107.06C691.526 106.807 691.226 106.453 690.959 106C690.706 105.547 690.579 105.033 690.579 104.46C690.579 103.7 690.759 103.06 691.119 102.54C691.479 102.02 691.952 101.627 692.539 101.36C693.139 101.08 693.779 100.94 694.459 100.94C694.726 100.94 694.979 100.967 695.219 101.02C695.472 101.06 695.699 101.113 695.899 101.18H699.419V102.88H697.619C697.779 103.067 697.912 103.307 698.019 103.6C698.126 103.88 698.179 104.193 698.179 104.54C698.179 105.26 698.012 105.873 697.679 106.38C697.346 106.873 696.899 107.247 696.339 107.5C695.779 107.753 695.152 107.88 694.459 107.88C694.246 107.88 694.026 107.86 693.799 107.82C693.572 107.78 693.346 107.713 693.119 107.62C692.972 107.753 692.852 107.887 692.759 108.02C692.679 108.153 692.639 108.333 692.639 108.56C692.639 108.84 692.752 109.06 692.979 109.22C693.219 109.38 693.639 109.46 694.239 109.46H695.979C697.166 109.46 698.059 109.653 698.659 110.04C699.272 110.413 699.579 111.027 699.579 111.88C699.579 112.52 699.366 113.1 698.939 113.62C698.512 114.153 697.906 114.573 697.119 114.88C696.332 115.187 695.406 115.34 694.339 115.34ZM694.459 106.44C694.926 106.44 695.326 106.267 695.659 105.92C695.992 105.573 696.159 105.087 696.159 104.46C696.159 103.847 695.992 103.373 695.659 103.04C695.339 102.693 694.939 102.52 694.459 102.52C693.979 102.52 693.572 102.687 693.239 103.02C692.906 103.353 692.739 103.833 692.739 104.46C692.739 105.087 692.906 105.573 693.239 105.92C693.572 106.267 693.979 106.44 694.459 106.44ZM694.699 113.84C695.486 113.84 696.126 113.68 696.619 113.36C697.112 113.04 697.359 112.673 697.359 112.26C697.359 111.873 697.206 111.613 696.899 111.48C696.606 111.347 696.179 111.28 695.619 111.28H694.279C693.746 111.28 693.299 111.233 692.939 111.14C692.432 111.527 692.179 111.96 692.179 112.44C692.179 112.88 692.406 113.22 692.859 113.46C693.312 113.713 693.926 113.84 694.699 113.84ZM701.31 111V101.18H703.61V111H701.31ZM702.47 99.46C702.056 99.46 701.723 99.34 701.47 99.1C701.216 98.86 701.09 98.54 701.09 98.14C701.09 97.7533 701.216 97.44 701.47 97.2C701.723 96.96 702.056 96.84 702.47 96.84C702.883 96.84 703.216 96.96 703.47 97.2C703.723 97.44 703.85 97.7533 703.85 98.14C703.85 98.54 703.723 98.86 703.47 99.1C703.216 99.34 702.883 99.46 702.47 99.46ZM706.544 111V101.18H708.444L708.604 102.5H708.684C709.124 102.073 709.604 101.707 710.124 101.4C710.644 101.093 711.237 100.94 711.904 100.94C712.957 100.94 713.724 101.28 714.204 101.96C714.684 102.64 714.924 103.6 714.924 104.84V111H712.624V105.14C712.624 104.327 712.504 103.753 712.264 103.42C712.024 103.087 711.631 102.92 711.084 102.92C710.657 102.92 710.277 103.027 709.944 103.24C709.624 103.44 709.257 103.74 708.844 104.14V111H706.544ZM721.755 111.24C720.942 111.24 720.182 111.04 719.475 110.64C718.769 110.227 718.195 109.64 717.755 108.88C717.315 108.107 717.095 107.18 717.095 106.1C717.095 105.007 717.315 104.08 717.755 103.32C718.195 102.547 718.769 101.96 719.475 101.56C720.182 101.147 720.942 100.94 721.755 100.94C722.582 100.94 723.349 101.147 724.055 101.56C724.762 101.96 725.335 102.547 725.775 103.32C726.215 104.08 726.435 105.007 726.435 106.1C726.435 107.18 726.215 108.107 725.775 108.88C725.335 109.64 724.762 110.227 724.055 110.64C723.349 111.04 722.582 111.24 721.755 111.24ZM721.755 109.36C722.475 109.36 723.042 109.06 723.455 108.46C723.869 107.86 724.075 107.073 724.075 106.1C724.075 105.113 723.869 104.32 723.455 103.72C723.042 103.12 722.475 102.82 721.755 102.82C721.035 102.82 720.469 103.12 720.055 103.72C719.655 104.32 719.455 105.113 719.455 106.1C719.455 107.073 719.655 107.86 720.055 108.46C720.469 109.06 721.035 109.36 721.755 109.36ZM728.712 111V101.18H730.612L730.772 102.52H730.852C731.265 102.08 731.712 101.707 732.192 101.4C732.685 101.093 733.239 100.94 733.852 100.94C734.572 100.94 735.145 101.1 735.572 101.42C736.012 101.727 736.345 102.153 736.572 102.7C737.039 102.193 737.525 101.773 738.032 101.44C738.552 101.107 739.119 100.94 739.732 100.94C740.772 100.94 741.539 101.28 742.032 101.96C742.525 102.64 742.772 103.6 742.772 104.84V111H740.452V105.14C740.452 104.327 740.325 103.753 740.072 103.42C739.832 103.087 739.459 102.92 738.952 102.92C738.339 102.92 737.652 103.327 736.892 104.14V111H734.592V105.14C734.592 104.327 734.465 103.753 734.212 103.42C733.972 103.087 733.592 102.92 733.072 102.92C732.459 102.92 731.772 103.327 731.012 104.14V111H728.712ZM753.591 111.24C752.711 111.24 751.858 111.073 751.031 110.74C750.218 110.407 749.498 109.933 748.871 109.32L750.231 107.74C750.698 108.18 751.231 108.54 751.831 108.82C752.431 109.087 753.031 109.22 753.631 109.22C754.378 109.22 754.945 109.067 755.331 108.76C755.718 108.453 755.911 108.047 755.911 107.54C755.911 106.993 755.718 106.6 755.331 106.36C754.958 106.12 754.478 105.873 753.891 105.62L752.091 104.84C751.665 104.653 751.245 104.413 750.831 104.12C750.431 103.827 750.098 103.453 749.831 103C749.578 102.547 749.451 102 749.451 101.36C749.451 100.667 749.638 100.047 750.011 99.5C750.398 98.94 750.918 98.5 751.571 98.18C752.238 97.8467 752.998 97.68 753.851 97.68C754.611 97.68 755.345 97.8333 756.051 98.14C756.758 98.4333 757.365 98.8333 757.871 99.34L756.691 100.82C756.278 100.473 755.838 100.2 755.371 100C754.918 99.8 754.411 99.7 753.851 99.7C753.238 99.7 752.738 99.84 752.351 100.12C751.978 100.387 751.791 100.76 751.791 101.24C751.791 101.573 751.885 101.853 752.071 102.08C752.271 102.293 752.531 102.48 752.851 102.64C753.171 102.787 753.511 102.933 753.871 103.08L755.651 103.82C756.425 104.153 757.058 104.593 757.551 105.14C758.045 105.673 758.291 106.413 758.291 107.36C758.291 108.067 758.105 108.713 757.731 109.3C757.358 109.887 756.818 110.36 756.111 110.72C755.418 111.067 754.578 111.24 753.591 111.24ZM764.67 111.24C763.763 111.24 762.943 111.04 762.21 110.64C761.476 110.227 760.896 109.64 760.47 108.88C760.043 108.107 759.83 107.18 759.83 106.1C759.83 105.033 760.043 104.113 760.47 103.34C760.91 102.567 761.476 101.973 762.17 101.56C762.863 101.147 763.59 100.94 764.35 100.94C765.243 100.94 765.99 101.14 766.59 101.54C767.19 101.927 767.643 102.473 767.95 103.18C768.256 103.873 768.41 104.68 768.41 105.6C768.41 106.08 768.376 106.453 768.31 106.72H762.07C762.176 107.587 762.49 108.26 763.01 108.74C763.53 109.22 764.183 109.46 764.97 109.46C765.396 109.46 765.79 109.4 766.15 109.28C766.523 109.147 766.89 108.967 767.25 108.74L768.03 110.18C767.563 110.487 767.043 110.74 766.47 110.94C765.896 111.14 765.296 111.24 764.67 111.24ZM762.05 105.16H766.41C766.41 104.4 766.243 103.807 765.91 103.38C765.576 102.94 765.076 102.72 764.41 102.72C763.836 102.72 763.323 102.933 762.87 103.36C762.43 103.773 762.156 104.373 762.05 105.16ZM770.606 111V101.18H772.506L772.666 102.92H772.746C773.093 102.28 773.513 101.793 774.006 101.46C774.5 101.113 775.006 100.94 775.526 100.94C775.993 100.94 776.366 101.007 776.646 101.14L776.246 103.14C776.073 103.087 775.913 103.047 775.766 103.02C775.62 102.993 775.44 102.98 775.226 102.98C774.84 102.98 774.433 103.133 774.006 103.44C773.58 103.733 773.213 104.253 772.906 105V111H770.606ZM780.58 111L777.16 101.18H779.5L781.06 106.28C781.193 106.76 781.327 107.247 781.46 107.74C781.607 108.233 781.747 108.733 781.88 109.24H781.96C782.107 108.733 782.247 108.233 782.38 107.74C782.527 107.247 782.667 106.76 782.8 106.28L784.36 101.18H786.58L783.24 111H780.58ZM792.365 111.24C791.458 111.24 790.638 111.04 789.905 110.64C789.172 110.227 788.592 109.64 788.165 108.88C787.738 108.107 787.525 107.18 787.525 106.1C787.525 105.033 787.738 104.113 788.165 103.34C788.605 102.567 789.172 101.973 789.865 101.56C790.558 101.147 791.285 100.94 792.045 100.94C792.938 100.94 793.685 101.14 794.285 101.54C794.885 101.927 795.338 102.473 795.645 103.18C795.952 103.873 796.105 104.68 796.105 105.6C796.105 106.08 796.072 106.453 796.005 106.72H789.765C789.872 107.587 790.185 108.26 790.705 108.74C791.225 109.22 791.878 109.46 792.665 109.46C793.092 109.46 793.485 109.4 793.845 109.28C794.218 109.147 794.585 108.967 794.945 108.74L795.725 110.18C795.258 110.487 794.738 110.74 794.165 110.94C793.592 111.14 792.992 111.24 792.365 111.24ZM789.745 105.16H794.105C794.105 104.4 793.938 103.807 793.605 103.38C793.272 102.94 792.772 102.72 792.105 102.72C791.532 102.72 791.018 102.933 790.565 103.36C790.125 103.773 789.852 104.373 789.745 105.16ZM798.302 111V101.18H800.202L800.362 102.92H800.442C800.788 102.28 801.208 101.793 801.702 101.46C802.195 101.113 802.702 100.94 803.222 100.94C803.688 100.94 804.062 101.007 804.342 101.14L803.942 103.14C803.768 103.087 803.608 103.047 803.462 103.02C803.315 102.993 803.135 102.98 802.922 102.98C802.535 102.98 802.128 103.133 801.702 103.44C801.275 103.733 800.908 104.253 800.602 105V111H798.302Z" fill="#333333"/>
<rect y="40" width="192" height="128" rx="6" fill="#ECEDF2"/>
<rect x="4" y="52" width="184" height="112" rx="2" fill="white"/>
<path d="M60.9118 111.2V98.12H69.4318V100.08H63.2318V103.42H65.3718C66.3052 103.42 67.1385 103.54 67.8718 103.78C68.6185 104.02 69.2052 104.413 69.6318 104.96C70.0718 105.493 70.2918 106.22 70.2918 107.14C70.2918 108.087 70.0852 108.86 69.6718 109.46C69.2585 110.06 68.6852 110.5 67.9518 110.78C67.2318 111.06 66.3985 111.2 65.4518 111.2H60.9118ZM63.2318 109.4H65.1718C67.0652 109.4 68.0118 108.66 68.0118 107.18C68.0118 106.447 67.7652 105.927 67.2718 105.62C66.7918 105.313 66.0785 105.16 65.1318 105.16H63.2318V109.4ZM72.5087 115.08V101.38H74.4087L74.5687 102.42H74.6487C75.0621 102.073 75.5221 101.773 76.0287 101.52C76.5487 101.267 77.0754 101.14 77.6087 101.14C78.8354 101.14 79.7821 101.593 80.4487 102.5C81.1287 103.407 81.4687 104.62 81.4687 106.14C81.4687 107.26 81.2687 108.22 80.8687 109.02C80.4687 109.807 79.9487 110.407 79.3087 110.82C78.6821 111.233 78.0021 111.44 77.2687 111.44C76.8421 111.44 76.4154 111.347 75.9887 111.16C75.5621 110.96 75.1487 110.693 74.7487 110.36L74.8087 112V115.08H72.5087ZM76.7887 109.54C77.4421 109.54 77.9887 109.253 78.4287 108.68C78.8687 108.107 79.0887 107.267 79.0887 106.16C79.0887 105.173 78.9221 104.407 78.5887 103.86C78.2554 103.313 77.7154 103.04 76.9687 103.04C76.2754 103.04 75.5554 103.407 74.8087 104.14V108.72C75.1687 109.013 75.5154 109.227 75.8487 109.36C76.1821 109.48 76.4954 109.54 76.7887 109.54ZM85.9434 111.44C85.0901 111.44 84.3901 111.173 83.8434 110.64C83.3101 110.107 83.0434 109.413 83.0434 108.56C83.0434 107.507 83.5034 106.693 84.4234 106.12C85.3434 105.533 86.8101 105.133 88.8234 104.92C88.8101 104.4 88.6701 103.953 88.4034 103.58C88.1501 103.193 87.6901 103 87.0234 103C86.5434 103 86.0701 103.093 85.6034 103.28C85.1501 103.467 84.7034 103.693 84.2634 103.96L83.4234 102.42C83.9701 102.073 84.5834 101.773 85.2634 101.52C85.9567 101.267 86.6901 101.14 87.4634 101.14C88.6901 101.14 89.6034 101.507 90.2034 102.24C90.8167 102.96 91.1234 104.007 91.1234 105.38V111.2H89.2234L89.0634 110.12H88.9834C88.5434 110.493 88.0701 110.807 87.5634 111.06C87.0701 111.313 86.5301 111.44 85.9434 111.44ZM86.6834 109.64C87.0834 109.64 87.4434 109.547 87.7634 109.36C88.0967 109.16 88.4501 108.893 88.8234 108.56V106.36C87.4901 106.533 86.5634 106.793 86.0434 107.14C85.5234 107.473 85.2634 107.887 85.2634 108.38C85.2634 108.82 85.3967 109.14 85.6634 109.34C85.9301 109.54 86.2701 109.64 86.6834 109.64ZM94.5359 115.24C94.2692 115.24 94.0359 115.22 93.8359 115.18C93.6359 115.14 93.4426 115.093 93.2559 115.04L93.6759 113.24C93.7692 113.267 93.8759 113.293 93.9959 113.32C94.1292 113.36 94.2559 113.38 94.3759 113.38C94.8959 113.38 95.3092 113.22 95.6159 112.9C95.9359 112.593 96.1759 112.193 96.3359 111.7L96.5159 111.08L92.6559 101.38H94.9959L96.6959 106.2C96.8426 106.627 96.9826 107.08 97.1159 107.56C97.2626 108.027 97.4092 108.493 97.5559 108.96H97.6359C97.7559 108.507 97.8759 108.047 97.9959 107.58C98.1292 107.1 98.2559 106.64 98.3759 106.2L99.8559 101.38H102.076L98.5159 111.64C98.1026 112.747 97.6026 113.62 97.0159 114.26C96.4292 114.913 95.6026 115.24 94.5359 115.24ZM106.406 111.44C105.739 111.44 105.099 111.36 104.486 111.2C103.872 111.027 103.259 110.707 102.646 110.24L103.586 108.76C104.012 109.093 104.452 109.327 104.906 109.46C105.359 109.593 105.792 109.66 106.206 109.66C106.792 109.66 107.292 109.533 107.706 109.28C108.119 109.027 108.326 108.673 108.326 108.22C108.326 107.353 107.659 106.92 106.326 106.92H104.866V105.36H106.126C106.752 105.36 107.219 105.253 107.526 105.04C107.832 104.813 107.986 104.507 107.986 104.12C107.986 103.72 107.826 103.42 107.506 103.22C107.199 103.02 106.779 102.92 106.246 102.92C105.752 102.92 105.306 102.98 104.906 103.1C104.519 103.22 104.132 103.413 103.746 103.68L102.846 102.18C103.352 101.833 103.892 101.573 104.466 101.4C105.052 101.227 105.692 101.14 106.386 101.14C107.066 101.14 107.692 101.24 108.266 101.44C108.852 101.627 109.319 101.92 109.666 102.32C110.026 102.72 110.206 103.233 110.206 103.86C110.206 104.3 110.072 104.72 109.806 105.12C109.539 105.507 109.139 105.793 108.606 105.98V106.06C109.192 106.207 109.672 106.473 110.046 106.86C110.419 107.233 110.606 107.76 110.606 108.44C110.606 109.08 110.406 109.627 110.006 110.08C109.606 110.52 109.086 110.86 108.446 111.1C107.806 111.327 107.126 111.44 106.406 111.44ZM116.982 111.44C116.075 111.44 115.255 111.24 114.522 110.84C113.789 110.427 113.209 109.84 112.782 109.08C112.355 108.307 112.142 107.38 112.142 106.3C112.142 105.233 112.355 104.313 112.782 103.54C113.222 102.767 113.789 102.173 114.482 101.76C115.175 101.347 115.902 101.14 116.662 101.14C117.555 101.14 118.302 101.34 118.902 101.74C119.502 102.127 119.955 102.673 120.262 103.38C120.569 104.073 120.722 104.88 120.722 105.8C120.722 106.28 120.689 106.653 120.622 106.92H114.382C114.489 107.787 114.802 108.46 115.322 108.94C115.842 109.42 116.495 109.66 117.282 109.66C117.709 109.66 118.102 109.6 118.462 109.48C118.835 109.347 119.202 109.167 119.562 108.94L120.342 110.38C119.875 110.687 119.355 110.94 118.782 111.14C118.209 111.34 117.609 111.44 116.982 111.44ZM114.362 105.36H118.722C118.722 104.6 118.555 104.007 118.222 103.58C117.889 103.14 117.389 102.92 116.722 102.92C116.149 102.92 115.635 103.133 115.182 103.56C114.742 103.973 114.469 104.573 114.362 105.36ZM122.919 115.08V101.38H124.819L124.979 102.42H125.059C125.472 102.073 125.932 101.773 126.439 101.52C126.959 101.267 127.486 101.14 128.019 101.14C129.246 101.14 130.192 101.593 130.859 102.5C131.539 103.407 131.879 104.62 131.879 106.14C131.879 107.26 131.679 108.22 131.279 109.02C130.879 109.807 130.359 110.407 129.719 110.82C129.092 111.233 128.412 111.44 127.679 111.44C127.252 111.44 126.826 111.347 126.399 111.16C125.972 110.96 125.559 110.693 125.159 110.36L125.219 112V115.08H122.919ZM127.199 109.54C127.852 109.54 128.399 109.253 128.839 108.68C129.279 108.107 129.499 107.267 129.499 106.16C129.499 105.173 129.332 104.407 128.999 103.86C128.666 103.313 128.126 103.04 127.379 103.04C126.686 103.04 125.966 103.407 125.219 104.14V108.72C125.579 109.013 125.926 109.227 126.259 109.36C126.592 109.48 126.906 109.54 127.199 109.54Z" fill="#333333"/>
<rect x="4" y="44" width="164" height="4" rx="2" fill="white"/>
<circle cx="186" cy="46" r="2" fill="white"/>
<circle cx="180" cy="46" r="2" fill="white"/>
<circle cx="174" cy="46" r="2" fill="white"/>
<rect x="632" y="112" width="8" height="24" fill="#9A9FAF"/>
<rect x="328" y="72" width="8" height="24" fill="#9A9FAF"/>
<rect x="328" y="112" width="8" height="24" fill="#9A9FAF"/>
<rect x="496" y="112" width="8" height="24" fill="#9A9FAF"/>
<rect x="192" y="72" width="8" height="24" fill="#9A9FAF"/>
<rect x="192" y="112" width="8" height="24" fill="#9A9FAF"/>
<path d="M550.905 148L549.237 140.128H550.269L551.097 144.412C551.169 144.836 551.245 145.26 551.325 145.684C551.405 146.108 551.481 146.532 551.553 146.956H551.601C551.689 146.532 551.781 146.108 551.877 145.684C551.973 145.252 552.065 144.828 552.153 144.412L553.245 140.128H554.157L555.249 144.412C555.345 144.828 555.441 145.252 555.537 145.684C555.633 146.108 555.729 146.532 555.825 146.956H555.873C555.945 146.532 556.017 146.108 556.089 145.684C556.161 145.252 556.237 144.828 556.317 144.412L557.145 140.128H558.105L556.473 148H555.273L554.085 143.26C554.013 142.956 553.945 142.66 553.881 142.372C553.825 142.076 553.765 141.776 553.701 141.472H553.653C553.597 141.776 553.533 142.076 553.461 142.372C553.389 142.66 553.321 142.956 553.257 143.26L552.093 148H550.905ZM561.743 148.144C561.223 148.144 560.751 148.024 560.327 147.784C559.903 147.536 559.567 147.184 559.319 146.728C559.071 146.272 558.947 145.728 558.947 145.096C558.947 144.456 559.071 143.908 559.319 143.452C559.575 142.996 559.903 142.644 560.303 142.396C560.703 142.148 561.123 142.024 561.563 142.024C562.307 142.024 562.879 142.272 563.279 142.768C563.687 143.264 563.891 143.928 563.891 144.76C563.891 144.864 563.887 144.968 563.879 145.072C563.879 145.168 563.871 145.252 563.855 145.324H559.919C559.959 145.94 560.151 146.432 560.495 146.8C560.847 147.168 561.303 147.352 561.863 147.352C562.143 147.352 562.399 147.312 562.631 147.232C562.871 147.144 563.099 147.032 563.315 146.896L563.663 147.544C563.415 147.704 563.131 147.844 562.811 147.964C562.499 148.084 562.143 148.144 561.743 148.144ZM559.907 144.616H563.027C563.027 144.024 562.899 143.576 562.643 143.272C562.395 142.96 562.043 142.804 561.587 142.804C561.179 142.804 560.811 142.964 560.483 143.284C560.163 143.596 559.971 144.04 559.907 144.616ZM567.912 148.144C567.64 148.144 567.356 148.08 567.06 147.952C566.772 147.816 566.5 147.632 566.244 147.4H566.208L566.124 148H565.332V139.456H566.316V141.784L566.292 142.84C566.556 142.608 566.844 142.416 567.156 142.264C567.476 142.104 567.796 142.024 568.116 142.024C568.876 142.024 569.452 142.292 569.844 142.828C570.236 143.364 570.432 144.084 570.432 144.988C570.432 145.652 570.312 146.22 570.072 146.692C569.84 147.164 569.532 147.524 569.148 147.772C568.772 148.02 568.36 148.144 567.912 148.144ZM567.744 147.316C568.224 147.316 568.62 147.112 568.932 146.704C569.252 146.288 569.412 145.72 569.412 145C569.412 144.36 569.292 143.844 569.052 143.452C568.82 143.052 568.428 142.852 567.876 142.852C567.628 142.852 567.376 142.92 567.12 143.056C566.864 143.192 566.596 143.388 566.316 143.644V146.704C566.572 146.928 566.824 147.088 567.072 147.184C567.328 147.272 567.552 147.316 567.744 147.316ZM574.244 148.144C573.692 148.144 573.18 148.04 572.708 147.832C572.236 147.616 571.828 147.332 571.484 146.98L572.084 146.284C572.364 146.58 572.692 146.82 573.068 147.004C573.452 147.18 573.848 147.268 574.256 147.268C574.776 147.268 575.18 147.152 575.468 146.92C575.756 146.68 575.9 146.368 575.9 145.984C575.9 145.712 575.84 145.496 575.72 145.336C575.608 145.176 575.452 145.04 575.252 144.928C575.06 144.816 574.84 144.704 574.592 144.592L573.464 144.1C573.216 143.996 572.968 143.86 572.72 143.692C572.48 143.524 572.276 143.308 572.108 143.044C571.948 142.78 571.868 142.456 571.868 142.072C571.868 141.672 571.972 141.316 572.18 141.004C572.396 140.684 572.692 140.436 573.068 140.26C573.444 140.076 573.868 139.984 574.34 139.984C574.812 139.984 575.248 140.076 575.648 140.26C576.048 140.436 576.388 140.668 576.668 140.956L576.128 141.604C575.888 141.372 575.62 141.192 575.324 141.064C575.036 140.928 574.708 140.86 574.34 140.86C573.9 140.86 573.544 140.964 573.272 141.172C573.008 141.38 572.876 141.66 572.876 142.012C572.876 142.26 572.94 142.468 573.068 142.636C573.204 142.796 573.372 142.928 573.572 143.032C573.772 143.136 573.976 143.232 574.184 143.32L575.3 143.8C575.604 143.928 575.876 144.084 576.116 144.268C576.364 144.444 576.56 144.664 576.704 144.928C576.848 145.184 576.92 145.508 576.92 145.9C576.92 146.316 576.812 146.696 576.596 147.04C576.38 147.376 576.072 147.644 575.672 147.844C575.272 148.044 574.796 148.144 574.244 148.144ZM580.643 148.144C580.171 148.144 579.727 148.024 579.311 147.784C578.903 147.544 578.571 147.196 578.315 146.74C578.067 146.284 577.943 145.736 577.943 145.096C577.943 144.44 578.067 143.884 578.315 143.428C578.571 142.972 578.903 142.624 579.311 142.384C579.727 142.144 580.171 142.024 580.643 142.024C581.123 142.024 581.567 142.144 581.975 142.384C582.383 142.624 582.711 142.972 582.959 143.428C583.215 143.884 583.343 144.44 583.343 145.096C583.343 145.736 583.215 146.284 582.959 146.74C582.711 147.196 582.383 147.544 581.975 147.784C581.567 148.024 581.123 148.144 580.643 148.144ZM580.643 147.328C581.147 147.328 581.551 147.124 581.855 146.716C582.167 146.3 582.323 145.76 582.323 145.096C582.323 144.424 582.167 143.88 581.855 143.464C581.551 143.048 581.147 142.84 580.643 142.84C580.147 142.84 579.743 143.048 579.431 143.464C579.119 143.88 578.963 144.424 578.963 145.096C578.963 145.76 579.119 146.3 579.431 146.716C579.743 147.124 580.147 147.328 580.643 147.328ZM587.183 148.144C586.671 148.144 586.207 148.024 585.791 147.784C585.375 147.544 585.047 147.196 584.807 146.74C584.567 146.284 584.447 145.736 584.447 145.096C584.447 144.44 584.575 143.884 584.831 143.428C585.095 142.972 585.439 142.624 585.863 142.384C586.295 142.144 586.759 142.024 587.255 142.024C587.639 142.024 587.967 142.092 588.239 142.228C588.519 142.364 588.759 142.524 588.959 142.708L588.455 143.356C588.287 143.204 588.107 143.08 587.915 142.984C587.731 142.888 587.523 142.84 587.291 142.84C586.939 142.84 586.623 142.936 586.343 143.128C586.071 143.312 585.855 143.576 585.695 143.92C585.543 144.256 585.467 144.648 585.467 145.096C585.467 145.76 585.631 146.3 585.959 146.716C586.295 147.124 586.731 147.328 587.267 147.328C587.539 147.328 587.791 147.272 588.023 147.16C588.255 147.04 588.459 146.9 588.635 146.74L589.067 147.4C588.803 147.632 588.511 147.816 588.191 147.952C587.871 148.08 587.535 148.144 587.183 148.144ZM590.351 148V139.456H591.323V145.24H591.359L593.843 142.168H594.935L592.979 144.508L595.199 148H594.119L592.415 145.192L591.323 146.464V148H590.351ZM598.446 148.144C597.926 148.144 597.454 148.024 597.03 147.784C596.606 147.536 596.27 147.184 596.022 146.728C595.774 146.272 595.65 145.728 595.65 145.096C595.65 144.456 595.774 143.908 596.022 143.452C596.278 142.996 596.606 142.644 597.006 142.396C597.406 142.148 597.826 142.024 598.266 142.024C599.01 142.024 599.582 142.272 599.982 142.768C600.39 143.264 600.594 143.928 600.594 144.76C600.594 144.864 600.59 144.968 600.582 145.072C600.582 145.168 600.574 145.252 600.558 145.324H596.622C596.662 145.94 596.854 146.432 597.198 146.8C597.55 147.168 598.006 147.352 598.566 147.352C598.846 147.352 599.102 147.312 599.334 147.232C599.574 147.144 599.802 147.032 600.018 146.896L600.366 147.544C600.118 147.704 599.834 147.844 599.514 147.964C599.202 148.084 598.846 148.144 598.446 148.144ZM596.61 144.616H599.73C599.73 144.024 599.602 143.576 599.346 143.272C599.098 142.96 598.746 142.804 598.29 142.804C597.882 142.804 597.514 142.964 597.186 143.284C596.866 143.596 596.674 144.04 596.61 144.616ZM603.754 148.144C603.13 148.144 602.694 147.964 602.446 147.604C602.206 147.244 602.086 146.776 602.086 146.2V142.972H601.222V142.228L602.134 142.168L602.254 140.536H603.082V142.168H604.654V142.972H603.082V146.212C603.082 146.572 603.146 146.852 603.274 147.052C603.41 147.244 603.646 147.34 603.982 147.34C604.086 147.34 604.198 147.324 604.318 147.292C604.438 147.252 604.546 147.216 604.642 147.184L604.834 147.928C604.674 147.984 604.498 148.032 604.306 148.072C604.122 148.12 603.938 148.144 603.754 148.144ZM606.652 143.812C606.452 143.812 606.28 143.744 606.136 143.608C606 143.464 605.932 143.284 605.932 143.068C605.932 142.836 606 142.652 606.136 142.516C606.28 142.372 606.452 142.3 606.652 142.3C606.844 142.3 607.008 142.372 607.144 142.516C607.288 142.652 607.36 142.836 607.36 143.068C607.36 143.284 607.288 143.464 607.144 143.608C607.008 143.744 606.844 143.812 606.652 143.812ZM606.652 148.144C606.452 148.144 606.28 148.076 606.136 147.94C606 147.796 605.932 147.616 605.932 147.4C605.932 147.168 606 146.984 606.136 146.848C606.28 146.704 606.452 146.632 606.652 146.632C606.844 146.632 607.008 146.704 607.144 146.848C607.288 146.984 607.36 147.168 607.36 147.4C607.36 147.616 607.288 147.796 607.144 147.94C607.008 148.076 606.844 148.144 606.652 148.144ZM611.141 148.144C610.661 148.144 610.233 148.056 609.857 147.88C609.481 147.696 609.181 147.444 608.957 147.124C608.741 146.804 608.633 146.444 608.633 146.044C608.633 145.708 608.701 145.412 608.837 145.156C608.981 144.892 609.161 144.664 609.377 144.472C609.601 144.272 609.833 144.108 610.073 143.98V143.932C609.793 143.732 609.545 143.488 609.329 143.2C609.113 142.912 609.005 142.568 609.005 142.168C609.005 141.776 609.101 141.432 609.293 141.136C609.485 140.84 609.745 140.612 610.073 140.452C610.401 140.284 610.769 140.2 611.177 140.2C611.841 140.2 612.365 140.392 612.749 140.776C613.141 141.16 613.337 141.648 613.337 142.24C613.337 142.504 613.281 142.756 613.169 142.996C613.057 143.228 612.921 143.44 612.761 143.632C612.601 143.816 612.441 143.968 612.281 144.088V144.136C612.513 144.264 612.729 144.416 612.929 144.592C613.129 144.768 613.293 144.98 613.421 145.228C613.549 145.468 613.613 145.76 613.613 146.104C613.613 146.48 613.509 146.824 613.301 147.136C613.101 147.448 612.813 147.696 612.437 147.88C612.069 148.056 611.637 148.144 611.141 148.144ZM611.681 143.824C611.937 143.592 612.133 143.348 612.269 143.092C612.413 142.836 612.485 142.568 612.485 142.288C612.485 141.912 612.369 141.592 612.137 141.328C611.905 141.064 611.577 140.932 611.153 140.932C610.801 140.932 610.505 141.044 610.265 141.268C610.033 141.492 609.917 141.792 609.917 142.168C609.917 142.472 609.997 142.724 610.157 142.924C610.325 143.124 610.545 143.296 610.817 143.44C611.089 143.576 611.377 143.704 611.681 143.824ZM611.165 147.412C611.613 147.412 611.973 147.288 612.245 147.04C612.525 146.784 612.665 146.46 612.665 146.068C612.665 145.74 612.569 145.472 612.377 145.264C612.185 145.056 611.929 144.876 611.609 144.724C611.297 144.572 610.957 144.424 610.589 144.28C610.285 144.48 610.029 144.72 609.821 145C609.621 145.28 609.521 145.596 609.521 145.948C609.521 146.372 609.677 146.724 609.989 147.004C610.309 147.276 610.701 147.412 611.165 147.412ZM617.093 148.144C616.325 148.144 615.721 147.8 615.281 147.112C614.849 146.416 614.633 145.428 614.633 144.148C614.633 142.86 614.849 141.88 615.281 141.208C615.721 140.536 616.325 140.2 617.093 140.2C617.853 140.2 618.449 140.536 618.881 141.208C619.321 141.88 619.541 142.86 619.541 144.148C619.541 145.428 619.321 146.416 618.881 147.112C618.449 147.8 617.853 148.144 617.093 148.144ZM617.093 147.352C617.541 147.352 617.901 147.1 618.173 146.596C618.445 146.084 618.581 145.268 618.581 144.148C618.581 143.028 618.445 142.224 618.173 141.736C617.901 141.24 617.541 140.992 617.093 140.992C616.645 140.992 616.281 141.24 616.001 141.736C615.729 142.224 615.593 143.028 615.593 144.148C615.593 145.268 615.729 146.084 616.001 146.596C616.281 147.1 616.645 147.352 617.093 147.352ZM623.07 148.144C622.59 148.144 622.162 148.056 621.786 147.88C621.41 147.696 621.11 147.444 620.886 147.124C620.67 146.804 620.562 146.444 620.562 146.044C620.562 145.708 620.63 145.412 620.766 145.156C620.91 144.892 621.09 144.664 621.306 144.472C621.53 144.272 621.762 144.108 622.002 143.98V143.932C621.722 143.732 621.474 143.488 621.258 143.2C621.042 142.912 620.934 142.568 620.934 142.168C620.934 141.776 621.03 141.432 621.222 141.136C621.414 140.84 621.674 140.612 622.002 140.452C622.33 140.284 622.698 140.2 623.106 140.2C623.77 140.2 624.294 140.392 624.678 140.776C625.07 141.16 625.266 141.648 625.266 142.24C625.266 142.504 625.21 142.756 625.098 142.996C624.986 143.228 624.85 143.44 624.69 143.632C624.53 143.816 624.37 143.968 624.21 144.088V144.136C624.442 144.264 624.658 144.416 624.858 144.592C625.058 144.768 625.222 144.98 625.35 145.228C625.478 145.468 625.542 145.76 625.542 146.104C625.542 146.48 625.438 146.824 625.23 147.136C625.03 147.448 624.742 147.696 624.366 147.88C623.998 148.056 623.566 148.144 623.07 148.144ZM623.61 143.824C623.866 143.592 624.062 143.348 624.198 143.092C624.342 142.836 624.414 142.568 624.414 142.288C624.414 141.912 624.298 141.592 624.066 141.328C623.834 141.064 623.506 140.932 623.082 140.932C622.73 140.932 622.434 141.044 622.194 141.268C621.962 141.492 621.846 141.792 621.846 142.168C621.846 142.472 621.926 142.724 622.086 142.924C622.254 143.124 622.474 143.296 622.746 143.44C623.018 143.576 623.306 143.704 623.61 143.824ZM623.094 147.412C623.542 147.412 623.902 147.288 624.174 147.04C624.454 146.784 624.594 146.46 624.594 146.068C624.594 145.74 624.498 145.472 624.306 145.264C624.114 145.056 623.858 144.876 623.538 144.724C623.226 144.572 622.886 144.424 622.518 144.28C622.214 144.48 621.958 144.72 621.75 145C621.55 145.28 621.45 145.596 621.45 145.948C621.45 146.372 621.606 146.724 621.918 147.004C622.238 147.276 622.63 147.412 623.094 147.412ZM629.023 148.144C628.255 148.144 627.651 147.8 627.211 147.112C626.779 146.416 626.563 145.428 626.563 144.148C626.563 142.86 626.779 141.88 627.211 141.208C627.651 140.536 628.255 140.2 629.023 140.2C629.783 140.2 630.379 140.536 630.811 141.208C631.251 141.88 631.471 142.86 631.471 144.148C631.471 145.428 631.251 146.416 630.811 147.112C630.379 147.8 629.783 148.144 629.023 148.144ZM629.023 147.352C629.471 147.352 629.831 147.1 630.103 146.596C630.375 146.084 630.511 145.268 630.511 144.148C630.511 143.028 630.375 142.224 630.103 141.736C629.831 141.24 629.471 140.992 629.023 140.992C628.575 140.992 628.211 141.24 627.931 141.736C627.659 142.224 627.523 143.028 627.523 144.148C627.523 145.268 627.659 146.084 627.931 146.596C628.211 147.1 628.575 147.352 629.023 147.352ZM606.652 159.812C606.452 159.812 606.28 159.744 606.136 159.608C606 159.464 605.932 159.284 605.932 159.068C605.932 158.836 606 158.652 606.136 158.516C606.28 158.372 606.452 158.3 606.652 158.3C606.844 158.3 607.008 158.372 607.144 158.516C607.288 158.652 607.36 158.836 607.36 159.068C607.36 159.284 607.288 159.464 607.144 159.608C607.008 159.744 606.844 159.812 606.652 159.812ZM606.652 164.144C606.452 164.144 606.28 164.076 606.136 163.94C606 163.796 605.932 163.616 605.932 163.4C605.932 163.168 606 162.984 606.136 162.848C606.28 162.704 606.452 162.632 606.652 162.632C606.844 162.632 607.008 162.704 607.144 162.848C607.288 162.984 607.36 163.168 607.36 163.4C607.36 163.616 607.288 163.796 607.144 163.94C607.008 164.076 606.844 164.144 606.652 164.144ZM611.141 164.144C610.661 164.144 610.233 164.056 609.857 163.88C609.481 163.696 609.181 163.444 608.957 163.124C608.741 162.804 608.633 162.444 608.633 162.044C608.633 161.708 608.701 161.412 608.837 161.156C608.981 160.892 609.161 160.664 609.377 160.472C609.601 160.272 609.833 160.108 610.073 159.98V159.932C609.793 159.732 609.545 159.488 609.329 159.2C609.113 158.912 609.005 158.568 609.005 158.168C609.005 157.776 609.101 157.432 609.293 157.136C609.485 156.84 609.745 156.612 610.073 156.452C610.401 156.284 610.769 156.2 611.177 156.2C611.841 156.2 612.365 156.392 612.749 156.776C613.141 157.16 613.337 157.648 613.337 158.24C613.337 158.504 613.281 158.756 613.169 158.996C613.057 159.228 612.921 159.44 612.761 159.632C612.601 159.816 612.441 159.968 612.281 160.088V160.136C612.513 160.264 612.729 160.416 612.929 160.592C613.129 160.768 613.293 160.98 613.421 161.228C613.549 161.468 613.613 161.76 613.613 162.104C613.613 162.48 613.509 162.824 613.301 163.136C613.101 163.448 612.813 163.696 612.437 163.88C612.069 164.056 611.637 164.144 611.141 164.144ZM611.681 159.824C611.937 159.592 612.133 159.348 612.269 159.092C612.413 158.836 612.485 158.568 612.485 158.288C612.485 157.912 612.369 157.592 612.137 157.328C611.905 157.064 611.577 156.932 611.153 156.932C610.801 156.932 610.505 157.044 610.265 157.268C610.033 157.492 609.917 157.792 609.917 158.168C609.917 158.472 609.997 158.724 610.157 158.924C610.325 159.124 610.545 159.296 610.817 159.44C611.089 159.576 611.377 159.704 611.681 159.824ZM611.165 163.412C611.613 163.412 611.973 163.288 612.245 163.04C612.525 162.784 612.665 162.46 612.665 162.068C612.665 161.74 612.569 161.472 612.377 161.264C612.185 161.056 611.929 160.876 611.609 160.724C611.297 160.572 610.957 160.424 610.589 160.28C610.285 160.48 610.029 160.72 609.821 161C609.621 161.28 609.521 161.596 609.521 161.948C609.521 162.372 609.677 162.724 609.989 163.004C610.309 163.276 610.701 163.412 611.165 163.412ZM615.353 161.096H617.753V158.876C617.753 158.668 617.761 158.42 617.777 158.132C617.793 157.844 617.805 157.6 617.813 157.4H617.765C617.669 157.584 617.569 157.764 617.465 157.94C617.361 158.116 617.253 158.296 617.141 158.48L615.353 161.096ZM617.753 164V161.888H614.309V161.24L617.585 156.344H618.689V161.096H619.733V161.888H618.689V164H617.753ZM621.318 161.096H623.718V158.876C623.718 158.668 623.726 158.42 623.742 158.132C623.758 157.844 623.77 157.6 623.778 157.4H623.73C623.634 157.584 623.534 157.764 623.43 157.94C623.326 158.116 623.218 158.296 623.106 158.48L621.318 161.096ZM623.718 164V161.888H620.274V161.24L623.55 156.344H624.654V161.096H625.698V161.888H624.654V164H623.718ZM628.867 164.144C628.259 164.144 627.751 164.036 627.343 163.82C626.935 163.596 626.603 163.344 626.347 163.064L626.851 162.416C627.083 162.656 627.355 162.868 627.667 163.052C627.979 163.236 628.359 163.328 628.807 163.328C629.271 163.328 629.651 163.2 629.947 162.944C630.243 162.688 630.391 162.348 630.391 161.924C630.391 161.62 630.311 161.356 630.151 161.132C629.999 160.9 629.743 160.72 629.383 160.592C629.031 160.464 628.551 160.4 627.943 160.4V159.644C628.487 159.644 628.915 159.58 629.227 159.452C629.547 159.324 629.775 159.152 629.911 158.936C630.047 158.72 630.115 158.48 630.115 158.216C630.115 157.84 629.995 157.544 629.755 157.328C629.523 157.112 629.203 157.004 628.795 157.004C628.475 157.004 628.179 157.076 627.907 157.22C627.643 157.364 627.395 157.552 627.163 157.784L626.635 157.16C626.931 156.88 627.259 156.652 627.619 156.476C627.979 156.292 628.383 156.2 628.831 156.2C629.495 156.2 630.043 156.372 630.475 156.716C630.907 157.052 631.123 157.528 631.123 158.144C631.123 158.608 630.995 158.988 630.739 159.284C630.483 159.58 630.147 159.808 629.731 159.968V160.016C630.195 160.12 630.587 160.34 630.907 160.676C631.227 161.004 631.387 161.432 631.387 161.96C631.387 162.408 631.275 162.796 631.051 163.124C630.827 163.452 630.523 163.704 630.139 163.88C629.763 164.056 629.339 164.144 628.867 164.144Z" fill="black"/>
<path d="M293.007 148V139.456H293.991V141.784L293.955 142.984C294.235 142.72 294.527 142.496 294.831 142.312C295.143 142.12 295.499 142.024 295.899 142.024C296.515 142.024 296.963 142.22 297.243 142.612C297.531 142.996 297.675 143.56 297.675 144.304V148H296.691V144.436C296.691 143.892 296.603 143.496 296.427 143.248C296.251 143 295.971 142.876 295.587 142.876C295.291 142.876 295.023 142.952 294.783 143.104C294.551 143.256 294.287 143.48 293.991 143.776V148H293.007ZM301.371 148.144C300.747 148.144 300.311 147.964 300.063 147.604C299.823 147.244 299.703 146.776 299.703 146.2V142.972H298.839V142.228L299.751 142.168L299.871 140.536H300.699V142.168H302.271V142.972H300.699V146.212C300.699 146.572 300.763 146.852 300.891 147.052C301.027 147.244 301.263 147.34 301.599 147.34C301.703 147.34 301.815 147.324 301.935 147.292C302.055 147.252 302.163 147.216 302.259 147.184L302.451 147.928C302.291 147.984 302.115 148.032 301.923 148.072C301.739 148.12 301.555 148.144 301.371 148.144ZM305.191 148.144C304.567 148.144 304.131 147.964 303.883 147.604C303.643 147.244 303.523 146.776 303.523 146.2V142.972H302.659V142.228L303.571 142.168L303.691 140.536H304.519V142.168H306.091V142.972H304.519V146.212C304.519 146.572 304.583 146.852 304.711 147.052C304.847 147.244 305.083 147.34 305.419 147.34C305.523 147.34 305.635 147.324 305.755 147.292C305.875 147.252 305.983 147.216 306.079 147.184L306.271 147.928C306.111 147.984 305.935 148.032 305.743 148.072C305.559 148.12 305.375 148.144 305.191 148.144ZM307.41 150.46V142.168H308.226L308.31 142.84H308.346C308.61 142.616 308.898 142.424 309.21 142.264C309.53 142.104 309.862 142.024 310.206 142.024C310.958 142.024 311.53 142.296 311.922 142.84C312.314 143.376 312.51 144.096 312.51 145C312.51 145.656 312.39 146.22 312.15 146.692C311.918 147.164 311.61 147.524 311.226 147.772C310.85 148.02 310.438 148.144 309.99 148.144C309.718 148.144 309.446 148.084 309.174 147.964C308.91 147.844 308.642 147.68 308.37 147.472L308.394 148.492V150.46H307.41ZM309.822 147.316C310.302 147.316 310.698 147.112 311.01 146.704C311.33 146.288 311.49 145.72 311.49 145C311.49 144.36 311.37 143.844 311.13 143.452C310.898 143.052 310.506 142.852 309.954 142.852C309.706 142.852 309.454 142.92 309.198 143.056C308.95 143.192 308.682 143.388 308.394 143.644V146.704C308.658 146.928 308.914 147.088 309.162 147.184C309.41 147.272 309.63 147.316 309.822 147.316ZM314.582 143.812C314.382 143.812 314.21 143.744 314.066 143.608C313.93 143.464 313.862 143.284 313.862 143.068C313.862 142.836 313.93 142.652 314.066 142.516C314.21 142.372 314.382 142.3 314.582 142.3C314.774 142.3 314.938 142.372 315.074 142.516C315.218 142.652 315.29 142.836 315.29 143.068C315.29 143.284 315.218 143.464 315.074 143.608C314.938 143.744 314.774 143.812 314.582 143.812ZM314.582 148.144C314.382 148.144 314.21 148.076 314.066 147.94C313.93 147.796 313.862 147.616 313.862 147.4C313.862 147.168 313.93 146.984 314.066 146.848C314.21 146.704 314.382 146.632 314.582 146.632C314.774 146.632 314.938 146.704 315.074 146.848C315.218 146.984 315.29 147.168 315.29 147.4C315.29 147.616 315.218 147.796 315.074 147.94C314.938 148.076 314.774 148.144 314.582 148.144ZM319.07 148.144C318.59 148.144 318.162 148.056 317.786 147.88C317.41 147.696 317.11 147.444 316.886 147.124C316.67 146.804 316.562 146.444 316.562 146.044C316.562 145.708 316.63 145.412 316.766 145.156C316.91 144.892 317.09 144.664 317.306 144.472C317.53 144.272 317.762 144.108 318.002 143.98V143.932C317.722 143.732 317.474 143.488 317.258 143.2C317.042 142.912 316.934 142.568 316.934 142.168C316.934 141.776 317.03 141.432 317.222 141.136C317.414 140.84 317.674 140.612 318.002 140.452C318.33 140.284 318.698 140.2 319.106 140.2C319.77 140.2 320.294 140.392 320.678 140.776C321.07 141.16 321.266 141.648 321.266 142.24C321.266 142.504 321.21 142.756 321.098 142.996C320.986 143.228 320.85 143.44 320.69 143.632C320.53 143.816 320.37 143.968 320.21 144.088V144.136C320.442 144.264 320.658 144.416 320.858 144.592C321.058 144.768 321.222 144.98 321.35 145.228C321.478 145.468 321.542 145.76 321.542 146.104C321.542 146.48 321.438 146.824 321.23 147.136C321.03 147.448 320.742 147.696 320.366 147.88C319.998 148.056 319.566 148.144 319.07 148.144ZM319.61 143.824C319.866 143.592 320.062 143.348 320.198 143.092C320.342 142.836 320.414 142.568 320.414 142.288C320.414 141.912 320.298 141.592 320.066 141.328C319.834 141.064 319.506 140.932 319.082 140.932C318.73 140.932 318.434 141.044 318.194 141.268C317.962 141.492 317.846 141.792 317.846 142.168C317.846 142.472 317.926 142.724 318.086 142.924C318.254 143.124 318.474 143.296 318.746 143.44C319.018 143.576 319.306 143.704 319.61 143.824ZM319.094 147.412C319.542 147.412 319.902 147.288 320.174 147.04C320.454 146.784 320.594 146.46 320.594 146.068C320.594 145.74 320.498 145.472 320.306 145.264C320.114 145.056 319.858 144.876 319.538 144.724C319.226 144.572 318.886 144.424 318.518 144.28C318.214 144.48 317.958 144.72 317.75 145C317.55 145.28 317.45 145.596 317.45 145.948C317.45 146.372 317.606 146.724 317.918 147.004C318.238 147.276 318.63 147.412 319.094 147.412ZM325.023 148.144C324.255 148.144 323.651 147.8 323.211 147.112C322.779 146.416 322.563 145.428 322.563 144.148C322.563 142.86 322.779 141.88 323.211 141.208C323.651 140.536 324.255 140.2 325.023 140.2C325.783 140.2 326.379 140.536 326.811 141.208C327.251 141.88 327.471 142.86 327.471 144.148C327.471 145.428 327.251 146.416 326.811 147.112C326.379 147.8 325.783 148.144 325.023 148.144ZM325.023 147.352C325.471 147.352 325.831 147.1 326.103 146.596C326.375 146.084 326.511 145.268 326.511 144.148C326.511 143.028 326.375 142.224 326.103 141.736C325.831 141.24 325.471 140.992 325.023 140.992C324.575 140.992 324.211 141.24 323.931 141.736C323.659 142.224 323.523 143.028 323.523 144.148C323.523 145.268 323.659 146.084 323.931 146.596C324.211 147.1 324.575 147.352 325.023 147.352ZM282.015 164V155.456H282.999V157.784L282.963 158.984C283.243 158.72 283.535 158.496 283.839 158.312C284.151 158.12 284.507 158.024 284.907 158.024C285.523 158.024 285.971 158.22 286.251 158.612C286.539 158.996 286.683 159.56 286.683 160.304V164H285.699V160.436C285.699 159.892 285.611 159.496 285.435 159.248C285.259 159 284.979 158.876 284.595 158.876C284.299 158.876 284.031 158.952 283.791 159.104C283.559 159.256 283.295 159.48 282.999 159.776V164H282.015ZM290.379 164.144C289.755 164.144 289.319 163.964 289.071 163.604C288.831 163.244 288.711 162.776 288.711 162.2V158.972H287.847V158.228L288.759 158.168L288.879 156.536H289.707V158.168H291.279V158.972H289.707V162.212C289.707 162.572 289.771 162.852 289.899 163.052C290.035 163.244 290.271 163.34 290.607 163.34C290.711 163.34 290.823 163.324 290.943 163.292C291.063 163.252 291.171 163.216 291.267 163.184L291.459 163.928C291.299 163.984 291.123 164.032 290.931 164.072C290.747 164.12 290.563 164.144 290.379 164.144ZM294.199 164.144C293.575 164.144 293.139 163.964 292.891 163.604C292.651 163.244 292.531 162.776 292.531 162.2V158.972H291.667V158.228L292.579 158.168L292.699 156.536H293.527V158.168H295.099V158.972H293.527V162.212C293.527 162.572 293.591 162.852 293.719 163.052C293.855 163.244 294.091 163.34 294.427 163.34C294.531 163.34 294.643 163.324 294.763 163.292C294.883 163.252 294.991 163.216 295.087 163.184L295.279 163.928C295.119 163.984 294.943 164.032 294.751 164.072C294.567 164.12 294.383 164.144 294.199 164.144ZM296.418 166.46V158.168H297.234L297.318 158.84H297.354C297.618 158.616 297.906 158.424 298.218 158.264C298.538 158.104 298.87 158.024 299.214 158.024C299.966 158.024 300.538 158.296 300.93 158.84C301.322 159.376 301.518 160.096 301.518 161C301.518 161.656 301.398 162.22 301.158 162.692C300.926 163.164 300.618 163.524 300.234 163.772C299.858 164.02 299.446 164.144 298.998 164.144C298.726 164.144 298.454 164.084 298.182 163.964C297.918 163.844 297.65 163.68 297.378 163.472L297.402 164.492V166.46H296.418ZM298.83 163.316C299.31 163.316 299.706 163.112 300.018 162.704C300.338 162.288 300.498 161.72 300.498 161C300.498 160.36 300.378 159.844 300.138 159.452C299.906 159.052 299.514 158.852 298.962 158.852C298.714 158.852 298.462 158.92 298.206 159.056C297.958 159.192 297.69 159.388 297.402 159.644V162.704C297.666 162.928 297.922 163.088 298.17 163.184C298.418 163.272 298.638 163.316 298.83 163.316ZM304.598 164.144C304.182 164.144 303.786 164.068 303.41 163.916C303.034 163.756 302.706 163.564 302.426 163.34L302.918 162.68C303.174 162.88 303.438 163.048 303.71 163.184C303.982 163.312 304.29 163.376 304.634 163.376C305.018 163.376 305.306 163.288 305.498 163.112C305.69 162.928 305.786 162.712 305.786 162.464C305.786 162.264 305.718 162.096 305.582 161.96C305.454 161.824 305.286 161.712 305.078 161.624C304.878 161.528 304.67 161.44 304.454 161.36C304.182 161.256 303.914 161.14 303.65 161.012C303.386 160.876 303.17 160.704 303.002 160.496C302.834 160.28 302.75 160.008 302.75 159.68C302.75 159.208 302.926 158.816 303.278 158.504C303.638 158.184 304.134 158.024 304.766 158.024C305.126 158.024 305.462 158.088 305.774 158.216C306.086 158.344 306.354 158.5 306.578 158.684L306.098 159.308C305.898 159.156 305.69 159.032 305.474 158.936C305.258 158.84 305.022 158.792 304.766 158.792C304.398 158.792 304.126 158.876 303.95 159.044C303.782 159.212 303.698 159.408 303.698 159.632C303.698 159.816 303.758 159.968 303.878 160.088C303.998 160.2 304.154 160.3 304.346 160.388C304.538 160.468 304.742 160.552 304.958 160.64C305.238 160.744 305.514 160.864 305.786 161C306.058 161.128 306.282 161.304 306.458 161.528C306.642 161.744 306.734 162.036 306.734 162.404C306.734 162.716 306.65 163.004 306.482 163.268C306.322 163.532 306.082 163.744 305.762 163.904C305.45 164.064 305.062 164.144 304.598 164.144ZM308.617 159.812C308.417 159.812 308.245 159.744 308.101 159.608C307.965 159.464 307.897 159.284 307.897 159.068C307.897 158.836 307.965 158.652 308.101 158.516C308.245 158.372 308.417 158.3 308.617 158.3C308.809 158.3 308.973 158.372 309.109 158.516C309.253 158.652 309.325 158.836 309.325 159.068C309.325 159.284 309.253 159.464 309.109 159.608C308.973 159.744 308.809 159.812 308.617 159.812ZM308.617 164.144C308.417 164.144 308.245 164.076 308.101 163.94C307.965 163.796 307.897 163.616 307.897 163.4C307.897 163.168 307.965 162.984 308.101 162.848C308.245 162.704 308.417 162.632 308.617 162.632C308.809 162.632 308.973 162.704 309.109 162.848C309.253 162.984 309.325 163.168 309.325 163.4C309.325 163.616 309.253 163.796 309.109 163.94C308.973 164.076 308.809 164.144 308.617 164.144ZM311.353 161.096H313.753V158.876C313.753 158.668 313.761 158.42 313.777 158.132C313.793 157.844 313.805 157.6 313.813 157.4H313.765C313.669 157.584 313.569 157.764 313.465 157.94C313.361 158.116 313.253 158.296 313.141 158.48L311.353 161.096ZM313.753 164V161.888H310.309V161.24L313.585 156.344H314.689V161.096H315.733V161.888H314.689V164H313.753ZM317.318 161.096H319.718V158.876C319.718 158.668 319.726 158.42 319.742 158.132C319.758 157.844 319.77 157.6 319.778 157.4H319.73C319.634 157.584 319.534 157.764 319.43 157.94C319.326 158.116 319.218 158.296 319.106 158.48L317.318 161.096ZM319.718 164V161.888H316.274V161.24L319.55 156.344H320.654V161.096H321.698V161.888H320.654V164H319.718ZM324.867 164.144C324.259 164.144 323.751 164.036 323.343 163.82C322.935 163.596 322.603 163.344 322.347 163.064L322.851 162.416C323.083 162.656 323.355 162.868 323.667 163.052C323.979 163.236 324.359 163.328 324.807 163.328C325.271 163.328 325.651 163.2 325.947 162.944C326.243 162.688 326.391 162.348 326.391 161.924C326.391 161.62 326.311 161.356 326.151 161.132C325.999 160.9 325.743 160.72 325.383 160.592C325.031 160.464 324.551 160.4 323.943 160.4V159.644C324.487 159.644 324.915 159.58 325.227 159.452C325.547 159.324 325.775 159.152 325.911 158.936C326.047 158.72 326.115 158.48 326.115 158.216C326.115 157.84 325.995 157.544 325.755 157.328C325.523 157.112 325.203 157.004 324.795 157.004C324.475 157.004 324.179 157.076 323.907 157.22C323.643 157.364 323.395 157.552 323.163 157.784L322.635 157.16C322.931 156.88 323.259 156.652 323.619 156.476C323.979 156.292 324.383 156.2 324.831 156.2C325.495 156.2 326.043 156.372 326.475 156.716C326.907 157.052 327.123 157.528 327.123 158.144C327.123 158.608 326.995 158.988 326.739 159.284C326.483 159.58 326.147 159.808 325.731 159.968V160.016C326.195 160.12 326.587 160.34 326.907 160.676C327.227 161.004 327.387 161.432 327.387 161.96C327.387 162.408 327.275 162.796 327.051 163.124C326.827 163.452 326.523 163.704 326.139 163.88C325.763 164.056 325.339 164.144 324.867 164.144Z" fill="black"/>
<path d="M293.007 52V43.456H293.991V45.784L293.955 46.984C294.235 46.72 294.527 46.496 294.831 46.312C295.143 46.12 295.499 46.024 295.899 46.024C296.515 46.024 296.963 46.22 297.243 46.612C297.531 46.996 297.675 47.56 297.675 48.304V52H296.691V48.436C296.691 47.892 296.603 47.496 296.427 47.248C296.251 47 295.971 46.876 295.587 46.876C295.291 46.876 295.023 46.952 294.783 47.104C294.551 47.256 294.287 47.48 293.991 47.776V52H293.007ZM301.371 52.144C300.747 52.144 300.311 51.964 300.063 51.604C299.823 51.244 299.703 50.776 299.703 50.2V46.972H298.839V46.228L299.751 46.168L299.871 44.536H300.699V46.168H302.271V46.972H300.699V50.212C300.699 50.572 300.763 50.852 300.891 51.052C301.027 51.244 301.263 51.34 301.599 51.34C301.703 51.34 301.815 51.324 301.935 51.292C302.055 51.252 302.163 51.216 302.259 51.184L302.451 51.928C302.291 51.984 302.115 52.032 301.923 52.072C301.739 52.12 301.555 52.144 301.371 52.144ZM305.191 52.144C304.567 52.144 304.131 51.964 303.883 51.604C303.643 51.244 303.523 50.776 303.523 50.2V46.972H302.659V46.228L303.571 46.168L303.691 44.536H304.519V46.168H306.091V46.972H304.519V50.212C304.519 50.572 304.583 50.852 304.711 51.052C304.847 51.244 305.083 51.34 305.419 51.34C305.523 51.34 305.635 51.324 305.755 51.292C305.875 51.252 305.983 51.216 306.079 51.184L306.271 51.928C306.111 51.984 305.935 52.032 305.743 52.072C305.559 52.12 305.375 52.144 305.191 52.144ZM307.41 54.46V46.168H308.226L308.31 46.84H308.346C308.61 46.616 308.898 46.424 309.21 46.264C309.53 46.104 309.862 46.024 310.206 46.024C310.958 46.024 311.53 46.296 311.922 46.84C312.314 47.376 312.51 48.096 312.51 49C312.51 49.656 312.39 50.22 312.15 50.692C311.918 51.164 311.61 51.524 311.226 51.772C310.85 52.02 310.438 52.144 309.99 52.144C309.718 52.144 309.446 52.084 309.174 51.964C308.91 51.844 308.642 51.68 308.37 51.472L308.394 52.492V54.46H307.41ZM309.822 51.316C310.302 51.316 310.698 51.112 311.01 50.704C311.33 50.288 311.49 49.72 311.49 49C311.49 48.36 311.37 47.844 311.13 47.452C310.898 47.052 310.506 46.852 309.954 46.852C309.706 46.852 309.454 46.92 309.198 47.056C308.95 47.192 308.682 47.388 308.394 47.644V50.704C308.658 50.928 308.914 51.088 309.162 51.184C309.41 51.272 309.63 51.316 309.822 51.316ZM314.582 47.812C314.382 47.812 314.21 47.744 314.066 47.608C313.93 47.464 313.862 47.284 313.862 47.068C313.862 46.836 313.93 46.652 314.066 46.516C314.21 46.372 314.382 46.3 314.582 46.3C314.774 46.3 314.938 46.372 315.074 46.516C315.218 46.652 315.29 46.836 315.29 47.068C315.29 47.284 315.218 47.464 315.074 47.608C314.938 47.744 314.774 47.812 314.582 47.812ZM314.582 52.144C314.382 52.144 314.21 52.076 314.066 51.94C313.93 51.796 313.862 51.616 313.862 51.4C313.862 51.168 313.93 50.984 314.066 50.848C314.21 50.704 314.382 50.632 314.582 50.632C314.774 50.632 314.938 50.704 315.074 50.848C315.218 50.984 315.29 51.168 315.29 51.4C315.29 51.616 315.218 51.796 315.074 51.94C314.938 52.076 314.774 52.144 314.582 52.144ZM319.07 52.144C318.59 52.144 318.162 52.056 317.786 51.88C317.41 51.696 317.11 51.444 316.886 51.124C316.67 50.804 316.562 50.444 316.562 50.044C316.562 49.708 316.63 49.412 316.766 49.156C316.91 48.892 317.09 48.664 317.306 48.472C317.53 48.272 317.762 48.108 318.002 47.98V47.932C317.722 47.732 317.474 47.488 317.258 47.2C317.042 46.912 316.934 46.568 316.934 46.168C316.934 45.776 317.03 45.432 317.222 45.136C317.414 44.84 317.674 44.612 318.002 44.452C318.33 44.284 318.698 44.2 319.106 44.2C319.77 44.2 320.294 44.392 320.678 44.776C321.07 45.16 321.266 45.648 321.266 46.24C321.266 46.504 321.21 46.756 321.098 46.996C320.986 47.228 320.85 47.44 320.69 47.632C320.53 47.816 320.37 47.968 320.21 48.088V48.136C320.442 48.264 320.658 48.416 320.858 48.592C321.058 48.768 321.222 48.98 321.35 49.228C321.478 49.468 321.542 49.76 321.542 50.104C321.542 50.48 321.438 50.824 321.23 51.136C321.03 51.448 320.742 51.696 320.366 51.88C319.998 52.056 319.566 52.144 319.07 52.144ZM319.61 47.824C319.866 47.592 320.062 47.348 320.198 47.092C320.342 46.836 320.414 46.568 320.414 46.288C320.414 45.912 320.298 45.592 320.066 45.328C319.834 45.064 319.506 44.932 319.082 44.932C318.73 44.932 318.434 45.044 318.194 45.268C317.962 45.492 317.846 45.792 317.846 46.168C317.846 46.472 317.926 46.724 318.086 46.924C318.254 47.124 318.474 47.296 318.746 47.44C319.018 47.576 319.306 47.704 319.61 47.824ZM319.094 51.412C319.542 51.412 319.902 51.288 320.174 51.04C320.454 50.784 320.594 50.46 320.594 50.068C320.594 49.74 320.498 49.472 320.306 49.264C320.114 49.056 319.858 48.876 319.538 48.724C319.226 48.572 318.886 48.424 318.518 48.28C318.214 48.48 317.958 48.72 317.75 49C317.55 49.28 317.45 49.596 317.45 49.948C317.45 50.372 317.606 50.724 317.918 51.004C318.238 51.276 318.63 51.412 319.094 51.412ZM325.023 52.144C324.255 52.144 323.651 51.8 323.211 51.112C322.779 50.416 322.563 49.428 322.563 48.148C322.563 46.86 322.779 45.88 323.211 45.208C323.651 44.536 324.255 44.2 325.023 44.2C325.783 44.2 326.379 44.536 326.811 45.208C327.251 45.88 327.471 46.86 327.471 48.148C327.471 49.428 327.251 50.416 326.811 51.112C326.379 51.8 325.783 52.144 325.023 52.144ZM325.023 51.352C325.471 51.352 325.831 51.1 326.103 50.596C326.375 50.084 326.511 49.268 326.511 48.148C326.511 47.028 326.375 46.224 326.103 45.736C325.831 45.24 325.471 44.992 325.023 44.992C324.575 44.992 324.211 45.24 323.931 45.736C323.659 46.224 323.523 47.028 323.523 48.148C323.523 49.268 323.659 50.084 323.931 50.596C324.211 51.1 324.575 51.352 325.023 51.352ZM282.015 68V59.456H282.999V61.784L282.963 62.984C283.243 62.72 283.535 62.496 283.839 62.312C284.151 62.12 284.507 62.024 284.907 62.024C285.523 62.024 285.971 62.22 286.251 62.612C286.539 62.996 286.683 63.56 286.683 64.304V68H285.699V64.436C285.699 63.892 285.611 63.496 285.435 63.248C285.259 63 284.979 62.876 284.595 62.876C284.299 62.876 284.031 62.952 283.791 63.104C283.559 63.256 283.295 63.48 282.999 63.776V68H282.015ZM290.379 68.144C289.755 68.144 289.319 67.964 289.071 67.604C288.831 67.244 288.711 66.776 288.711 66.2V62.972H287.847V62.228L288.759 62.168L288.879 60.536H289.707V62.168H291.279V62.972H289.707V66.212C289.707 66.572 289.771 66.852 289.899 67.052C290.035 67.244 290.271 67.34 290.607 67.34C290.711 67.34 290.823 67.324 290.943 67.292C291.063 67.252 291.171 67.216 291.267 67.184L291.459 67.928C291.299 67.984 291.123 68.032 290.931 68.072C290.747 68.12 290.563 68.144 290.379 68.144ZM294.199 68.144C293.575 68.144 293.139 67.964 292.891 67.604C292.651 67.244 292.531 66.776 292.531 66.2V62.972H291.667V62.228L292.579 62.168L292.699 60.536H293.527V62.168H295.099V62.972H293.527V66.212C293.527 66.572 293.591 66.852 293.719 67.052C293.855 67.244 294.091 67.34 294.427 67.34C294.531 67.34 294.643 67.324 294.763 67.292C294.883 67.252 294.991 67.216 295.087 67.184L295.279 67.928C295.119 67.984 294.943 68.032 294.751 68.072C294.567 68.12 294.383 68.144 294.199 68.144ZM296.418 70.46V62.168H297.234L297.318 62.84H297.354C297.618 62.616 297.906 62.424 298.218 62.264C298.538 62.104 298.87 62.024 299.214 62.024C299.966 62.024 300.538 62.296 300.93 62.84C301.322 63.376 301.518 64.096 301.518 65C301.518 65.656 301.398 66.22 301.158 66.692C300.926 67.164 300.618 67.524 300.234 67.772C299.858 68.02 299.446 68.144 298.998 68.144C298.726 68.144 298.454 68.084 298.182 67.964C297.918 67.844 297.65 67.68 297.378 67.472L297.402 68.492V70.46H296.418ZM298.83 67.316C299.31 67.316 299.706 67.112 300.018 66.704C300.338 66.288 300.498 65.72 300.498 65C300.498 64.36 300.378 63.844 300.138 63.452C299.906 63.052 299.514 62.852 298.962 62.852C298.714 62.852 298.462 62.92 298.206 63.056C297.958 63.192 297.69 63.388 297.402 63.644V66.704C297.666 66.928 297.922 67.088 298.17 67.184C298.418 67.272 298.638 67.316 298.83 67.316ZM304.598 68.144C304.182 68.144 303.786 68.068 303.41 67.916C303.034 67.756 302.706 67.564 302.426 67.34L302.918 66.68C303.174 66.88 303.438 67.048 303.71 67.184C303.982 67.312 304.29 67.376 304.634 67.376C305.018 67.376 305.306 67.288 305.498 67.112C305.69 66.928 305.786 66.712 305.786 66.464C305.786 66.264 305.718 66.096 305.582 65.96C305.454 65.824 305.286 65.712 305.078 65.624C304.878 65.528 304.67 65.44 304.454 65.36C304.182 65.256 303.914 65.14 303.65 65.012C303.386 64.876 303.17 64.704 303.002 64.496C302.834 64.28 302.75 64.008 302.75 63.68C302.75 63.208 302.926 62.816 303.278 62.504C303.638 62.184 304.134 62.024 304.766 62.024C305.126 62.024 305.462 62.088 305.774 62.216C306.086 62.344 306.354 62.5 306.578 62.684L306.098 63.308C305.898 63.156 305.69 63.032 305.474 62.936C305.258 62.84 305.022 62.792 304.766 62.792C304.398 62.792 304.126 62.876 303.95 63.044C303.782 63.212 303.698 63.408 303.698 63.632C303.698 63.816 303.758 63.968 303.878 64.088C303.998 64.2 304.154 64.3 304.346 64.388C304.538 64.468 304.742 64.552 304.958 64.64C305.238 64.744 305.514 64.864 305.786 65C306.058 65.128 306.282 65.304 306.458 65.528C306.642 65.744 306.734 66.036 306.734 66.404C306.734 66.716 306.65 67.004 306.482 67.268C306.322 67.532 306.082 67.744 305.762 67.904C305.45 68.064 305.062 68.144 304.598 68.144ZM308.617 63.812C308.417 63.812 308.245 63.744 308.101 63.608C307.965 63.464 307.897 63.284 307.897 63.068C307.897 62.836 307.965 62.652 308.101 62.516C308.245 62.372 308.417 62.3 308.617 62.3C308.809 62.3 308.973 62.372 309.109 62.516C309.253 62.652 309.325 62.836 309.325 63.068C309.325 63.284 309.253 63.464 309.109 63.608C308.973 63.744 308.809 63.812 308.617 63.812ZM308.617 68.144C308.417 68.144 308.245 68.076 308.101 67.94C307.965 67.796 307.897 67.616 307.897 67.4C307.897 67.168 307.965 66.984 308.101 66.848C308.245 66.704 308.417 66.632 308.617 66.632C308.809 66.632 308.973 66.704 309.109 66.848C309.253 66.984 309.325 67.168 309.325 67.4C309.325 67.616 309.253 67.796 309.109 67.94C308.973 68.076 308.809 68.144 308.617 68.144ZM311.353 65.096H313.753V62.876C313.753 62.668 313.761 62.42 313.777 62.132C313.793 61.844 313.805 61.6 313.813 61.4H313.765C313.669 61.584 313.569 61.764 313.465 61.94C313.361 62.116 313.253 62.296 313.141 62.48L311.353 65.096ZM313.753 68V65.888H310.309V65.24L313.585 60.344H314.689V65.096H315.733V65.888H314.689V68H313.753ZM317.318 65.096H319.718V62.876C319.718 62.668 319.726 62.42 319.742 62.132C319.758 61.844 319.77 61.6 319.778 61.4H319.73C319.634 61.584 319.534 61.764 319.43 61.94C319.326 62.116 319.218 62.296 319.106 62.48L317.318 65.096ZM319.718 68V65.888H316.274V65.24L319.55 60.344H320.654V65.096H321.698V65.888H320.654V68H319.718ZM324.867 68.144C324.259 68.144 323.751 68.036 323.343 67.82C322.935 67.596 322.603 67.344 322.347 67.064L322.851 66.416C323.083 66.656 323.355 66.868 323.667 67.052C323.979 67.236 324.359 67.328 324.807 67.328C325.271 67.328 325.651 67.2 325.947 66.944C326.243 66.688 326.391 66.348 326.391 65.924C326.391 65.62 326.311 65.356 326.151 65.132C325.999 64.9 325.743 64.72 325.383 64.592C325.031 64.464 324.551 64.4 323.943 64.4V63.644C324.487 63.644 324.915 63.58 325.227 63.452C325.547 63.324 325.775 63.152 325.911 62.936C326.047 62.72 326.115 62.48 326.115 62.216C326.115 61.84 325.995 61.544 325.755 61.328C325.523 61.112 325.203 61.004 324.795 61.004C324.475 61.004 324.179 61.076 323.907 61.22C323.643 61.364 323.395 61.552 323.163 61.784L322.635 61.16C322.931 60.88 323.259 60.652 323.619 60.476C323.979 60.292 324.383 60.2 324.831 60.2C325.495 60.2 326.043 60.372 326.475 60.716C326.907 61.052 327.123 61.528 327.123 62.144C327.123 62.608 326.995 62.988 326.739 63.284C326.483 63.58 326.147 63.808 325.731 63.968V64.016C326.195 64.12 326.587 64.34 326.907 64.676C327.227 65.004 327.387 65.432 327.387 65.96C327.387 66.408 327.275 66.796 327.051 67.124C326.827 67.452 326.523 67.704 326.139 67.88C325.763 68.056 325.339 68.144 324.867 68.144Z" fill="black"/>
<path d="M205 84H323" stroke="#F7931E" stroke-width="2"/>
<path d="M328 83.9995C328 83.9995 318 89 318 89L319.999 83.9995L318 79C318 79 328 83.9995 328 83.9995Z" fill="#F7931E"/>
<path d="M200 84.0005C200 84.0005 210 79 210 79L208.001 84.0005L210 89C210 89 200 84.0005 200 84.0005Z" fill="#F7931E"/>
<path opacity="0.5" d="M339 124L493 124" stroke="#9A9FAF" stroke-width="2" stroke-dasharray="4 4"/>
<path d="M176.995 88V87.184H178.747V81.544H177.355V80.908C177.707 80.844 178.011 80.768 178.267 80.68C178.531 80.584 178.767 80.472 178.975 80.344H179.731V87.184H181.315V88H176.995ZM183.512 88.144C183.312 88.144 183.14 88.076 182.996 87.94C182.86 87.796 182.792 87.616 182.792 87.4C182.792 87.168 182.86 86.984 182.996 86.848C183.14 86.704 183.312 86.632 183.512 86.632C183.704 86.632 183.868 86.704 184.004 86.848C184.148 86.984 184.22 87.168 184.22 87.4C184.22 87.616 184.148 87.796 184.004 87.94C183.868 88.076 183.704 88.144 183.512 88.144Z" fill="black"/>
<path d="M176.527 128V127.412C177.295 126.644 177.947 125.972 178.483 125.396C179.019 124.812 179.427 124.288 179.707 123.824C179.987 123.352 180.127 122.912 180.127 122.504C180.127 122.064 180.007 121.704 179.767 121.424C179.527 121.144 179.163 121.004 178.675 121.004C178.355 121.004 178.059 121.096 177.787 121.28C177.515 121.456 177.267 121.672 177.043 121.928L176.479 121.364C176.799 121.012 177.139 120.732 177.499 120.524C177.867 120.308 178.299 120.2 178.795 120.2C179.507 120.2 180.067 120.408 180.475 120.824C180.883 121.232 181.087 121.776 181.087 122.456C181.087 122.936 180.951 123.424 180.679 123.92C180.415 124.408 180.047 124.924 179.575 125.468C179.111 126.004 178.575 126.588 177.967 127.22C178.175 127.204 178.391 127.188 178.615 127.172C178.839 127.156 179.051 127.148 179.251 127.148H181.471V128H176.527ZM183.512 128.144C183.312 128.144 183.14 128.076 182.996 127.94C182.86 127.796 182.792 127.616 182.792 127.4C182.792 127.168 182.86 126.984 182.996 126.848C183.14 126.704 183.312 126.632 183.512 126.632C183.704 126.632 183.868 126.704 184.004 126.848C184.148 126.984 184.22 127.168 184.22 127.4C184.22 127.616 184.148 127.796 184.004 127.94C183.868 128.076 183.704 128.144 183.512 128.144Z" fill="black"/>
</svg>
