<svg width="832" height="272" viewBox="0 0 832 272" fill="none" xmlns="http://www.w3.org/2000/svg">
<path d="M133 128H691" stroke="#F7931E" stroke-width="2"/>
<path d="M696 127.999C696 127.999 686 133 686 133L687.999 127.999L686 123C686 123 696 127.999 696 127.999Z" fill="#F7931E"/>
<path d="M128 128.001C128 128.001 138 123 138 123L136.001 128.001L138 133C138 133 128 128.001 128 128.001Z" fill="#F7931E"/>
<path d="M425.078 66V57.456H426.062V59.784L426.026 60.984C426.306 60.72 426.598 60.496 426.902 60.312C427.214 60.12 427.57 60.024 427.97 60.024C428.586 60.024 429.034 60.22 429.314 60.612C429.602 60.996 429.746 61.56 429.746 62.304V66H428.762V62.436C428.762 61.892 428.674 61.496 428.498 61.248C428.322 61 428.042 60.876 427.658 60.876C427.362 60.876 427.094 60.952 426.854 61.104C426.622 61.256 426.358 61.48 426.062 61.776V66H425.078ZM433.441 66.144C432.817 66.144 432.381 65.964 432.133 65.604C431.893 65.244 431.773 64.776 431.773 64.2V60.972H430.909V60.228L431.821 60.168L431.941 58.536H432.769V60.168H434.341V60.972H432.769V64.212C432.769 64.572 432.833 64.852 432.961 65.052C433.097 65.244 433.333 65.34 433.669 65.34C433.773 65.34 433.885 65.324 434.005 65.292C434.125 65.252 434.233 65.216 434.329 65.184L434.521 65.928C434.361 65.984 434.185 66.032 433.993 66.072C433.809 66.12 433.625 66.144 433.441 66.144ZM437.261 66.144C436.637 66.144 436.201 65.964 435.953 65.604C435.713 65.244 435.593 64.776 435.593 64.2V60.972H434.729V60.228L435.641 60.168L435.761 58.536H436.589V60.168H438.161V60.972H436.589V64.212C436.589 64.572 436.653 64.852 436.781 65.052C436.917 65.244 437.153 65.34 437.489 65.34C437.593 65.34 437.705 65.324 437.825 65.292C437.945 65.252 438.053 65.216 438.149 65.184L438.341 65.928C438.181 65.984 438.005 66.032 437.813 66.072C437.629 66.12 437.445 66.144 437.261 66.144ZM439.48 68.46V60.168H440.296L440.38 60.84H440.416C440.68 60.616 440.968 60.424 441.28 60.264C441.6 60.104 441.932 60.024 442.276 60.024C443.028 60.024 443.6 60.296 443.992 60.84C444.384 61.376 444.58 62.096 444.58 63C444.58 63.656 444.46 64.22 444.22 64.692C443.988 65.164 443.68 65.524 443.296 65.772C442.92 66.02 442.508 66.144 442.06 66.144C441.788 66.144 441.516 66.084 441.244 65.964C440.98 65.844 440.712 65.68 440.44 65.472L440.464 66.492V68.46H439.48ZM441.892 65.316C442.372 65.316 442.768 65.112 443.08 64.704C443.4 64.288 443.56 63.72 443.56 63C443.56 62.36 443.44 61.844 443.2 61.452C442.968 61.052 442.576 60.852 442.024 60.852C441.776 60.852 441.524 60.92 441.268 61.056C441.02 61.192 440.752 61.388 440.464 61.644V64.704C440.728 64.928 440.984 65.088 441.232 65.184C441.48 65.272 441.7 65.316 441.892 65.316ZM446.652 61.812C446.452 61.812 446.28 61.744 446.136 61.608C446 61.464 445.932 61.284 445.932 61.068C445.932 60.836 446 60.652 446.136 60.516C446.28 60.372 446.452 60.3 446.652 60.3C446.844 60.3 447.008 60.372 447.144 60.516C447.288 60.652 447.36 60.836 447.36 61.068C447.36 61.284 447.288 61.464 447.144 61.608C447.008 61.744 446.844 61.812 446.652 61.812ZM446.652 66.144C446.452 66.144 446.28 66.076 446.136 65.94C446 65.796 445.932 65.616 445.932 65.4C445.932 65.168 446 64.984 446.136 64.848C446.28 64.704 446.452 64.632 446.652 64.632C446.844 64.632 447.008 64.704 447.144 64.848C447.288 64.984 447.36 65.168 447.36 65.4C447.36 65.616 447.288 65.796 447.144 65.94C447.008 66.076 446.844 66.144 446.652 66.144ZM450.949 66.144C450.341 66.144 449.837 66.036 449.437 65.82C449.037 65.604 448.705 65.364 448.441 65.1L448.921 64.452C449.153 64.676 449.421 64.88 449.725 65.064C450.029 65.24 450.405 65.328 450.853 65.328C451.325 65.328 451.721 65.172 452.041 64.86C452.369 64.54 452.533 64.112 452.533 63.576C452.533 63.048 452.385 62.636 452.089 62.34C451.793 62.044 451.397 61.896 450.901 61.896C450.637 61.896 450.409 61.936 450.217 62.016C450.033 62.096 449.825 62.212 449.593 62.364L449.065 62.028L449.317 58.344H453.145V59.196H450.181L449.977 61.464C450.161 61.368 450.345 61.292 450.529 61.236C450.713 61.18 450.921 61.152 451.153 61.152C451.593 61.152 451.989 61.24 452.341 61.416C452.701 61.584 452.989 61.844 453.205 62.196C453.421 62.548 453.529 63 453.529 63.552C453.529 64.104 453.405 64.576 453.157 64.968C452.917 65.352 452.601 65.644 452.209 65.844C451.817 66.044 451.397 66.144 450.949 66.144ZM457.093 66.144C456.325 66.144 455.721 65.8 455.281 65.112C454.849 64.416 454.633 63.428 454.633 62.148C454.633 60.86 454.849 59.88 455.281 59.208C455.721 58.536 456.325 58.2 457.093 58.2C457.853 58.2 458.449 58.536 458.881 59.208C459.321 59.88 459.541 60.86 459.541 62.148C459.541 63.428 459.321 64.416 458.881 65.112C458.449 65.8 457.853 66.144 457.093 66.144ZM457.093 65.352C457.541 65.352 457.901 65.1 458.173 64.596C458.445 64.084 458.581 63.268 458.581 62.148C458.581 61.028 458.445 60.224 458.173 59.736C457.901 59.24 457.541 58.992 457.093 58.992C456.645 58.992 456.281 59.24 456.001 59.736C455.729 60.224 455.593 61.028 455.593 62.148C455.593 63.268 455.729 64.084 456.001 64.596C456.281 65.1 456.645 65.352 457.093 65.352ZM463.058 66.144C462.29 66.144 461.686 65.8 461.246 65.112C460.814 64.416 460.598 63.428 460.598 62.148C460.598 60.86 460.814 59.88 461.246 59.208C461.686 58.536 462.29 58.2 463.058 58.2C463.818 58.2 464.414 58.536 464.846 59.208C465.286 59.88 465.506 60.86 465.506 62.148C465.506 63.428 465.286 64.416 464.846 65.112C464.414 65.8 463.818 66.144 463.058 66.144ZM463.058 65.352C463.506 65.352 463.866 65.1 464.138 64.596C464.41 64.084 464.546 63.268 464.546 62.148C464.546 61.028 464.41 60.224 464.138 59.736C463.866 59.24 463.506 58.992 463.058 58.992C462.61 58.992 462.246 59.24 461.966 59.736C461.694 60.224 461.558 61.028 461.558 62.148C461.558 63.268 461.694 64.084 461.966 64.596C462.246 65.1 462.61 65.352 463.058 65.352ZM469.023 66.144C468.255 66.144 467.651 65.8 467.211 65.112C466.779 64.416 466.563 63.428 466.563 62.148C466.563 60.86 466.779 59.88 467.211 59.208C467.651 58.536 468.255 58.2 469.023 58.2C469.783 58.2 470.379 58.536 470.811 59.208C471.251 59.88 471.471 60.86 471.471 62.148C471.471 63.428 471.251 64.416 470.811 65.112C470.379 65.8 469.783 66.144 469.023 66.144ZM469.023 65.352C469.471 65.352 469.831 65.1 470.103 64.596C470.375 64.084 470.511 63.268 470.511 62.148C470.511 61.028 470.375 60.224 470.103 59.736C469.831 59.24 469.471 58.992 469.023 58.992C468.575 58.992 468.211 59.24 467.931 59.736C467.659 60.224 467.523 61.028 467.523 62.148C467.523 63.268 467.659 64.084 467.931 64.596C468.211 65.1 468.575 65.352 469.023 65.352Z" fill="black"/>
<rect x="704" y="48" width="128" height="176" rx="3" fill="#ECEDF2"/>
<path d="M735.559 91V79.228H737.647V89.236H742.543V91H735.559ZM747.804 91.216C747.072 91.216 746.388 91.036 745.752 90.676C745.116 90.304 744.6 89.776 744.204 89.092C743.808 88.396 743.61 87.562 743.61 86.59C743.61 85.606 743.808 84.772 744.204 84.088C744.6 83.392 745.116 82.864 745.752 82.504C746.388 82.132 747.072 81.946 747.804 81.946C748.548 81.946 749.238 82.132 749.874 82.504C750.51 82.864 751.026 83.392 751.422 84.088C751.818 84.772 752.016 85.606 752.016 86.59C752.016 87.562 751.818 88.396 751.422 89.092C751.026 89.776 750.51 90.304 749.874 90.676C749.238 91.036 748.548 91.216 747.804 91.216ZM747.804 89.524C748.452 89.524 748.962 89.254 749.334 88.714C749.706 88.174 749.892 87.466 749.892 86.59C749.892 85.702 749.706 84.988 749.334 84.448C748.962 83.908 748.452 83.638 747.804 83.638C747.156 83.638 746.646 83.908 746.274 84.448C745.914 84.988 745.734 85.702 745.734 86.59C745.734 87.466 745.914 88.174 746.274 88.714C746.646 89.254 747.156 89.524 747.804 89.524ZM757.143 94.906C756.447 94.906 755.817 94.822 755.253 94.654C754.701 94.486 754.263 94.228 753.939 93.88C753.627 93.544 753.471 93.118 753.471 92.602C753.471 91.87 753.891 91.24 754.731 90.712V90.64C754.503 90.496 754.311 90.304 754.155 90.064C754.011 89.824 753.939 89.524 753.939 89.164C753.939 88.816 754.035 88.504 754.227 88.228C754.431 87.94 754.659 87.706 754.911 87.526V87.454C754.611 87.226 754.341 86.908 754.101 86.5C753.873 86.092 753.759 85.63 753.759 85.114C753.759 84.43 753.921 83.854 754.245 83.386C754.569 82.918 754.995 82.564 755.523 82.324C756.063 82.072 756.639 81.946 757.251 81.946C757.491 81.946 757.719 81.97 757.935 82.018C758.163 82.054 758.367 82.102 758.547 82.162H761.715V83.692H760.095C760.239 83.86 760.359 84.076 760.455 84.34C760.551 84.592 760.599 84.874 760.599 85.186C760.599 85.834 760.449 86.386 760.149 86.842C759.849 87.286 759.447 87.622 758.943 87.85C758.439 88.078 757.875 88.192 757.251 88.192C757.059 88.192 756.861 88.174 756.657 88.138C756.453 88.102 756.249 88.042 756.045 87.958C755.913 88.078 755.805 88.198 755.721 88.318C755.649 88.438 755.613 88.6 755.613 88.804C755.613 89.056 755.715 89.254 755.919 89.398C756.135 89.542 756.513 89.614 757.053 89.614H758.619C759.687 89.614 760.491 89.788 761.031 90.136C761.583 90.472 761.859 91.024 761.859 91.792C761.859 92.368 761.667 92.89 761.283 93.358C760.899 93.838 760.353 94.216 759.645 94.492C758.937 94.768 758.103 94.906 757.143 94.906ZM757.251 86.896C757.671 86.896 758.031 86.74 758.331 86.428C758.631 86.116 758.781 85.678 758.781 85.114C758.781 84.562 758.631 84.136 758.331 83.836C758.043 83.524 757.683 83.368 757.251 83.368C756.819 83.368 756.453 83.518 756.153 83.818C755.853 84.118 755.703 84.55 755.703 85.114C755.703 85.678 755.853 86.116 756.153 86.428C756.453 86.74 756.819 86.896 757.251 86.896ZM757.467 93.556C758.175 93.556 758.751 93.412 759.195 93.124C759.639 92.836 759.861 92.506 759.861 92.134C759.861 91.786 759.723 91.552 759.447 91.432C759.183 91.312 758.799 91.252 758.295 91.252H757.089C756.609 91.252 756.207 91.21 755.883 91.126C755.427 91.474 755.199 91.864 755.199 92.296C755.199 92.692 755.403 92.998 755.811 93.214C756.219 93.442 756.771 93.556 757.467 93.556ZM763.417 91V82.162H765.487V91H763.417ZM764.461 80.614C764.089 80.614 763.789 80.506 763.561 80.29C763.333 80.074 763.219 79.786 763.219 79.426C763.219 79.078 763.333 78.796 763.561 78.58C763.789 78.364 764.089 78.256 764.461 78.256C764.833 78.256 765.133 78.364 765.361 78.58C765.589 78.796 765.703 79.078 765.703 79.426C765.703 79.786 765.589 80.074 765.361 80.29C765.133 80.506 764.833 80.614 764.461 80.614ZM768.127 91V82.162H769.837L769.981 83.35H770.053C770.449 82.966 770.881 82.636 771.349 82.36C771.817 82.084 772.351 81.946 772.951 81.946C773.899 81.946 774.589 82.252 775.021 82.864C775.453 83.476 775.669 84.34 775.669 85.456V91H773.599V85.726C773.599 84.994 773.491 84.478 773.275 84.178C773.059 83.878 772.705 83.728 772.213 83.728C771.829 83.728 771.487 83.824 771.187 84.016C770.899 84.196 770.569 84.466 770.197 84.826V91H768.127ZM781.818 91.216C781.086 91.216 780.402 91.036 779.766 90.676C779.13 90.304 778.614 89.776 778.218 89.092C777.822 88.396 777.624 87.562 777.624 86.59C777.624 85.606 777.822 84.772 778.218 84.088C778.614 83.392 779.13 82.864 779.766 82.504C780.402 82.132 781.086 81.946 781.818 81.946C782.562 81.946 783.252 82.132 783.888 82.504C784.524 82.864 785.04 83.392 785.436 84.088C785.832 84.772 786.03 85.606 786.03 86.59C786.03 87.562 785.832 88.396 785.436 89.092C785.04 89.776 784.524 90.304 783.888 90.676C783.252 91.036 782.562 91.216 781.818 91.216ZM781.818 89.524C782.466 89.524 782.976 89.254 783.348 88.714C783.72 88.174 783.906 87.466 783.906 86.59C783.906 85.702 783.72 84.988 783.348 84.448C782.976 83.908 782.466 83.638 781.818 83.638C781.17 83.638 780.66 83.908 780.288 84.448C779.928 84.988 779.748 85.702 779.748 86.59C779.748 87.466 779.928 88.174 780.288 88.714C780.66 89.254 781.17 89.524 781.818 89.524ZM788.079 91V82.162H789.789L789.933 83.368H790.005C790.377 82.972 790.779 82.636 791.211 82.36C791.655 82.084 792.153 81.946 792.705 81.946C793.353 81.946 793.869 82.09 794.253 82.378C794.649 82.654 794.949 83.038 795.153 83.53C795.573 83.074 796.011 82.696 796.467 82.396C796.935 82.096 797.445 81.946 797.997 81.946C798.933 81.946 799.623 82.252 800.067 82.864C800.511 83.476 800.733 84.34 800.733 85.456V91H798.645V85.726C798.645 84.994 798.531 84.478 798.303 84.178C798.087 83.878 797.751 83.728 797.295 83.728C796.743 83.728 796.125 84.094 795.441 84.826V91H793.371V85.726C793.371 84.994 793.257 84.478 793.029 84.178C792.813 83.878 792.471 83.728 792.003 83.728C791.451 83.728 790.833 84.094 790.149 84.826V91H788.079ZM747.646 114.216C746.854 114.216 746.086 114.066 745.342 113.766C744.61 113.466 743.962 113.04 743.398 112.488L744.622 111.066C745.042 111.462 745.522 111.786 746.062 112.038C746.602 112.278 747.142 112.398 747.682 112.398C748.354 112.398 748.864 112.26 749.212 111.984C749.56 111.708 749.734 111.342 749.734 110.886C749.734 110.394 749.56 110.04 749.212 109.824C748.876 109.608 748.444 109.386 747.916 109.158L746.296 108.456C745.912 108.288 745.534 108.072 745.162 107.808C744.802 107.544 744.502 107.208 744.262 106.8C744.034 106.392 743.92 105.9 743.92 105.324C743.92 104.7 744.088 104.142 744.424 103.65C744.772 103.146 745.24 102.75 745.828 102.462C746.428 102.162 747.112 102.012 747.88 102.012C748.564 102.012 749.224 102.15 749.86 102.426C750.496 102.69 751.042 103.05 751.498 103.506L750.436 104.838C750.064 104.526 749.668 104.28 749.248 104.1C748.84 103.92 748.384 103.83 747.88 103.83C747.328 103.83 746.878 103.956 746.53 104.208C746.194 104.448 746.026 104.784 746.026 105.216C746.026 105.516 746.11 105.768 746.278 105.972C746.458 106.164 746.692 106.332 746.98 106.476C747.268 106.608 747.574 106.74 747.898 106.872L749.5 107.538C750.196 107.838 750.766 108.234 751.21 108.726C751.654 109.206 751.876 109.872 751.876 110.724C751.876 111.36 751.708 111.942 751.372 112.47C751.036 112.998 750.55 113.424 749.914 113.748C749.29 114.06 748.534 114.216 747.646 114.216ZM757.616 114.216C756.8 114.216 756.062 114.036 755.402 113.676C754.742 113.304 754.22 112.776 753.836 112.092C753.452 111.396 753.26 110.562 753.26 109.59C753.26 108.63 753.452 107.802 753.836 107.106C754.232 106.41 754.742 105.876 755.366 105.504C755.99 105.132 756.644 104.946 757.328 104.946C758.132 104.946 758.804 105.126 759.344 105.486C759.884 105.834 760.292 106.326 760.568 106.962C760.844 107.586 760.982 108.312 760.982 109.14C760.982 109.572 760.952 109.908 760.892 110.148H755.276C755.372 110.928 755.654 111.534 756.122 111.966C756.59 112.398 757.178 112.614 757.886 112.614C758.27 112.614 758.624 112.56 758.948 112.452C759.284 112.332 759.614 112.17 759.938 111.966L760.64 113.262C760.22 113.538 759.752 113.766 759.236 113.946C758.72 114.126 758.18 114.216 757.616 114.216ZM755.258 108.744H759.182C759.182 108.06 759.032 107.526 758.732 107.142C758.432 106.746 757.982 106.548 757.382 106.548C756.866 106.548 756.404 106.74 755.996 107.124C755.6 107.496 755.354 108.036 755.258 108.744ZM762.96 114V105.162H764.67L764.814 106.728H764.886C765.198 106.152 765.576 105.714 766.02 105.414C766.464 105.102 766.92 104.946 767.388 104.946C767.808 104.946 768.144 105.006 768.396 105.126L768.036 106.926C767.88 106.878 767.736 106.842 767.604 106.818C767.472 106.794 767.31 106.782 767.118 106.782C766.77 106.782 766.404 106.92 766.02 107.196C765.636 107.46 765.306 107.928 765.03 108.6V114H762.96ZM771.936 114L768.858 105.162H770.964L772.368 109.752C772.488 110.184 772.608 110.622 772.728 111.066C772.86 111.51 772.986 111.96 773.106 112.416H773.178C773.31 111.96 773.436 111.51 773.556 111.066C773.688 110.622 773.814 110.184 773.934 109.752L775.338 105.162H777.336L774.33 114H771.936ZM782.542 114.216C781.726 114.216 780.988 114.036 780.328 113.676C779.668 113.304 779.146 112.776 778.762 112.092C778.378 111.396 778.186 110.562 778.186 109.59C778.186 108.63 778.378 107.802 778.762 107.106C779.158 106.41 779.668 105.876 780.292 105.504C780.916 105.132 781.57 104.946 782.254 104.946C783.058 104.946 783.73 105.126 784.27 105.486C784.81 105.834 785.218 106.326 785.494 106.962C785.77 107.586 785.908 108.312 785.908 109.14C785.908 109.572 785.878 109.908 785.818 110.148H780.202C780.298 110.928 780.58 111.534 781.048 111.966C781.516 112.398 782.104 112.614 782.812 112.614C783.196 112.614 783.55 112.56 783.874 112.452C784.21 112.332 784.54 112.17 784.864 111.966L785.566 113.262C785.146 113.538 784.678 113.766 784.162 113.946C783.646 114.126 783.106 114.216 782.542 114.216ZM780.184 108.744H784.108C784.108 108.06 783.958 107.526 783.658 107.142C783.358 106.746 782.908 106.548 782.308 106.548C781.792 106.548 781.33 106.74 780.922 107.124C780.526 107.496 780.28 108.036 780.184 108.744ZM787.885 114V105.162H789.595L789.739 106.728H789.811C790.123 106.152 790.501 105.714 790.945 105.414C791.389 105.102 791.845 104.946 792.313 104.946C792.733 104.946 793.069 105.006 793.321 105.126L792.961 106.926C792.805 106.878 792.661 106.842 792.529 106.818C792.397 106.794 792.235 106.782 792.043 106.782C791.695 106.782 791.329 106.92 790.945 107.196C790.561 107.46 790.231 107.928 789.955 108.6V114H787.885Z" fill="#333333"/>
<path d="M763.943 152.515L762.333 146.426H763.209L763.972 149.505C764.154 150.262 764.324 151.019 764.438 151.609C764.546 151.001 764.746 150.273 764.962 149.494L765.815 146.426H766.674L767.46 149.511C767.636 150.233 767.807 150.955 767.909 151.592C768.04 150.927 768.216 150.25 768.421 149.494L769.258 146.426H770.105L768.29 152.509H767.454L766.646 149.344C766.469 148.69 766.328 148.025 766.225 147.354C766.099 148.027 765.934 148.692 765.73 149.344L764.825 152.509H763.96L763.943 152.515Z" fill="#00188F"/>
<path d="M772.347 146.907C772.35 146.998 772.327 147.087 772.283 147.166C772.239 147.244 772.175 147.309 772.097 147.354C772.016 147.403 771.923 147.428 771.829 147.428C771.735 147.428 771.643 147.403 771.562 147.354C771.482 147.311 771.416 147.247 771.372 147.167C771.327 147.089 771.306 146.998 771.312 146.907C771.311 146.842 771.324 146.778 771.351 146.718C771.377 146.659 771.416 146.606 771.465 146.563C771.514 146.517 771.571 146.481 771.633 146.457C771.696 146.434 771.763 146.423 771.829 146.426C771.966 146.421 772.099 146.47 772.199 146.563C772.246 146.607 772.284 146.66 772.309 146.72C772.335 146.778 772.348 146.843 772.347 146.907ZM771.437 152.509V148.146H772.267V152.509H771.437Z" fill="#00188F"/>
<path d="M774.048 149.327C774.048 148.868 774.048 148.507 774.009 148.146H774.742L774.788 148.862H774.817C774.975 148.604 775.199 148.393 775.464 148.25C775.73 148.107 776.029 148.037 776.33 148.048C776.967 148.048 777.952 148.409 777.952 149.906V152.515H777.127V149.992C777.127 149.287 776.842 148.696 776.063 148.696C775.812 148.694 775.567 148.771 775.363 148.917C775.158 149.064 775.005 149.271 774.925 149.511C774.884 149.628 774.863 149.752 774.862 149.878V152.515H774.037L774.048 149.327Z" fill="#00188F"/>
<path d="M783.266 146.099V151.391C783.266 151.781 783.266 152.217 783.306 152.538H782.561L782.521 151.781C782.357 152.051 782.123 152.27 781.844 152.415C781.565 152.56 781.252 152.624 780.939 152.601C780.371 152.572 779.837 152.318 779.454 151.896C779.27 151.694 779.132 151.453 779.048 151.192C778.965 150.931 778.938 150.654 778.97 150.382C778.933 150.096 778.958 149.804 779.043 149.527C779.129 149.251 779.273 148.997 779.465 148.782C779.868 148.334 780.43 148.064 781.03 148.031C781.299 148.011 781.568 148.062 781.811 148.179C782.055 148.295 782.264 148.474 782.418 148.696V146.087L783.266 146.099ZM782.436 149.924C782.436 149.81 782.424 149.696 782.401 149.585C782.33 149.319 782.173 149.084 781.954 148.917C781.736 148.751 781.469 148.663 781.195 148.667C780.33 148.667 779.812 149.39 779.812 150.353C779.812 151.317 780.273 151.976 781.178 151.976C781.458 151.978 781.731 151.884 781.952 151.71C782.172 151.537 782.329 151.293 782.396 151.019C782.426 150.908 782.439 150.794 782.436 150.68V149.924Z" fill="#00188F"/>
<path d="M788.859 150.308C788.886 150.609 788.846 150.913 788.743 151.198C788.639 151.482 788.475 151.74 788.262 151.953C788.038 152.177 787.771 152.353 787.477 152.469C787.184 152.585 786.87 152.64 786.555 152.629C786.253 152.634 785.955 152.577 785.675 152.464C785.396 152.351 785.142 152.183 784.927 151.97C784.725 151.762 784.57 151.512 784.472 151.239C784.374 150.964 784.336 150.672 784.358 150.382C784.334 150.08 784.375 149.777 784.478 149.493C784.581 149.209 784.744 148.951 784.956 148.736C785.18 148.513 785.447 148.339 785.741 148.224C786.034 148.108 786.348 148.055 786.663 148.065C786.965 148.057 787.265 148.11 787.545 148.221C787.826 148.333 788.081 148.5 788.296 148.713C788.5 148.921 788.656 149.172 788.754 149.447C788.851 149.723 788.887 150.016 788.859 150.308ZM785.223 150.354C785.223 151.311 785.792 152.033 786.612 152.033C787.431 152.033 788.017 151.322 788.017 150.313C788.017 149.574 787.624 148.644 786.629 148.644C785.633 148.644 785.223 149.51 785.223 150.336V150.354Z" fill="#00188F"/>
<path d="M790.384 148.146L791.004 150.365C791.13 150.847 791.26 151.305 791.346 151.758C791.448 151.317 791.602 150.841 791.755 150.371L792.506 148.146H793.206L793.923 150.325C794.083 150.847 794.219 151.305 794.327 151.752C794.421 151.274 794.539 150.802 794.68 150.336L795.334 148.146H796.159L794.675 152.503H793.917L793.217 150.422C793.057 149.95 792.922 149.47 792.814 148.983C792.701 149.472 792.56 149.955 792.393 150.428L791.653 152.503H790.891L789.508 148.146H790.384Z" fill="#00188F"/>
<path d="M797.189 151.706C797.527 151.897 797.906 152.004 798.293 152.016C798.908 152.016 799.186 151.729 799.186 151.362C799.186 150.996 798.942 150.789 798.333 150.566C797.502 150.279 797.109 149.849 797.115 149.327C797.125 149.139 797.175 148.955 797.261 148.788C797.347 148.62 797.468 148.474 797.616 148.358C797.768 148.236 797.942 148.146 798.128 148.093C798.315 148.04 798.51 148.024 798.703 148.048C799.099 148.037 799.491 148.13 799.841 148.318L799.63 148.891C799.344 148.725 799.021 148.638 798.691 148.639C798.197 148.639 797.923 148.908 797.923 149.212C797.923 149.516 798.197 149.734 798.794 149.958C799.585 150.239 800 150.617 800 151.271C800 152.045 799.363 152.589 798.293 152.589C797.845 152.595 797.404 152.488 797.007 152.28L797.189 151.706Z" fill="#00188F"/>
<path d="M762.39 160.926C762.84 161.181 763.347 161.317 763.864 161.322C764.711 161.322 765.206 160.898 765.206 160.284C765.206 159.671 764.859 159.39 763.994 159.08C762.953 158.725 762.287 158.203 762.287 157.36C762.302 157.116 762.369 156.877 762.483 156.66C762.597 156.444 762.755 156.254 762.947 156.104C763.145 155.947 763.371 155.831 763.613 155.764C763.856 155.696 764.109 155.677 764.359 155.709C764.845 155.692 765.329 155.792 765.77 156.001L765.542 156.649C765.17 156.453 764.756 156.352 764.336 156.357C763.454 156.357 763.124 156.855 763.124 157.268C763.124 157.842 763.511 158.117 764.398 158.415C765.479 158.817 766.026 159.316 766.026 160.204C766.026 161.093 765.303 161.959 763.789 161.959C763.221 161.968 762.659 161.832 762.156 161.564L762.39 160.926Z" fill="#00188F"/>
<path d="M767.693 159.843C767.674 160.047 767.702 160.253 767.774 160.444C767.846 160.636 767.96 160.809 768.108 160.949C768.259 161.093 768.439 161.204 768.634 161.274C768.83 161.344 769.039 161.372 769.246 161.356C769.681 161.369 770.115 161.293 770.521 161.133L770.663 161.707C770.178 161.901 769.659 161.994 769.138 161.982C768.834 162.001 768.53 161.957 768.244 161.853C767.958 161.748 767.697 161.585 767.477 161.374C767.27 161.167 767.112 160.917 767.014 160.641C766.916 160.366 766.879 160.071 766.907 159.78C766.874 159.485 766.905 159.186 766.997 158.903C767.09 158.622 767.241 158.363 767.442 158.146C767.652 157.922 767.904 157.742 768.183 157.618C768.463 157.494 768.764 157.427 769.07 157.423C769.338 157.424 769.603 157.48 769.849 157.589C770.094 157.697 770.315 157.856 770.498 158.054C770.674 158.243 770.807 158.469 770.887 158.716C770.967 158.963 770.991 159.224 770.959 159.482C770.973 159.606 770.973 159.73 770.959 159.854L767.693 159.843ZM770.134 159.27C770.156 159.111 770.143 158.949 770.097 158.795C770.051 158.642 769.972 158.501 769.866 158.381C769.755 158.258 769.619 158.16 769.469 158.091C769.318 158.023 769.155 157.988 768.99 157.985C768.654 157.996 768.336 158.135 768.097 158.373C767.859 158.611 767.718 158.931 767.704 159.27H770.134Z" fill="#00188F"/>
<path d="M772.262 158.874C772.262 158.364 772.262 157.922 772.228 157.515H772.956L772.99 158.37H773.019C773.108 158.1 773.277 157.865 773.503 157.695C773.729 157.525 774 157.429 774.282 157.418C774.357 157.406 774.434 157.406 774.509 157.418V158.163C774.415 158.152 774.319 158.152 774.225 158.163C773.944 158.161 773.673 158.264 773.463 158.451C773.253 158.638 773.119 158.897 773.087 159.178C773.064 159.3 773.052 159.426 773.053 159.551V161.879H772.222V158.874H772.262Z" fill="#00188F"/>
<path d="M776.205 157.515L777.104 159.963C777.257 160.37 777.377 160.732 777.491 161.111C777.593 160.749 777.724 160.382 777.872 159.963L778.765 157.515H779.636L777.832 161.879H777.035L775.283 157.515H776.205Z" fill="#00188F"/>
<path d="M780.95 159.843C780.932 160.047 780.959 160.253 781.031 160.444C781.103 160.636 781.218 160.809 781.366 160.949C781.517 161.093 781.696 161.204 781.892 161.274C782.088 161.344 782.296 161.372 782.504 161.356C782.939 161.369 783.373 161.293 783.778 161.133L783.926 161.707C783.44 161.901 782.919 161.994 782.396 161.982C782.093 162.001 781.789 161.957 781.504 161.852C781.219 161.748 780.959 161.585 780.74 161.374C780.526 161.171 780.361 160.922 780.257 160.646C780.153 160.37 780.111 160.074 780.136 159.78C780.107 159.482 780.142 159.181 780.24 158.899C780.339 158.617 780.498 158.359 780.705 158.146C780.915 157.922 781.167 157.742 781.446 157.618C781.726 157.494 782.027 157.427 782.333 157.423C782.6 157.424 782.864 157.481 783.109 157.59C783.353 157.698 783.574 157.856 783.755 158.054C783.932 158.243 784.065 158.469 784.145 158.716C784.226 158.962 784.252 159.224 784.222 159.482C784.222 159.606 784.21 159.732 784.188 159.854L780.95 159.843ZM783.391 159.27C783.414 159.111 783.403 158.949 783.356 158.795C783.31 158.641 783.23 158.5 783.124 158.381C783.012 158.258 782.877 158.16 782.726 158.091C782.576 158.023 782.413 157.988 782.248 157.985C781.913 157.998 781.595 158.137 781.358 158.375C781.121 158.613 780.981 158.933 780.967 159.27H783.391Z" fill="#00188F"/>
<path d="M785.587 158.874C785.587 158.364 785.587 157.922 785.547 157.515H786.282V158.37H786.316C786.405 158.099 786.575 157.863 786.802 157.692C787.029 157.522 787.302 157.426 787.585 157.417C787.662 157.406 787.74 157.406 787.818 157.417V158.163C787.723 158.154 787.628 158.154 787.533 158.163C787.253 158.161 786.982 158.263 786.772 158.451C786.561 158.638 786.428 158.897 786.396 159.178C786.372 159.3 786.361 159.425 786.362 159.551V161.878H785.53V158.874H785.587Z" fill="#00188F"/>
<path d="M744.569 153.416V145.6L736 146.689V153.416H744.569Z" fill="#00188F"/>
<path d="M745.798 153.415H757.11V144L745.798 145.439V153.415Z" fill="#00188F"/>
<path d="M744.569 154.585H736V161.116L744.569 162.286V154.585Z" fill="#00188F"/>
<path d="M745.798 154.585V162.458L757.11 164V154.585H745.798Z" fill="#00188F"/>
<rect x="352" y="48" width="128" height="176" rx="3" fill="#ECEDF2"/>
<path d="M383.559 83V71.228H385.647V81.236H390.543V83H383.559ZM395.804 83.216C395.072 83.216 394.388 83.036 393.752 82.676C393.116 82.304 392.6 81.776 392.204 81.092C391.808 80.396 391.61 79.562 391.61 78.59C391.61 77.606 391.808 76.772 392.204 76.088C392.6 75.392 393.116 74.864 393.752 74.504C394.388 74.132 395.072 73.946 395.804 73.946C396.548 73.946 397.238 74.132 397.874 74.504C398.51 74.864 399.026 75.392 399.422 76.088C399.818 76.772 400.016 77.606 400.016 78.59C400.016 79.562 399.818 80.396 399.422 81.092C399.026 81.776 398.51 82.304 397.874 82.676C397.238 83.036 396.548 83.216 395.804 83.216ZM395.804 81.524C396.452 81.524 396.962 81.254 397.334 80.714C397.706 80.174 397.892 79.466 397.892 78.59C397.892 77.702 397.706 76.988 397.334 76.448C396.962 75.908 396.452 75.638 395.804 75.638C395.156 75.638 394.646 75.908 394.274 76.448C393.914 76.988 393.734 77.702 393.734 78.59C393.734 79.466 393.914 80.174 394.274 80.714C394.646 81.254 395.156 81.524 395.804 81.524ZM405.143 86.906C404.447 86.906 403.817 86.822 403.253 86.654C402.701 86.486 402.263 86.228 401.939 85.88C401.627 85.544 401.471 85.118 401.471 84.602C401.471 83.87 401.891 83.24 402.731 82.712V82.64C402.503 82.496 402.311 82.304 402.155 82.064C402.011 81.824 401.939 81.524 401.939 81.164C401.939 80.816 402.035 80.504 402.227 80.228C402.431 79.94 402.659 79.706 402.911 79.526V79.454C402.611 79.226 402.341 78.908 402.101 78.5C401.873 78.092 401.759 77.63 401.759 77.114C401.759 76.43 401.921 75.854 402.245 75.386C402.569 74.918 402.995 74.564 403.523 74.324C404.063 74.072 404.639 73.946 405.251 73.946C405.491 73.946 405.719 73.97 405.935 74.018C406.163 74.054 406.367 74.102 406.547 74.162H409.715V75.692H408.095C408.239 75.86 408.359 76.076 408.455 76.34C408.551 76.592 408.599 76.874 408.599 77.186C408.599 77.834 408.449 78.386 408.149 78.842C407.849 79.286 407.447 79.622 406.943 79.85C406.439 80.078 405.875 80.192 405.251 80.192C405.059 80.192 404.861 80.174 404.657 80.138C404.453 80.102 404.249 80.042 404.045 79.958C403.913 80.078 403.805 80.198 403.721 80.318C403.649 80.438 403.613 80.6 403.613 80.804C403.613 81.056 403.715 81.254 403.919 81.398C404.135 81.542 404.513 81.614 405.053 81.614H406.619C407.687 81.614 408.491 81.788 409.031 82.136C409.583 82.472 409.859 83.024 409.859 83.792C409.859 84.368 409.667 84.89 409.283 85.358C408.899 85.838 408.353 86.216 407.645 86.492C406.937 86.768 406.103 86.906 405.143 86.906ZM405.251 78.896C405.671 78.896 406.031 78.74 406.331 78.428C406.631 78.116 406.781 77.678 406.781 77.114C406.781 76.562 406.631 76.136 406.331 75.836C406.043 75.524 405.683 75.368 405.251 75.368C404.819 75.368 404.453 75.518 404.153 75.818C403.853 76.118 403.703 76.55 403.703 77.114C403.703 77.678 403.853 78.116 404.153 78.428C404.453 78.74 404.819 78.896 405.251 78.896ZM405.467 85.556C406.175 85.556 406.751 85.412 407.195 85.124C407.639 84.836 407.861 84.506 407.861 84.134C407.861 83.786 407.723 83.552 407.447 83.432C407.183 83.312 406.799 83.252 406.295 83.252H405.089C404.609 83.252 404.207 83.21 403.883 83.126C403.427 83.474 403.199 83.864 403.199 84.296C403.199 84.692 403.403 84.998 403.811 85.214C404.219 85.442 404.771 85.556 405.467 85.556ZM411.417 83V74.162H413.487V83H411.417ZM412.461 72.614C412.089 72.614 411.789 72.506 411.561 72.29C411.333 72.074 411.219 71.786 411.219 71.426C411.219 71.078 411.333 70.796 411.561 70.58C411.789 70.364 412.089 70.256 412.461 70.256C412.833 70.256 413.133 70.364 413.361 70.58C413.589 70.796 413.703 71.078 413.703 71.426C413.703 71.786 413.589 72.074 413.361 72.29C413.133 72.506 412.833 72.614 412.461 72.614ZM416.127 83V74.162H417.837L417.981 75.35H418.053C418.449 74.966 418.881 74.636 419.349 74.36C419.817 74.084 420.351 73.946 420.951 73.946C421.899 73.946 422.589 74.252 423.021 74.864C423.453 75.476 423.669 76.34 423.669 77.456V83H421.599V77.726C421.599 76.994 421.491 76.478 421.275 76.178C421.059 75.878 420.705 75.728 420.213 75.728C419.829 75.728 419.487 75.824 419.187 76.016C418.899 76.196 418.569 76.466 418.197 76.826V83H416.127ZM429.818 83.216C429.086 83.216 428.402 83.036 427.766 82.676C427.13 82.304 426.614 81.776 426.218 81.092C425.822 80.396 425.624 79.562 425.624 78.59C425.624 77.606 425.822 76.772 426.218 76.088C426.614 75.392 427.13 74.864 427.766 74.504C428.402 74.132 429.086 73.946 429.818 73.946C430.562 73.946 431.252 74.132 431.888 74.504C432.524 74.864 433.04 75.392 433.436 76.088C433.832 76.772 434.03 77.606 434.03 78.59C434.03 79.562 433.832 80.396 433.436 81.092C433.04 81.776 432.524 82.304 431.888 82.676C431.252 83.036 430.562 83.216 429.818 83.216ZM429.818 81.524C430.466 81.524 430.976 81.254 431.348 80.714C431.72 80.174 431.906 79.466 431.906 78.59C431.906 77.702 431.72 76.988 431.348 76.448C430.976 75.908 430.466 75.638 429.818 75.638C429.17 75.638 428.66 75.908 428.288 76.448C427.928 76.988 427.748 77.702 427.748 78.59C427.748 79.466 427.928 80.174 428.288 80.714C428.66 81.254 429.17 81.524 429.818 81.524ZM436.079 83V74.162H437.789L437.933 75.368H438.005C438.377 74.972 438.779 74.636 439.211 74.36C439.655 74.084 440.153 73.946 440.705 73.946C441.353 73.946 441.869 74.09 442.253 74.378C442.649 74.654 442.949 75.038 443.153 75.53C443.573 75.074 444.011 74.696 444.467 74.396C444.935 74.096 445.445 73.946 445.997 73.946C446.933 73.946 447.623 74.252 448.067 74.864C448.511 75.476 448.733 76.34 448.733 77.456V83H446.645V77.726C446.645 76.994 446.531 76.478 446.303 76.178C446.087 75.878 445.751 75.728 445.295 75.728C444.743 75.728 444.125 76.094 443.441 76.826V83H441.371V77.726C441.371 76.994 441.257 76.478 441.029 76.178C440.813 75.878 440.471 75.728 440.003 75.728C439.451 75.728 438.833 76.094 438.149 76.826V83H436.079ZM378.629 105V93.228H380.717V105H378.629ZM383.529 105V96.162H385.239L385.383 97.35H385.455C385.851 96.966 386.283 96.636 386.751 96.36C387.219 96.084 387.753 95.946 388.353 95.946C389.301 95.946 389.991 96.252 390.423 96.864C390.855 97.476 391.071 98.34 391.071 99.456V105H389.001V99.726C389.001 98.994 388.893 98.478 388.677 98.178C388.461 97.878 388.107 97.728 387.615 97.728C387.231 97.728 386.889 97.824 386.589 98.016C386.301 98.196 385.971 98.466 385.599 98.826V105H383.529ZM396.715 105.216C395.695 105.216 394.969 104.922 394.537 104.334C394.117 103.734 393.907 102.96 393.907 102.012V97.8H392.647V96.252L394.015 96.162L394.267 93.75H395.995V96.162H398.245V97.8H395.995V102.012C395.995 103.044 396.409 103.56 397.237 103.56C397.393 103.56 397.555 103.542 397.723 103.506C397.891 103.458 398.035 103.41 398.155 103.362L398.515 104.892C398.275 104.976 397.999 105.048 397.687 105.108C397.387 105.18 397.063 105.216 396.715 105.216ZM403.604 105.216C402.788 105.216 402.05 105.036 401.39 104.676C400.73 104.304 400.208 103.776 399.824 103.092C399.44 102.396 399.248 101.562 399.248 100.59C399.248 99.63 399.44 98.802 399.824 98.106C400.22 97.41 400.73 96.876 401.354 96.504C401.978 96.132 402.632 95.946 403.316 95.946C404.12 95.946 404.792 96.126 405.332 96.486C405.872 96.834 406.28 97.326 406.556 97.962C406.832 98.586 406.97 99.312 406.97 100.14C406.97 100.572 406.94 100.908 406.88 101.148H401.264C401.36 101.928 401.642 102.534 402.11 102.966C402.578 103.398 403.166 103.614 403.874 103.614C404.258 103.614 404.612 103.56 404.936 103.452C405.272 103.332 405.602 103.17 405.926 102.966L406.628 104.262C406.208 104.538 405.74 104.766 405.224 104.946C404.708 105.126 404.168 105.216 403.604 105.216ZM401.246 99.744H405.17C405.17 99.06 405.02 98.526 404.72 98.142C404.42 97.746 403.97 97.548 403.37 97.548C402.854 97.548 402.392 97.74 401.984 98.124C401.588 98.496 401.342 99.036 401.246 99.744ZM411.849 108.906C411.153 108.906 410.523 108.822 409.959 108.654C409.407 108.486 408.969 108.228 408.645 107.88C408.333 107.544 408.177 107.118 408.177 106.602C408.177 105.87 408.597 105.24 409.437 104.712V104.64C409.209 104.496 409.017 104.304 408.861 104.064C408.717 103.824 408.645 103.524 408.645 103.164C408.645 102.816 408.741 102.504 408.933 102.228C409.137 101.94 409.365 101.706 409.617 101.526V101.454C409.317 101.226 409.047 100.908 408.807 100.5C408.579 100.092 408.465 99.63 408.465 99.114C408.465 98.43 408.627 97.854 408.951 97.386C409.275 96.918 409.701 96.564 410.229 96.324C410.769 96.072 411.345 95.946 411.957 95.946C412.197 95.946 412.425 95.97 412.641 96.018C412.869 96.054 413.073 96.102 413.253 96.162H416.421V97.692H414.801C414.945 97.86 415.065 98.076 415.161 98.34C415.257 98.592 415.305 98.874 415.305 99.186C415.305 99.834 415.155 100.386 414.855 100.842C414.555 101.286 414.153 101.622 413.649 101.85C413.145 102.078 412.581 102.192 411.957 102.192C411.765 102.192 411.567 102.174 411.363 102.138C411.159 102.102 410.955 102.042 410.751 101.958C410.619 102.078 410.511 102.198 410.427 102.318C410.355 102.438 410.319 102.6 410.319 102.804C410.319 103.056 410.421 103.254 410.625 103.398C410.841 103.542 411.219 103.614 411.759 103.614H413.325C414.393 103.614 415.197 103.788 415.737 104.136C416.289 104.472 416.565 105.024 416.565 105.792C416.565 106.368 416.373 106.89 415.989 107.358C415.605 107.838 415.059 108.216 414.351 108.492C413.643 108.768 412.809 108.906 411.849 108.906ZM411.957 100.896C412.377 100.896 412.737 100.74 413.037 100.428C413.337 100.116 413.487 99.678 413.487 99.114C413.487 98.562 413.337 98.136 413.037 97.836C412.749 97.524 412.389 97.368 411.957 97.368C411.525 97.368 411.159 97.518 410.859 97.818C410.559 98.118 410.409 98.55 410.409 99.114C410.409 99.678 410.559 100.116 410.859 100.428C411.159 100.74 411.525 100.896 411.957 100.896ZM412.173 107.556C412.881 107.556 413.457 107.412 413.901 107.124C414.345 106.836 414.567 106.506 414.567 106.134C414.567 105.786 414.429 105.552 414.153 105.432C413.889 105.312 413.505 105.252 413.001 105.252H411.795C411.315 105.252 410.913 105.21 410.589 105.126C410.133 105.474 409.905 105.864 409.905 106.296C409.905 106.692 410.109 106.998 410.517 107.214C410.925 107.442 411.477 107.556 412.173 107.556ZM418.123 105V96.162H419.833L419.977 97.728H420.049C420.361 97.152 420.739 96.714 421.183 96.414C421.627 96.102 422.083 95.946 422.551 95.946C422.971 95.946 423.307 96.006 423.559 96.126L423.199 97.926C423.043 97.878 422.899 97.842 422.767 97.818C422.635 97.794 422.473 97.782 422.281 97.782C421.933 97.782 421.567 97.92 421.183 98.196C420.799 98.46 420.469 98.928 420.193 99.6V105H418.123ZM426.505 105.216C425.737 105.216 425.107 104.976 424.615 104.496C424.135 104.016 423.895 103.392 423.895 102.624C423.895 101.676 424.309 100.944 425.137 100.428C425.965 99.9 427.285 99.54 429.097 99.348C429.085 98.88 428.959 98.478 428.719 98.142C428.491 97.794 428.077 97.62 427.477 97.62C427.045 97.62 426.619 97.704 426.199 97.872C425.791 98.04 425.389 98.244 424.993 98.484L424.237 97.098C424.729 96.786 425.281 96.516 425.893 96.288C426.517 96.06 427.177 95.946 427.873 95.946C428.977 95.946 429.799 96.276 430.339 96.936C430.891 97.584 431.167 98.526 431.167 99.762V105H429.457L429.313 104.028H429.241C428.845 104.364 428.419 104.646 427.963 104.874C427.519 105.102 427.033 105.216 426.505 105.216ZM427.171 103.596C427.531 103.596 427.855 103.512 428.143 103.344C428.443 103.164 428.761 102.924 429.097 102.624V100.644C427.897 100.8 427.063 101.034 426.595 101.346C426.127 101.646 425.893 102.018 425.893 102.462C425.893 102.858 426.013 103.146 426.253 103.326C426.493 103.506 426.799 103.596 427.171 103.596ZM436.477 105.216C435.457 105.216 434.731 104.922 434.299 104.334C433.879 103.734 433.669 102.96 433.669 102.012V97.8H432.409V96.252L433.777 96.162L434.029 93.75H435.757V96.162H438.007V97.8H435.757V102.012C435.757 103.044 436.171 103.56 436.999 103.56C437.155 103.56 437.317 103.542 437.485 103.506C437.653 103.458 437.797 103.41 437.917 103.362L438.277 104.892C438.037 104.976 437.761 105.048 437.449 105.108C437.149 105.18 436.825 105.216 436.477 105.216ZM443.203 105.216C442.471 105.216 441.787 105.036 441.151 104.676C440.515 104.304 439.999 103.776 439.603 103.092C439.207 102.396 439.009 101.562 439.009 100.59C439.009 99.606 439.207 98.772 439.603 98.088C439.999 97.392 440.515 96.864 441.151 96.504C441.787 96.132 442.471 95.946 443.203 95.946C443.947 95.946 444.637 96.132 445.273 96.504C445.909 96.864 446.425 97.392 446.821 98.088C447.217 98.772 447.415 99.606 447.415 100.59C447.415 101.562 447.217 102.396 446.821 103.092C446.425 103.776 445.909 104.304 445.273 104.676C444.637 105.036 443.947 105.216 443.203 105.216ZM443.203 103.524C443.851 103.524 444.361 103.254 444.733 102.714C445.105 102.174 445.291 101.466 445.291 100.59C445.291 99.702 445.105 98.988 444.733 98.448C444.361 97.908 443.851 97.638 443.203 97.638C442.555 97.638 442.045 97.908 441.673 98.448C441.313 98.988 441.133 99.702 441.133 100.59C441.133 101.466 441.313 102.174 441.673 102.714C442.045 103.254 442.555 103.524 443.203 103.524ZM449.464 105V96.162H451.174L451.318 97.728H451.39C451.702 97.152 452.08 96.714 452.524 96.414C452.968 96.102 453.424 95.946 453.892 95.946C454.312 95.946 454.648 96.006 454.9 96.126L454.54 97.926C454.384 97.878 454.24 97.842 454.108 97.818C453.976 97.794 453.814 97.782 453.622 97.782C453.274 97.782 452.908 97.92 452.524 98.196C452.14 98.46 451.81 98.928 451.534 99.6V105H449.464Z" fill="#333333"/>
<path opacity="0.5" d="M476 128C461.009 128 416.622 128 355 128C384 128 368 168 400 168C423 168 455.534 168 476 168" stroke="#9A9FAF" stroke-width="2" stroke-dasharray="4 4"/>
<path d="M411.943 187.515L410.333 181.426H411.209L411.972 184.505C412.154 185.262 412.324 186.019 412.438 186.609C412.546 186.001 412.746 185.273 412.962 184.494L413.815 181.426H414.674L415.46 184.511C415.636 185.233 415.807 185.955 415.909 186.592C416.04 185.927 416.216 185.25 416.421 184.494L417.258 181.426H418.105L416.29 187.509H415.454L414.646 184.344C414.469 183.69 414.328 183.025 414.225 182.354C414.099 183.027 413.934 183.692 413.73 184.344L412.825 187.509H411.96L411.943 187.515Z" fill="#00188F"/>
<path d="M420.347 181.907C420.35 181.998 420.327 182.087 420.283 182.166C420.239 182.244 420.175 182.309 420.097 182.354C420.016 182.403 419.923 182.428 419.829 182.428C419.735 182.428 419.643 182.403 419.562 182.354C419.482 182.311 419.416 182.247 419.372 182.167C419.327 182.089 419.306 181.998 419.312 181.907C419.311 181.842 419.324 181.778 419.351 181.718C419.377 181.659 419.416 181.606 419.465 181.563C419.514 181.517 419.571 181.481 419.633 181.457C419.696 181.434 419.763 181.423 419.829 181.426C419.966 181.421 420.099 181.47 420.199 181.563C420.246 181.607 420.284 181.66 420.309 181.72C420.335 181.778 420.348 181.843 420.347 181.907ZM419.437 187.509V183.146H420.267V187.509H419.437Z" fill="#00188F"/>
<path d="M422.048 184.327C422.048 183.868 422.048 183.507 422.009 183.146H422.742L422.788 183.862H422.817C422.975 183.604 423.199 183.393 423.464 183.25C423.73 183.107 424.029 183.037 424.33 183.048C424.967 183.048 425.952 183.409 425.952 184.906V187.515H425.127V184.992C425.127 184.287 424.842 183.696 424.063 183.696C423.812 183.694 423.567 183.771 423.363 183.917C423.158 184.064 423.005 184.271 422.925 184.511C422.884 184.628 422.863 184.752 422.862 184.878V187.515H422.037L422.048 184.327Z" fill="#00188F"/>
<path d="M431.266 181.099V186.391C431.266 186.781 431.266 187.217 431.306 187.538H430.561L430.521 186.781C430.357 187.051 430.123 187.27 429.844 187.415C429.565 187.56 429.252 187.624 428.939 187.601C428.371 187.572 427.837 187.318 427.454 186.896C427.27 186.694 427.132 186.453 427.048 186.192C426.965 185.931 426.938 185.654 426.97 185.382C426.933 185.096 426.958 184.804 427.043 184.527C427.129 184.251 427.273 183.997 427.465 183.782C427.868 183.334 428.43 183.064 429.03 183.031C429.299 183.011 429.568 183.062 429.811 183.179C430.055 183.295 430.264 183.474 430.418 183.696V181.087L431.266 181.099ZM430.436 184.924C430.436 184.81 430.424 184.696 430.401 184.585C430.33 184.319 430.173 184.084 429.954 183.917C429.736 183.751 429.469 183.663 429.195 183.667C428.33 183.667 427.812 184.39 427.812 185.353C427.812 186.317 428.273 186.976 429.178 186.976C429.458 186.978 429.731 186.884 429.952 186.71C430.172 186.537 430.329 186.293 430.396 186.019C430.426 185.908 430.439 185.794 430.436 185.68V184.924Z" fill="#00188F"/>
<path d="M436.859 185.308C436.886 185.609 436.846 185.913 436.743 186.198C436.639 186.482 436.475 186.74 436.262 186.953C436.038 187.177 435.771 187.353 435.477 187.469C435.184 187.585 434.87 187.64 434.555 187.629C434.253 187.634 433.955 187.577 433.675 187.464C433.396 187.351 433.142 187.183 432.927 186.97C432.725 186.762 432.57 186.512 432.472 186.239C432.374 185.964 432.336 185.672 432.358 185.382C432.334 185.08 432.375 184.777 432.478 184.493C432.581 184.209 432.744 183.951 432.956 183.736C433.18 183.513 433.447 183.339 433.741 183.224C434.034 183.108 434.348 183.055 434.663 183.065C434.965 183.057 435.265 183.11 435.545 183.221C435.826 183.333 436.081 183.5 436.296 183.713C436.5 183.921 436.656 184.172 436.754 184.447C436.851 184.723 436.887 185.016 436.859 185.308ZM433.223 185.354C433.223 186.311 433.792 187.033 434.612 187.033C435.431 187.033 436.017 186.322 436.017 185.313C436.017 184.574 435.624 183.644 434.629 183.644C433.633 183.644 433.223 184.51 433.223 185.336V185.354Z" fill="#00188F"/>
<path d="M438.384 183.146L439.004 185.365C439.13 185.847 439.26 186.305 439.346 186.758C439.448 186.317 439.602 185.841 439.755 185.371L440.506 183.146H441.206L441.923 185.325C442.083 185.847 442.219 186.305 442.327 186.752C442.421 186.274 442.539 185.802 442.68 185.336L443.334 183.146H444.159L442.675 187.503H441.917L441.217 185.422C441.057 184.95 440.922 184.47 440.814 183.983C440.701 184.472 440.56 184.955 440.393 185.428L439.653 187.503H438.891L437.508 183.146H438.384Z" fill="#00188F"/>
<path d="M445.189 186.706C445.527 186.897 445.906 187.004 446.293 187.016C446.908 187.016 447.186 186.729 447.186 186.362C447.186 185.996 446.942 185.789 446.333 185.566C445.502 185.279 445.109 184.849 445.115 184.327C445.125 184.139 445.175 183.955 445.261 183.788C445.347 183.62 445.468 183.474 445.616 183.358C445.768 183.236 445.942 183.146 446.128 183.093C446.315 183.04 446.51 183.024 446.703 183.048C447.099 183.037 447.491 183.13 447.841 183.318L447.63 183.891C447.344 183.725 447.021 183.638 446.691 183.639C446.197 183.639 445.923 183.908 445.923 184.212C445.923 184.516 446.197 184.734 446.794 184.958C447.585 185.239 448 185.617 448 186.271C448 187.045 447.363 187.589 446.293 187.589C445.845 187.595 445.404 187.488 445.007 187.28L445.189 186.706Z" fill="#00188F"/>
<path d="M410.39 195.926C410.84 196.181 411.347 196.317 411.864 196.322C412.711 196.322 413.206 195.898 413.206 195.284C413.206 194.671 412.859 194.39 411.994 194.08C410.953 193.725 410.287 193.203 410.287 192.36C410.302 192.116 410.369 191.877 410.483 191.66C410.597 191.444 410.755 191.254 410.947 191.104C411.145 190.947 411.371 190.831 411.613 190.764C411.856 190.696 412.109 190.677 412.359 190.709C412.845 190.692 413.329 190.792 413.77 191.001L413.542 191.649C413.17 191.453 412.756 191.352 412.336 191.357C411.454 191.357 411.124 191.855 411.124 192.268C411.124 192.842 411.511 193.117 412.398 193.415C413.479 193.817 414.026 194.316 414.026 195.204C414.026 196.093 413.303 196.959 411.789 196.959C411.221 196.968 410.659 196.832 410.156 196.564L410.39 195.926Z" fill="#00188F"/>
<path d="M415.693 194.843C415.674 195.047 415.702 195.253 415.774 195.444C415.846 195.636 415.96 195.809 416.108 195.949C416.259 196.093 416.439 196.204 416.634 196.274C416.83 196.344 417.039 196.372 417.246 196.356C417.681 196.369 418.115 196.293 418.521 196.133L418.663 196.707C418.178 196.901 417.659 196.994 417.138 196.982C416.834 197.001 416.53 196.957 416.244 196.853C415.958 196.748 415.697 196.585 415.477 196.374C415.27 196.167 415.112 195.917 415.014 195.641C414.916 195.366 414.879 195.071 414.907 194.78C414.874 194.485 414.905 194.186 414.997 193.903C415.09 193.622 415.241 193.363 415.442 193.146C415.652 192.922 415.904 192.742 416.183 192.618C416.463 192.494 416.764 192.427 417.07 192.423C417.338 192.424 417.603 192.48 417.849 192.589C418.094 192.697 418.315 192.856 418.498 193.054C418.674 193.243 418.807 193.469 418.887 193.716C418.967 193.963 418.991 194.224 418.959 194.482C418.973 194.606 418.973 194.73 418.959 194.854L415.693 194.843ZM418.134 194.27C418.156 194.111 418.143 193.949 418.097 193.795C418.051 193.642 417.972 193.501 417.866 193.381C417.755 193.258 417.619 193.16 417.469 193.091C417.318 193.023 417.155 192.988 416.99 192.985C416.654 192.996 416.336 193.135 416.097 193.373C415.859 193.611 415.718 193.931 415.704 194.27H418.134Z" fill="#00188F"/>
<path d="M420.262 193.874C420.262 193.364 420.262 192.922 420.228 192.515H420.956L420.99 193.37H421.019C421.108 193.1 421.277 192.865 421.503 192.695C421.729 192.525 422 192.429 422.282 192.418C422.357 192.406 422.434 192.406 422.509 192.418V193.163C422.415 193.152 422.319 193.152 422.225 193.163C421.944 193.161 421.673 193.264 421.463 193.451C421.253 193.638 421.119 193.897 421.087 194.178C421.064 194.3 421.052 194.426 421.053 194.551V196.879H420.222V193.874H420.262Z" fill="#00188F"/>
<path d="M424.205 192.515L425.104 194.963C425.257 195.37 425.377 195.732 425.491 196.111C425.593 195.749 425.724 195.382 425.872 194.963L426.765 192.515H427.636L425.832 196.879H425.035L423.283 192.515H424.205Z" fill="#00188F"/>
<path d="M428.95 194.843C428.932 195.047 428.959 195.253 429.031 195.444C429.103 195.636 429.218 195.809 429.366 195.949C429.517 196.093 429.696 196.204 429.892 196.274C430.088 196.344 430.296 196.372 430.504 196.356C430.939 196.369 431.373 196.293 431.778 196.133L431.926 196.707C431.44 196.901 430.919 196.994 430.396 196.982C430.093 197.001 429.789 196.957 429.504 196.852C429.219 196.748 428.959 196.585 428.74 196.374C428.526 196.171 428.361 195.922 428.257 195.646C428.153 195.37 428.111 195.074 428.136 194.78C428.107 194.482 428.142 194.181 428.24 193.899C428.339 193.617 428.498 193.359 428.705 193.146C428.915 192.922 429.167 192.742 429.446 192.618C429.726 192.494 430.027 192.427 430.333 192.423C430.6 192.424 430.864 192.481 431.109 192.59C431.353 192.698 431.574 192.856 431.755 193.054C431.932 193.243 432.065 193.469 432.145 193.716C432.226 193.962 432.252 194.224 432.222 194.482C432.222 194.606 432.21 194.732 432.188 194.854L428.95 194.843ZM431.391 194.27C431.414 194.111 431.403 193.949 431.356 193.795C431.31 193.641 431.23 193.5 431.124 193.381C431.012 193.258 430.877 193.16 430.726 193.091C430.576 193.023 430.413 192.988 430.248 192.985C429.913 192.998 429.595 193.137 429.358 193.375C429.121 193.613 428.981 193.933 428.967 194.27H431.391Z" fill="#00188F"/>
<path d="M433.587 193.874C433.587 193.364 433.587 192.922 433.547 192.515H434.282V193.37H434.316C434.405 193.099 434.575 192.863 434.802 192.692C435.029 192.522 435.302 192.426 435.585 192.417C435.662 192.406 435.74 192.406 435.818 192.417V193.163C435.723 193.154 435.628 193.154 435.533 193.163C435.253 193.161 434.982 193.263 434.772 193.451C434.561 193.638 434.428 193.897 434.396 194.178C434.372 194.3 434.361 194.425 434.362 194.551V196.878H433.53V193.874H433.587Z" fill="#00188F"/>
<path d="M392.569 188.416V180.6L384 181.689V188.416H392.569Z" fill="#00188F"/>
<path d="M393.798 188.415H405.11V179L393.798 180.439V188.415Z" fill="#00188F"/>
<path d="M392.569 189.585H384V196.116L392.569 197.286V189.585Z" fill="#00188F"/>
<path d="M393.798 189.585V197.458L405.11 199V189.585H393.798Z" fill="#00188F"/>
<path fill-rule="evenodd" clip-rule="evenodd" d="M396.154 145.846H404V138H396.154V145.846Z" fill="#9BC13C"/>
<path fill-rule="evenodd" clip-rule="evenodd" d="M387 145.846H394.846V138H387V145.846Z" fill="#E7703F"/>
<path fill-rule="evenodd" clip-rule="evenodd" d="M387 155H394.846V147.154H387V155Z" fill="#4FB2EC"/>
<path fill-rule="evenodd" clip-rule="evenodd" d="M396.154 155H404V147.154H396.154V155Z" fill="#F6C443"/>
<path fill-rule="evenodd" clip-rule="evenodd" d="M414.592 142.821C414.534 141.776 414.465 140.508 414.471 139.58H414.441C414.184 140.452 413.87 141.399 413.496 142.429L412.167 146.075H411.435L410.21 142.496C409.851 141.433 409.56 140.469 409.349 139.58H409.323C409.297 140.516 409.247 141.767 409.175 142.896L408.975 146.122H408.053L408.575 138.604H409.817L411.096 142.245C411.406 143.164 411.659 143.993 411.853 144.776H411.883C412.081 144.015 412.342 143.186 412.679 142.245L414.02 138.604H415.261L415.727 146.122H414.773L414.592 142.821Z" fill="#333333"/>
<path fill-rule="evenodd" clip-rule="evenodd" d="M416.9 146.123H417.876V140.729H416.9V146.123ZM417.996 139.204C417.997 139.536 417.762 139.812 417.374 139.812C417.018 139.812 416.779 139.536 416.78 139.204C416.779 138.867 417.031 138.593 417.391 138.593C417.757 138.593 417.994 138.861 417.996 139.204Z" fill="#333333"/>
<path fill-rule="evenodd" clip-rule="evenodd" d="M422.935 145.927C422.677 146.054 422.112 146.24 421.387 146.24C419.76 146.24 418.695 145.133 418.695 143.484C418.695 141.821 419.829 140.607 421.594 140.607C422.172 140.607 422.692 140.754 422.957 140.894L422.74 141.648C422.498 141.52 422.132 141.388 421.592 141.388C420.361 141.388 419.687 142.311 419.689 143.432C419.689 144.682 420.492 145.451 421.568 145.451C422.118 145.451 422.492 145.311 422.769 145.192L422.935 145.927Z" fill="#333333"/>
<path fill-rule="evenodd" clip-rule="evenodd" d="M423.66 142.409C423.66 141.772 423.644 141.229 423.616 140.728H424.476L424.513 141.786H424.548C424.8 141.063 425.394 140.605 426.051 140.605C426.157 140.605 426.234 140.612 426.323 140.634V141.556C426.223 141.535 426.125 141.527 425.989 141.527C425.299 141.527 424.81 142.049 424.676 142.783C424.651 142.921 424.637 143.082 424.637 143.24V146.123H423.66V142.409Z" fill="#333333"/>
<path fill-rule="evenodd" clip-rule="evenodd" d="M427.38 143.437C427.38 144.619 428.059 145.511 429.015 145.511C429.956 145.511 430.66 144.632 430.66 143.408C430.66 142.494 430.2 141.341 429.033 141.341C427.881 141.341 427.38 142.414 427.38 143.437ZM431.658 143.374C431.658 145.371 430.271 146.244 428.976 146.244C427.512 146.244 426.381 145.179 426.381 143.466C426.381 141.662 427.568 140.606 429.061 140.606C430.611 140.606 431.658 141.73 431.658 143.374Z" fill="#333333"/>
<path fill-rule="evenodd" clip-rule="evenodd" d="M432.337 145.124C432.634 145.31 433.149 145.508 433.637 145.508C434.354 145.508 434.686 145.155 434.686 144.705C434.686 144.233 434.401 143.986 433.683 143.718C432.709 143.364 432.248 142.834 432.251 142.188C432.251 141.318 432.957 140.606 434.116 140.606C434.665 140.606 435.138 140.755 435.438 140.938L435.195 141.651C434.985 141.52 434.592 141.334 434.087 141.334C433.509 141.334 433.193 141.666 433.193 142.074C433.193 142.52 433.51 142.719 434.218 142.994C435.148 143.34 435.631 143.808 435.634 144.614C435.634 145.571 434.89 146.241 433.616 146.241C433.024 146.241 432.479 146.086 432.099 145.864L432.337 145.124Z" fill="#333333"/>
<path fill-rule="evenodd" clip-rule="evenodd" d="M437.077 143.437C437.077 144.619 437.755 145.511 438.711 145.511C439.653 145.511 440.356 144.632 440.356 143.408C440.356 142.494 439.895 141.341 438.73 141.341C437.578 141.341 437.077 142.414 437.077 143.437ZM441.354 143.374C441.354 145.371 439.968 146.244 438.672 146.244C437.209 146.244 436.078 145.179 436.078 143.466C436.078 141.662 437.265 140.606 438.757 140.606C440.308 140.606 441.354 141.73 441.354 143.374Z" fill="#333333"/>
<path fill-rule="evenodd" clip-rule="evenodd" d="M442.269 146.122V141.471H441.516V140.728H442.269V140.469C442.269 139.708 442.445 139.019 442.896 138.578C443.264 138.223 443.757 138.081 444.207 138.081C444.563 138.081 444.857 138.155 445.046 138.24L444.916 138.993C444.766 138.926 444.575 138.869 444.286 138.869C443.457 138.869 443.24 139.605 443.24 140.437V140.728H444.543V141.471H443.245V146.122H442.269Z" fill="#333333"/>
<path fill-rule="evenodd" clip-rule="evenodd" d="M446.307 139.175V140.728H447.717V141.472H446.307V144.379C446.307 145.051 446.499 145.43 447.048 145.43C447.303 145.43 447.488 145.4 447.617 145.359L447.662 146.105C447.472 146.179 447.166 146.24 446.786 146.24C446.334 146.24 445.959 146.092 445.728 145.825C445.457 145.527 445.346 145.051 445.346 144.418V141.472H444.51V140.728H445.346V139.429L446.307 139.175Z" fill="#333333"/>
<path fill-rule="evenodd" clip-rule="evenodd" d="M408.248 154.679H409.224V147.161H408.248V154.679Z" fill="#333333"/>
<path fill-rule="evenodd" clip-rule="evenodd" d="M410.49 154.679H411.467V147.161H410.49V154.679Z" fill="#333333"/>
<path fill-rule="evenodd" clip-rule="evenodd" d="M412.607 153.496C413.041 153.767 413.674 153.983 414.341 153.983C415.335 153.983 415.918 153.465 415.918 152.704C415.918 152.005 415.512 151.595 414.497 151.216C413.27 150.78 412.509 150.135 412.509 149.083C412.509 147.912 413.482 147.044 414.945 147.044C415.709 147.044 416.277 147.221 416.605 147.408L416.334 148.203C416.094 148.061 415.59 147.847 414.914 147.847C413.882 147.847 413.491 148.458 413.491 148.97C413.491 149.669 413.948 150.012 414.986 150.414C416.261 150.913 416.903 151.525 416.903 152.628C416.903 153.781 416.054 154.796 414.272 154.796C413.546 154.796 412.752 154.576 412.352 154.306L412.607 153.496Z" fill="#333333"/>
<rect x="696" y="116" width="8" height="24" fill="#9A9FAF"/>
<rect x="480" y="116" width="8" height="24" fill="#9A9FAF"/>
<rect x="696" y="156" width="8" height="24" fill="#9A9FAF"/>
<rect x="480" y="156" width="8" height="24" fill="#9A9FAF"/>
<rect x="344" y="116" width="8" height="24" fill="#9A9FAF"/>
<path d="M652.071 192V184.968H649.695V184.128H655.455V184.968H653.079V192H652.071ZM659.556 192.144C658.9 192.144 658.312 191.984 657.792 191.664C657.28 191.336 656.872 190.868 656.568 190.26C656.272 189.652 656.124 188.92 656.124 188.064C656.124 187.216 656.276 186.488 656.58 185.88C656.884 185.272 657.3 184.804 657.828 184.476C658.356 184.148 658.952 183.984 659.616 183.984C660.096 183.984 660.52 184.084 660.888 184.284C661.256 184.476 661.552 184.7 661.776 184.956L661.236 185.604C661.028 185.38 660.792 185.2 660.528 185.064C660.264 184.928 659.964 184.86 659.628 184.86C659.132 184.86 658.696 184.992 658.32 185.256C657.952 185.512 657.664 185.876 657.456 186.348C657.256 186.82 657.156 187.384 657.156 188.04C657.156 188.696 657.256 189.268 657.456 189.756C657.656 190.236 657.936 190.608 658.296 190.872C658.664 191.136 659.096 191.268 659.592 191.268C659.968 191.268 660.304 191.188 660.6 191.028C660.896 190.868 661.168 190.652 661.416 190.38L661.968 191.004C661.656 191.364 661.304 191.644 660.912 191.844C660.52 192.044 660.068 192.144 659.556 192.144ZM663.435 192V184.128H665.679C666.271 184.128 666.787 184.2 667.227 184.344C667.667 184.488 668.011 184.732 668.259 185.076C668.507 185.412 668.631 185.868 668.631 186.444C668.631 187.268 668.363 187.88 667.827 188.28C667.291 188.68 666.591 188.88 665.727 188.88H664.431V192H663.435ZM664.431 188.064H665.607C666.295 188.064 666.803 187.936 667.131 187.68C667.467 187.416 667.635 187.004 667.635 186.444C667.635 185.876 667.459 185.484 667.107 185.268C666.763 185.044 666.247 184.932 665.559 184.932H664.431V188.064ZM670.652 187.812C670.452 187.812 670.28 187.744 670.136 187.608C670 187.464 669.932 187.284 669.932 187.068C669.932 186.836 670 186.652 670.136 186.516C670.28 186.372 670.452 186.3 670.652 186.3C670.844 186.3 671.008 186.372 671.144 186.516C671.288 186.652 671.36 186.836 671.36 187.068C671.36 187.284 671.288 187.464 671.144 187.608C671.008 187.744 670.844 187.812 670.652 187.812ZM670.652 192.144C670.452 192.144 670.28 192.076 670.136 191.94C670 191.796 669.932 191.616 669.932 191.4C669.932 191.168 670 190.984 670.136 190.848C670.28 190.704 670.452 190.632 670.652 190.632C670.844 190.632 671.008 190.704 671.144 190.848C671.288 190.984 671.36 191.168 671.36 191.4C671.36 191.616 671.288 191.796 671.144 191.94C671.008 192.076 670.844 192.144 670.652 192.144ZM673.389 189.096H675.789V186.876C675.789 186.668 675.797 186.42 675.813 186.132C675.829 185.844 675.841 185.6 675.849 185.4H675.801C675.705 185.584 675.605 185.764 675.501 185.94C675.397 186.116 675.289 186.296 675.177 186.48L673.389 189.096ZM675.789 192V189.888H672.345V189.24L675.621 184.344H676.725V189.096H677.769V189.888H676.725V192H675.789ZM680.913 192.144C680.305 192.144 679.801 192.036 679.401 191.82C679.001 191.604 678.669 191.364 678.405 191.1L678.885 190.452C679.117 190.676 679.385 190.88 679.689 191.064C679.993 191.24 680.369 191.328 680.817 191.328C681.289 191.328 681.685 191.172 682.005 190.86C682.333 190.54 682.497 190.112 682.497 189.576C682.497 189.048 682.349 188.636 682.053 188.34C681.757 188.044 681.361 187.896 680.865 187.896C680.601 187.896 680.373 187.936 680.181 188.016C679.997 188.096 679.789 188.212 679.557 188.364L679.029 188.028L679.281 184.344H683.109V185.196H680.145L679.941 187.464C680.125 187.368 680.309 187.292 680.493 187.236C680.677 187.18 680.885 187.152 681.117 187.152C681.557 187.152 681.953 187.24 682.305 187.416C682.665 187.584 682.953 187.844 683.169 188.196C683.385 188.548 683.493 189 683.493 189.552C683.493 190.104 683.369 190.576 683.121 190.968C682.881 191.352 682.565 191.644 682.173 191.844C681.781 192.044 681.361 192.144 680.913 192.144ZM687.07 192.144C686.59 192.144 686.162 192.056 685.786 191.88C685.41 191.696 685.11 191.444 684.886 191.124C684.67 190.804 684.562 190.444 684.562 190.044C684.562 189.708 684.63 189.412 684.766 189.156C684.91 188.892 685.09 188.664 685.306 188.472C685.53 188.272 685.762 188.108 686.002 187.98V187.932C685.722 187.732 685.474 187.488 685.258 187.2C685.042 186.912 684.934 186.568 684.934 186.168C684.934 185.776 685.03 185.432 685.222 185.136C685.414 184.84 685.674 184.612 686.002 184.452C686.33 184.284 686.698 184.2 687.106 184.2C687.77 184.2 688.294 184.392 688.678 184.776C689.07 185.16 689.266 185.648 689.266 186.24C689.266 186.504 689.21 186.756 689.098 186.996C688.986 187.228 688.85 187.44 688.69 187.632C688.53 187.816 688.37 187.968 688.21 188.088V188.136C688.442 188.264 688.658 188.416 688.858 188.592C689.058 188.768 689.222 188.98 689.35 189.228C689.478 189.468 689.542 189.76 689.542 190.104C689.542 190.48 689.438 190.824 689.23 191.136C689.03 191.448 688.742 191.696 688.366 191.88C687.998 192.056 687.566 192.144 687.07 192.144ZM687.61 187.824C687.866 187.592 688.062 187.348 688.198 187.092C688.342 186.836 688.414 186.568 688.414 186.288C688.414 185.912 688.298 185.592 688.066 185.328C687.834 185.064 687.506 184.932 687.082 184.932C686.73 184.932 686.434 185.044 686.194 185.268C685.962 185.492 685.846 185.792 685.846 186.168C685.846 186.472 685.926 186.724 686.086 186.924C686.254 187.124 686.474 187.296 686.746 187.44C687.018 187.576 687.306 187.704 687.61 187.824ZM687.094 191.412C687.542 191.412 687.902 191.288 688.174 191.04C688.454 190.784 688.594 190.46 688.594 190.068C688.594 189.74 688.498 189.472 688.306 189.264C688.114 189.056 687.858 188.876 687.538 188.724C687.226 188.572 686.886 188.424 686.518 188.28C686.214 188.48 685.958 188.72 685.75 189C685.55 189.28 685.45 189.596 685.45 189.948C685.45 190.372 685.606 190.724 685.918 191.004C686.238 191.276 686.63 191.412 687.094 191.412ZM693.023 192.144C692.255 192.144 691.651 191.8 691.211 191.112C690.779 190.416 690.563 189.428 690.563 188.148C690.563 186.86 690.779 185.88 691.211 185.208C691.651 184.536 692.255 184.2 693.023 184.2C693.783 184.2 694.379 184.536 694.811 185.208C695.251 185.88 695.471 186.86 695.471 188.148C695.471 189.428 695.251 190.416 694.811 191.112C694.379 191.8 693.783 192.144 693.023 192.144ZM693.023 191.352C693.471 191.352 693.831 191.1 694.103 190.596C694.375 190.084 694.511 189.268 694.511 188.148C694.511 187.028 694.375 186.224 694.103 185.736C693.831 185.24 693.471 184.992 693.023 184.992C692.575 184.992 692.211 185.24 691.931 185.736C691.659 186.224 691.523 187.028 691.523 188.148C691.523 189.268 691.659 190.084 691.931 190.596C692.211 191.1 692.575 191.352 693.023 191.352Z" fill="black"/>
<path d="M600.442 112.144C599.906 112.144 599.422 112.036 598.99 111.82C598.566 111.604 598.23 111.248 597.982 110.752C597.734 110.256 597.61 109.588 597.61 108.748V104.128H598.606V108.772C598.606 109.404 598.686 109.904 598.846 110.272C599.014 110.632 599.234 110.888 599.506 111.04C599.786 111.192 600.098 111.268 600.442 111.268C600.794 111.268 601.11 111.192 601.39 111.04C601.67 110.888 601.89 110.632 602.05 110.272C602.218 109.904 602.302 109.404 602.302 108.772V104.128H603.262V108.748C603.262 109.588 603.138 110.256 602.89 110.752C602.642 111.248 602.306 111.604 601.882 111.82C601.458 112.036 600.978 112.144 600.442 112.144ZM605.285 112V106.168H606.101L606.185 107.008H606.221C606.501 106.728 606.797 106.496 607.109 106.312C607.421 106.12 607.777 106.024 608.177 106.024C608.793 106.024 609.241 106.22 609.521 106.612C609.809 106.996 609.953 107.56 609.953 108.304V112H608.969V108.436C608.969 107.892 608.881 107.496 608.705 107.248C608.529 107 608.249 106.876 607.865 106.876C607.569 106.876 607.301 106.952 607.061 107.104C606.829 107.256 606.565 107.48 606.269 107.776V112H605.285ZM611.847 112V106.168H612.831V112H611.847ZM612.351 104.968C612.159 104.968 611.999 104.912 611.871 104.8C611.751 104.68 611.691 104.52 611.691 104.32C611.691 104.128 611.751 103.972 611.871 103.852C611.999 103.732 612.159 103.672 612.351 103.672C612.543 103.672 612.699 103.732 612.819 103.852C612.947 103.972 613.011 104.128 613.011 104.32C613.011 104.52 612.947 104.68 612.819 104.8C612.699 104.912 612.543 104.968 612.351 104.968ZM613.984 112L615.892 108.952L614.128 106.168H615.196L615.976 107.452C616.064 107.604 616.156 107.764 616.252 107.932C616.348 108.1 616.448 108.264 616.552 108.424H616.6C616.688 108.264 616.776 108.1 616.864 107.932C616.952 107.764 617.04 107.604 617.128 107.452L617.836 106.168H618.868L617.104 109.06L619 112H617.932L617.08 110.644C616.976 110.468 616.872 110.292 616.768 110.116C616.664 109.94 616.556 109.768 616.444 109.6H616.396C616.292 109.768 616.192 109.94 616.096 110.116C616 110.284 615.904 110.46 615.808 110.644L615.016 112H613.984ZM622.654 112V104.128H624.622C625.838 104.128 626.762 104.468 627.394 105.148C628.026 105.82 628.342 106.78 628.342 108.028C628.342 109.284 628.026 110.26 627.394 110.956C626.77 111.652 625.862 112 624.67 112H622.654ZM623.65 111.184H624.55C625.47 111.184 626.158 110.908 626.614 110.356C627.078 109.796 627.31 109.02 627.31 108.028C627.31 107.036 627.078 106.276 626.614 105.748C626.158 105.212 625.47 104.944 624.55 104.944H623.65V111.184ZM632.209 112.144C631.737 112.144 631.293 112.024 630.877 111.784C630.469 111.544 630.137 111.196 629.881 110.74C629.633 110.284 629.509 109.736 629.509 109.096C629.509 108.44 629.633 107.884 629.881 107.428C630.137 106.972 630.469 106.624 630.877 106.384C631.293 106.144 631.737 106.024 632.209 106.024C632.689 106.024 633.133 106.144 633.541 106.384C633.949 106.624 634.277 106.972 634.525 107.428C634.781 107.884 634.909 108.44 634.909 109.096C634.909 109.736 634.781 110.284 634.525 110.74C634.277 111.196 633.949 111.544 633.541 111.784C633.133 112.024 632.689 112.144 632.209 112.144ZM632.209 111.328C632.713 111.328 633.117 111.124 633.421 110.716C633.733 110.3 633.889 109.76 633.889 109.096C633.889 108.424 633.733 107.88 633.421 107.464C633.117 107.048 632.713 106.84 632.209 106.84C631.713 106.84 631.309 107.048 630.997 107.464C630.685 107.88 630.529 108.424 630.529 109.096C630.529 109.76 630.685 110.3 630.997 110.716C631.309 111.124 631.713 111.328 632.209 111.328ZM636.445 112V106.168H637.261L637.345 107.008H637.381C637.637 106.728 637.917 106.496 638.221 106.312C638.525 106.12 638.849 106.024 639.193 106.024C639.641 106.024 639.989 106.124 640.237 106.324C640.493 106.516 640.681 106.788 640.801 107.14C641.105 106.812 641.413 106.544 641.725 106.336C642.037 106.128 642.369 106.024 642.721 106.024C643.321 106.024 643.765 106.22 644.053 106.612C644.349 106.996 644.497 107.56 644.497 108.304V112H643.513V108.436C643.513 107.892 643.425 107.496 643.249 107.248C643.073 107 642.801 106.876 642.433 106.876C642.001 106.876 641.513 107.176 640.969 107.776V112H639.985V108.436C639.985 107.892 639.897 107.496 639.721 107.248C639.545 107 639.269 106.876 638.893 106.876C638.461 106.876 637.973 107.176 637.429 107.776V112H636.445ZM647.738 112.144C647.25 112.144 646.842 112 646.514 111.712C646.194 111.416 646.034 111.008 646.034 110.488C646.034 109.848 646.318 109.36 646.886 109.024C647.462 108.68 648.37 108.44 649.61 108.304C649.61 108.056 649.574 107.82 649.502 107.596C649.438 107.372 649.318 107.192 649.142 107.056C648.974 106.912 648.73 106.84 648.41 106.84C648.074 106.84 647.758 106.904 647.462 107.032C647.166 107.16 646.902 107.304 646.67 107.464L646.286 106.78C646.558 106.604 646.89 106.436 647.282 106.276C647.682 106.108 648.114 106.024 648.578 106.024C649.29 106.024 649.806 106.244 650.126 106.684C650.446 107.116 650.606 107.696 650.606 108.424V112H649.79L649.706 111.304H649.67C649.398 111.528 649.098 111.724 648.77 111.892C648.45 112.06 648.106 112.144 647.738 112.144ZM648.026 111.352C648.306 111.352 648.57 111.284 648.818 111.148C649.066 111.012 649.33 110.82 649.61 110.572V108.952C648.642 109.072 647.962 109.252 647.57 109.492C647.186 109.732 646.994 110.04 646.994 110.416C646.994 110.744 647.094 110.984 647.294 111.136C647.494 111.28 647.738 111.352 648.026 111.352ZM652.441 112V106.168H653.425V112H652.441ZM652.945 104.968C652.753 104.968 652.593 104.912 652.465 104.8C652.345 104.68 652.285 104.52 652.285 104.32C652.285 104.128 652.345 103.972 652.465 103.852C652.593 103.732 652.753 103.672 652.945 103.672C653.137 103.672 653.293 103.732 653.413 103.852C653.541 103.972 653.605 104.128 653.605 104.32C653.605 104.52 653.541 104.68 653.413 104.8C653.293 104.912 653.137 104.968 652.945 104.968ZM655.394 112V106.168H656.21L656.294 107.008H656.33C656.61 106.728 656.906 106.496 657.218 106.312C657.53 106.12 657.886 106.024 658.286 106.024C658.902 106.024 659.35 106.22 659.63 106.612C659.918 106.996 660.062 107.56 660.062 108.304V112H659.078V108.436C659.078 107.892 658.99 107.496 658.814 107.248C658.638 107 658.358 106.876 657.974 106.876C657.678 106.876 657.41 106.952 657.17 107.104C656.938 107.256 656.674 107.48 656.378 107.776V112H655.394ZM665.883 112.144C665.467 112.144 665.071 112.068 664.695 111.916C664.319 111.756 663.991 111.564 663.711 111.34L664.203 110.68C664.459 110.88 664.723 111.048 664.995 111.184C665.267 111.312 665.575 111.376 665.919 111.376C666.303 111.376 666.591 111.288 666.783 111.112C666.975 110.928 667.071 110.712 667.071 110.464C667.071 110.264 667.003 110.096 666.867 109.96C666.739 109.824 666.571 109.712 666.363 109.624C666.163 109.528 665.955 109.44 665.739 109.36C665.467 109.256 665.199 109.14 664.935 109.012C664.671 108.876 664.455 108.704 664.287 108.496C664.119 108.28 664.035 108.008 664.035 107.68C664.035 107.208 664.211 106.816 664.563 106.504C664.923 106.184 665.419 106.024 666.051 106.024C666.411 106.024 666.747 106.088 667.059 106.216C667.371 106.344 667.639 106.5 667.863 106.684L667.383 107.308C667.183 107.156 666.975 107.032 666.759 106.936C666.543 106.84 666.307 106.792 666.051 106.792C665.683 106.792 665.411 106.876 665.235 107.044C665.067 107.212 664.983 107.408 664.983 107.632C664.983 107.816 665.043 107.968 665.163 108.088C665.283 108.2 665.439 108.3 665.631 108.388C665.823 108.468 666.027 108.552 666.243 108.64C666.523 108.744 666.799 108.864 667.071 109C667.343 109.128 667.567 109.304 667.743 109.528C667.927 109.744 668.019 110.036 668.019 110.404C668.019 110.716 667.935 111.004 667.767 111.268C667.607 111.532 667.367 111.744 667.047 111.904C666.735 112.064 666.347 112.144 665.883 112.144ZM671.654 112.144C671.182 112.144 670.738 112.024 670.322 111.784C669.914 111.544 669.582 111.196 669.326 110.74C669.078 110.284 668.954 109.736 668.954 109.096C668.954 108.44 669.078 107.884 669.326 107.428C669.582 106.972 669.914 106.624 670.322 106.384C670.738 106.144 671.182 106.024 671.654 106.024C672.134 106.024 672.578 106.144 672.986 106.384C673.394 106.624 673.722 106.972 673.97 107.428C674.226 107.884 674.354 108.44 674.354 109.096C674.354 109.736 674.226 110.284 673.97 110.74C673.722 111.196 673.394 111.544 672.986 111.784C672.578 112.024 672.134 112.144 671.654 112.144ZM671.654 111.328C672.158 111.328 672.562 111.124 672.866 110.716C673.178 110.3 673.334 109.76 673.334 109.096C673.334 108.424 673.178 107.88 672.866 107.464C672.562 107.048 672.158 106.84 671.654 106.84C671.158 106.84 670.754 107.048 670.442 107.464C670.13 107.88 669.974 108.424 669.974 109.096C669.974 109.76 670.13 110.3 670.442 110.716C670.754 111.124 671.158 111.328 671.654 111.328ZM678.194 112.144C677.682 112.144 677.218 112.024 676.802 111.784C676.386 111.544 676.058 111.196 675.818 110.74C675.578 110.284 675.458 109.736 675.458 109.096C675.458 108.44 675.586 107.884 675.842 107.428C676.106 106.972 676.45 106.624 676.874 106.384C677.306 106.144 677.77 106.024 678.266 106.024C678.65 106.024 678.978 106.092 679.25 106.228C679.53 106.364 679.77 106.524 679.97 106.708L679.466 107.356C679.298 107.204 679.118 107.08 678.926 106.984C678.742 106.888 678.534 106.84 678.302 106.84C677.95 106.84 677.634 106.936 677.354 107.128C677.082 107.312 676.866 107.576 676.706 107.92C676.554 108.256 676.478 108.648 676.478 109.096C676.478 109.76 676.642 110.3 676.97 110.716C677.306 111.124 677.742 111.328 678.278 111.328C678.55 111.328 678.802 111.272 679.034 111.16C679.266 111.04 679.47 110.9 679.646 110.74L680.078 111.4C679.814 111.632 679.522 111.816 679.202 111.952C678.882 112.08 678.546 112.144 678.194 112.144ZM681.363 112V103.456H682.335V109.24H682.371L684.855 106.168H685.947L683.991 108.508L686.211 112H685.131L683.427 109.192L682.335 110.464V112H681.363ZM689.457 112.144C688.937 112.144 688.465 112.024 688.041 111.784C687.617 111.536 687.281 111.184 687.033 110.728C686.785 110.272 686.661 109.728 686.661 109.096C686.661 108.456 686.785 107.908 687.033 107.452C687.289 106.996 687.617 106.644 688.017 106.396C688.417 106.148 688.837 106.024 689.277 106.024C690.021 106.024 690.593 106.272 690.993 106.768C691.401 107.264 691.605 107.928 691.605 108.76C691.605 108.864 691.601 108.968 691.593 109.072C691.593 109.168 691.585 109.252 691.569 109.324H687.633C687.673 109.94 687.865 110.432 688.209 110.8C688.561 111.168 689.017 111.352 689.577 111.352C689.857 111.352 690.113 111.312 690.345 111.232C690.585 111.144 690.813 111.032 691.029 110.896L691.377 111.544C691.129 111.704 690.845 111.844 690.525 111.964C690.213 112.084 689.857 112.144 689.457 112.144ZM687.621 108.616H690.741C690.741 108.024 690.613 107.576 690.357 107.272C690.109 106.96 689.757 106.804 689.301 106.804C688.893 106.804 688.525 106.964 688.197 107.284C687.877 107.596 687.685 108.04 687.621 108.616ZM694.765 112.144C694.141 112.144 693.705 111.964 693.457 111.604C693.217 111.244 693.097 110.776 693.097 110.2V106.972H692.233V106.228L693.145 106.168L693.265 104.536H694.093V106.168H695.665V106.972H694.093V110.212C694.093 110.572 694.157 110.852 694.285 111.052C694.421 111.244 694.657 111.34 694.993 111.34C695.097 111.34 695.209 111.324 695.329 111.292C695.449 111.252 695.557 111.216 695.653 111.184L695.845 111.928C695.685 111.984 695.509 112.032 695.317 112.072C695.133 112.12 694.949 112.144 694.765 112.144Z" fill="black"/>
<path d="M309.007 150V141.456H309.991V143.784L309.955 144.984C310.235 144.72 310.527 144.496 310.831 144.312C311.143 144.12 311.499 144.024 311.899 144.024C312.515 144.024 312.963 144.22 313.243 144.612C313.531 144.996 313.675 145.56 313.675 146.304V150H312.691V146.436C312.691 145.892 312.603 145.496 312.427 145.248C312.251 145 311.971 144.876 311.587 144.876C311.291 144.876 311.023 144.952 310.783 145.104C310.551 145.256 310.287 145.48 309.991 145.776V150H309.007ZM317.371 150.144C316.747 150.144 316.311 149.964 316.063 149.604C315.823 149.244 315.703 148.776 315.703 148.2V144.972H314.839V144.228L315.751 144.168L315.871 142.536H316.699V144.168H318.271V144.972H316.699V148.212C316.699 148.572 316.763 148.852 316.891 149.052C317.027 149.244 317.263 149.34 317.599 149.34C317.703 149.34 317.815 149.324 317.935 149.292C318.055 149.252 318.163 149.216 318.259 149.184L318.451 149.928C318.291 149.984 318.115 150.032 317.923 150.072C317.739 150.12 317.555 150.144 317.371 150.144ZM321.191 150.144C320.567 150.144 320.131 149.964 319.883 149.604C319.643 149.244 319.523 148.776 319.523 148.2V144.972H318.659V144.228L319.571 144.168L319.691 142.536H320.519V144.168H322.091V144.972H320.519V148.212C320.519 148.572 320.583 148.852 320.711 149.052C320.847 149.244 321.083 149.34 321.419 149.34C321.523 149.34 321.635 149.324 321.755 149.292C321.875 149.252 321.983 149.216 322.079 149.184L322.271 149.928C322.111 149.984 321.935 150.032 321.743 150.072C321.559 150.12 321.375 150.144 321.191 150.144ZM323.41 152.46V144.168H324.226L324.31 144.84H324.346C324.61 144.616 324.898 144.424 325.21 144.264C325.53 144.104 325.862 144.024 326.206 144.024C326.958 144.024 327.53 144.296 327.922 144.84C328.314 145.376 328.51 146.096 328.51 147C328.51 147.656 328.39 148.22 328.15 148.692C327.918 149.164 327.61 149.524 327.226 149.772C326.85 150.02 326.438 150.144 325.99 150.144C325.718 150.144 325.446 150.084 325.174 149.964C324.91 149.844 324.642 149.68 324.37 149.472L324.394 150.492V152.46H323.41ZM325.822 149.316C326.302 149.316 326.698 149.112 327.01 148.704C327.33 148.288 327.49 147.72 327.49 147C327.49 146.36 327.37 145.844 327.13 145.452C326.898 145.052 326.506 144.852 325.954 144.852C325.706 144.852 325.454 144.92 325.198 145.056C324.95 145.192 324.682 145.388 324.394 145.644V148.704C324.658 148.928 324.914 149.088 325.162 149.184C325.41 149.272 325.63 149.316 325.822 149.316ZM330.582 145.812C330.382 145.812 330.21 145.744 330.066 145.608C329.93 145.464 329.862 145.284 329.862 145.068C329.862 144.836 329.93 144.652 330.066 144.516C330.21 144.372 330.382 144.3 330.582 144.3C330.774 144.3 330.938 144.372 331.074 144.516C331.218 144.652 331.29 144.836 331.29 145.068C331.29 145.284 331.218 145.464 331.074 145.608C330.938 145.744 330.774 145.812 330.582 145.812ZM330.582 150.144C330.382 150.144 330.21 150.076 330.066 149.94C329.93 149.796 329.862 149.616 329.862 149.4C329.862 149.168 329.93 148.984 330.066 148.848C330.21 148.704 330.382 148.632 330.582 148.632C330.774 148.632 330.938 148.704 331.074 148.848C331.218 148.984 331.29 149.168 331.29 149.4C331.29 149.616 331.218 149.796 331.074 149.94C330.938 150.076 330.774 150.144 330.582 150.144ZM335.07 150.144C334.59 150.144 334.162 150.056 333.786 149.88C333.41 149.696 333.11 149.444 332.886 149.124C332.67 148.804 332.562 148.444 332.562 148.044C332.562 147.708 332.63 147.412 332.766 147.156C332.91 146.892 333.09 146.664 333.306 146.472C333.53 146.272 333.762 146.108 334.002 145.98V145.932C333.722 145.732 333.474 145.488 333.258 145.2C333.042 144.912 332.934 144.568 332.934 144.168C332.934 143.776 333.03 143.432 333.222 143.136C333.414 142.84 333.674 142.612 334.002 142.452C334.33 142.284 334.698 142.2 335.106 142.2C335.77 142.2 336.294 142.392 336.678 142.776C337.07 143.16 337.266 143.648 337.266 144.24C337.266 144.504 337.21 144.756 337.098 144.996C336.986 145.228 336.85 145.44 336.69 145.632C336.53 145.816 336.37 145.968 336.21 146.088V146.136C336.442 146.264 336.658 146.416 336.858 146.592C337.058 146.768 337.222 146.98 337.35 147.228C337.478 147.468 337.542 147.76 337.542 148.104C337.542 148.48 337.438 148.824 337.23 149.136C337.03 149.448 336.742 149.696 336.366 149.88C335.998 150.056 335.566 150.144 335.07 150.144ZM335.61 145.824C335.866 145.592 336.062 145.348 336.198 145.092C336.342 144.836 336.414 144.568 336.414 144.288C336.414 143.912 336.298 143.592 336.066 143.328C335.834 143.064 335.506 142.932 335.082 142.932C334.73 142.932 334.434 143.044 334.194 143.268C333.962 143.492 333.846 143.792 333.846 144.168C333.846 144.472 333.926 144.724 334.086 144.924C334.254 145.124 334.474 145.296 334.746 145.44C335.018 145.576 335.306 145.704 335.61 145.824ZM335.094 149.412C335.542 149.412 335.902 149.288 336.174 149.04C336.454 148.784 336.594 148.46 336.594 148.068C336.594 147.74 336.498 147.472 336.306 147.264C336.114 147.056 335.858 146.876 335.538 146.724C335.226 146.572 334.886 146.424 334.518 146.28C334.214 146.48 333.958 146.72 333.75 147C333.55 147.28 333.45 147.596 333.45 147.948C333.45 148.372 333.606 148.724 333.918 149.004C334.238 149.276 334.63 149.412 335.094 149.412ZM341.023 150.144C340.255 150.144 339.651 149.8 339.211 149.112C338.779 148.416 338.563 147.428 338.563 146.148C338.563 144.86 338.779 143.88 339.211 143.208C339.651 142.536 340.255 142.2 341.023 142.2C341.783 142.2 342.379 142.536 342.811 143.208C343.251 143.88 343.471 144.86 343.471 146.148C343.471 147.428 343.251 148.416 342.811 149.112C342.379 149.8 341.783 150.144 341.023 150.144ZM341.023 149.352C341.471 149.352 341.831 149.1 342.103 148.596C342.375 148.084 342.511 147.268 342.511 146.148C342.511 145.028 342.375 144.224 342.103 143.736C341.831 143.24 341.471 142.992 341.023 142.992C340.575 142.992 340.211 143.24 339.931 143.736C339.659 144.224 339.523 145.028 339.523 146.148C339.523 147.268 339.659 148.084 339.931 148.596C340.211 149.1 340.575 149.352 341.023 149.352ZM298.015 167V158.456H298.999V160.784L298.963 161.984C299.243 161.72 299.535 161.496 299.839 161.312C300.151 161.12 300.507 161.024 300.907 161.024C301.523 161.024 301.971 161.22 302.251 161.612C302.539 161.996 302.683 162.56 302.683 163.304V167H301.699V163.436C301.699 162.892 301.611 162.496 301.435 162.248C301.259 162 300.979 161.876 300.595 161.876C300.299 161.876 300.031 161.952 299.791 162.104C299.559 162.256 299.295 162.48 298.999 162.776V167H298.015ZM306.379 167.144C305.755 167.144 305.319 166.964 305.071 166.604C304.831 166.244 304.711 165.776 304.711 165.2V161.972H303.847V161.228L304.759 161.168L304.879 159.536H305.707V161.168H307.279V161.972H305.707V165.212C305.707 165.572 305.771 165.852 305.899 166.052C306.035 166.244 306.271 166.34 306.607 166.34C306.711 166.34 306.823 166.324 306.943 166.292C307.063 166.252 307.171 166.216 307.267 166.184L307.459 166.928C307.299 166.984 307.123 167.032 306.931 167.072C306.747 167.12 306.563 167.144 306.379 167.144ZM310.199 167.144C309.575 167.144 309.139 166.964 308.891 166.604C308.651 166.244 308.531 165.776 308.531 165.2V161.972H307.667V161.228L308.579 161.168L308.699 159.536H309.527V161.168H311.099V161.972H309.527V165.212C309.527 165.572 309.591 165.852 309.719 166.052C309.855 166.244 310.091 166.34 310.427 166.34C310.531 166.34 310.643 166.324 310.763 166.292C310.883 166.252 310.991 166.216 311.087 166.184L311.279 166.928C311.119 166.984 310.943 167.032 310.751 167.072C310.567 167.12 310.383 167.144 310.199 167.144ZM312.418 169.46V161.168H313.234L313.318 161.84H313.354C313.618 161.616 313.906 161.424 314.218 161.264C314.538 161.104 314.87 161.024 315.214 161.024C315.966 161.024 316.538 161.296 316.93 161.84C317.322 162.376 317.518 163.096 317.518 164C317.518 164.656 317.398 165.22 317.158 165.692C316.926 166.164 316.618 166.524 316.234 166.772C315.858 167.02 315.446 167.144 314.998 167.144C314.726 167.144 314.454 167.084 314.182 166.964C313.918 166.844 313.65 166.68 313.378 166.472L313.402 167.492V169.46H312.418ZM314.83 166.316C315.31 166.316 315.706 166.112 316.018 165.704C316.338 165.288 316.498 164.72 316.498 164C316.498 163.36 316.378 162.844 316.138 162.452C315.906 162.052 315.514 161.852 314.962 161.852C314.714 161.852 314.462 161.92 314.206 162.056C313.958 162.192 313.69 162.388 313.402 162.644V165.704C313.666 165.928 313.922 166.088 314.17 166.184C314.418 166.272 314.638 166.316 314.83 166.316ZM320.598 167.144C320.182 167.144 319.786 167.068 319.41 166.916C319.034 166.756 318.706 166.564 318.426 166.34L318.918 165.68C319.174 165.88 319.438 166.048 319.71 166.184C319.982 166.312 320.29 166.376 320.634 166.376C321.018 166.376 321.306 166.288 321.498 166.112C321.69 165.928 321.786 165.712 321.786 165.464C321.786 165.264 321.718 165.096 321.582 164.96C321.454 164.824 321.286 164.712 321.078 164.624C320.878 164.528 320.67 164.44 320.454 164.36C320.182 164.256 319.914 164.14 319.65 164.012C319.386 163.876 319.17 163.704 319.002 163.496C318.834 163.28 318.75 163.008 318.75 162.68C318.75 162.208 318.926 161.816 319.278 161.504C319.638 161.184 320.134 161.024 320.766 161.024C321.126 161.024 321.462 161.088 321.774 161.216C322.086 161.344 322.354 161.5 322.578 161.684L322.098 162.308C321.898 162.156 321.69 162.032 321.474 161.936C321.258 161.84 321.022 161.792 320.766 161.792C320.398 161.792 320.126 161.876 319.95 162.044C319.782 162.212 319.698 162.408 319.698 162.632C319.698 162.816 319.758 162.968 319.878 163.088C319.998 163.2 320.154 163.3 320.346 163.388C320.538 163.468 320.742 163.552 320.958 163.64C321.238 163.744 321.514 163.864 321.786 164C322.058 164.128 322.282 164.304 322.458 164.528C322.642 164.744 322.734 165.036 322.734 165.404C322.734 165.716 322.65 166.004 322.482 166.268C322.322 166.532 322.082 166.744 321.762 166.904C321.45 167.064 321.062 167.144 320.598 167.144ZM324.617 162.812C324.417 162.812 324.245 162.744 324.101 162.608C323.965 162.464 323.897 162.284 323.897 162.068C323.897 161.836 323.965 161.652 324.101 161.516C324.245 161.372 324.417 161.3 324.617 161.3C324.809 161.3 324.973 161.372 325.109 161.516C325.253 161.652 325.325 161.836 325.325 162.068C325.325 162.284 325.253 162.464 325.109 162.608C324.973 162.744 324.809 162.812 324.617 162.812ZM324.617 167.144C324.417 167.144 324.245 167.076 324.101 166.94C323.965 166.796 323.897 166.616 323.897 166.4C323.897 166.168 323.965 165.984 324.101 165.848C324.245 165.704 324.417 165.632 324.617 165.632C324.809 165.632 324.973 165.704 325.109 165.848C325.253 165.984 325.325 166.168 325.325 166.4C325.325 166.616 325.253 166.796 325.109 166.94C324.973 167.076 324.809 167.144 324.617 167.144ZM327.353 164.096H329.753V161.876C329.753 161.668 329.761 161.42 329.777 161.132C329.793 160.844 329.805 160.6 329.813 160.4H329.765C329.669 160.584 329.569 160.764 329.465 160.94C329.361 161.116 329.253 161.296 329.141 161.48L327.353 164.096ZM329.753 167V164.888H326.309V164.24L329.585 159.344H330.689V164.096H331.733V164.888H330.689V167H329.753ZM333.318 164.096H335.718V161.876C335.718 161.668 335.726 161.42 335.742 161.132C335.758 160.844 335.77 160.6 335.778 160.4H335.73C335.634 160.584 335.534 160.764 335.43 160.94C335.326 161.116 335.218 161.296 335.106 161.48L333.318 164.096ZM335.718 167V164.888H332.274V164.24L335.55 159.344H336.654V164.096H337.698V164.888H336.654V167H335.718ZM340.867 167.144C340.259 167.144 339.751 167.036 339.343 166.82C338.935 166.596 338.603 166.344 338.347 166.064L338.851 165.416C339.083 165.656 339.355 165.868 339.667 166.052C339.979 166.236 340.359 166.328 340.807 166.328C341.271 166.328 341.651 166.2 341.947 165.944C342.243 165.688 342.391 165.348 342.391 164.924C342.391 164.62 342.311 164.356 342.151 164.132C341.999 163.9 341.743 163.72 341.383 163.592C341.031 163.464 340.551 163.4 339.943 163.4V162.644C340.487 162.644 340.915 162.58 341.227 162.452C341.547 162.324 341.775 162.152 341.911 161.936C342.047 161.72 342.115 161.48 342.115 161.216C342.115 160.84 341.995 160.544 341.755 160.328C341.523 160.112 341.203 160.004 340.795 160.004C340.475 160.004 340.179 160.076 339.907 160.22C339.643 160.364 339.395 160.552 339.163 160.784L338.635 160.16C338.931 159.88 339.259 159.652 339.619 159.476C339.979 159.292 340.383 159.2 340.831 159.2C341.495 159.2 342.043 159.372 342.475 159.716C342.907 160.052 343.123 160.528 343.123 161.144C343.123 161.608 342.995 161.988 342.739 162.284C342.483 162.58 342.147 162.808 341.731 162.968V163.016C342.195 163.12 342.587 163.34 342.907 163.676C343.227 164.004 343.387 164.432 343.387 164.96C343.387 165.408 343.275 165.796 343.051 166.124C342.827 166.452 342.523 166.704 342.139 166.88C341.763 167.056 341.339 167.144 340.867 167.144Z" fill="black"/>
<rect y="64" width="128" height="128" rx="3" fill="#ECEDF2"/>
<path d="M41.3815 134.216C40.3975 134.216 39.5035 133.982 38.6995 133.514C37.8955 133.046 37.2535 132.362 36.7735 131.462C36.3055 130.55 36.0715 129.446 36.0715 128.15C36.0715 126.866 36.3115 125.768 36.7915 124.856C37.2835 123.932 37.9375 123.23 38.7535 122.75C39.5695 122.258 40.4695 122.012 41.4535 122.012C42.1975 122.012 42.8575 122.162 43.4335 122.462C44.0095 122.762 44.4835 123.11 44.8555 123.506L43.7395 124.856C43.4395 124.544 43.1035 124.298 42.7315 124.118C42.3715 123.926 41.9635 123.83 41.5075 123.83C40.8715 123.83 40.3015 124.004 39.7975 124.352C39.3055 124.688 38.9155 125.174 38.6275 125.81C38.3515 126.446 38.2135 127.208 38.2135 128.096C38.2135 129.44 38.5075 130.496 39.0955 131.264C39.6835 132.02 40.4695 132.398 41.4535 132.398C41.9815 132.398 42.4495 132.29 42.8575 132.074C43.2655 131.846 43.6375 131.552 43.9735 131.192L45.0895 132.506C44.6095 133.058 44.0575 133.484 43.4335 133.784C42.8215 134.072 42.1375 134.216 41.3815 134.216ZM50.6545 134.216C49.8385 134.216 49.1005 134.036 48.4405 133.676C47.7805 133.304 47.2585 132.776 46.8745 132.092C46.4905 131.396 46.2985 130.562 46.2985 129.59C46.2985 128.63 46.4905 127.802 46.8745 127.106C47.2705 126.41 47.7805 125.876 48.4045 125.504C49.0285 125.132 49.6825 124.946 50.3665 124.946C51.1705 124.946 51.8425 125.126 52.3825 125.486C52.9225 125.834 53.3305 126.326 53.6065 126.962C53.8825 127.586 54.0205 128.312 54.0205 129.14C54.0205 129.572 53.9905 129.908 53.9305 130.148H48.3145C48.4105 130.928 48.6925 131.534 49.1605 131.966C49.6285 132.398 50.2165 132.614 50.9245 132.614C51.3085 132.614 51.6625 132.56 51.9865 132.452C52.3225 132.332 52.6525 132.17 52.9765 131.966L53.6785 133.262C53.2585 133.538 52.7905 133.766 52.2745 133.946C51.7585 134.126 51.2185 134.216 50.6545 134.216ZM48.2965 128.744H52.2205C52.2205 128.06 52.0705 127.526 51.7705 127.142C51.4705 126.746 51.0205 126.548 50.4205 126.548C49.9045 126.548 49.4425 126.74 49.0345 127.124C48.6385 127.496 48.3925 128.036 48.2965 128.744ZM55.9976 137.492V125.162H57.7076L57.8516 126.098H57.9236C58.2956 125.786 58.7096 125.516 59.1656 125.288C59.6336 125.06 60.1076 124.946 60.5876 124.946C61.6916 124.946 62.5436 125.354 63.1436 126.17C63.7556 126.986 64.0616 128.078 64.0616 129.446C64.0616 130.454 63.8816 131.318 63.5216 132.038C63.1616 132.746 62.6936 133.286 62.1176 133.658C61.5536 134.03 60.9416 134.216 60.2816 134.216C59.8976 134.216 59.5136 134.132 59.1296 133.964C58.7456 133.784 58.3736 133.544 58.0136 133.244L58.0676 134.72V137.492H55.9976ZM59.8496 132.506C60.4376 132.506 60.9296 132.248 61.3256 131.732C61.7216 131.216 61.9196 130.46 61.9196 129.464C61.9196 128.576 61.7696 127.886 61.4696 127.394C61.1696 126.902 60.6836 126.656 60.0116 126.656C59.3876 126.656 58.7396 126.986 58.0676 127.646V131.768C58.3916 132.032 58.7036 132.224 59.0036 132.344C59.3036 132.452 59.5856 132.506 59.8496 132.506ZM66.1578 134V125.162H69.7398C70.3998 125.162 70.9818 125.234 71.4858 125.378C72.0018 125.522 72.4098 125.762 72.7098 126.098C73.0098 126.434 73.1598 126.884 73.1598 127.448C73.1598 127.88 73.0338 128.264 72.7818 128.6C72.5418 128.924 72.1758 129.158 71.6838 129.302V129.374C72.2118 129.494 72.6498 129.722 72.9978 130.058C73.3458 130.382 73.5198 130.85 73.5198 131.462C73.5198 132.05 73.3578 132.536 73.0338 132.92C72.7218 133.292 72.2958 133.568 71.7558 133.748C71.2158 133.916 70.6038 134 69.9198 134H66.1578ZM68.1918 128.744H69.5418C70.1178 128.744 70.5318 128.648 70.7838 128.456C71.0358 128.264 71.1618 128 71.1618 127.664C71.1618 127.316 71.0418 127.046 70.8018 126.854C70.5618 126.662 70.1598 126.566 69.5957 126.566H68.1918V128.744ZM68.1918 132.596H69.7758C70.3758 132.596 70.8078 132.482 71.0718 132.254C71.3478 132.026 71.4858 131.72 71.4858 131.336C71.4858 130.976 71.3358 130.688 71.0358 130.472C70.7478 130.256 70.3038 130.148 69.7038 130.148H68.1918V132.596ZM75.4742 134V125.162H77.4902V128.204C77.4902 128.66 77.4662 129.17 77.4182 129.734C77.3822 130.286 77.3462 130.844 77.3102 131.408H77.3642C77.5202 131.132 77.7062 130.82 77.9222 130.472C78.1382 130.112 78.3182 129.8 78.4622 129.536L81.2702 125.162H83.1782V134H81.1622V130.958C81.1622 130.502 81.1802 129.992 81.2162 129.428C81.2642 128.864 81.3122 128.306 81.3602 127.754H81.2882C81.1322 128.018 80.9462 128.33 80.7302 128.69C80.5262 129.05 80.3462 129.362 80.1902 129.626L77.3822 134H75.4742ZM89.5001 134.216C88.6961 134.216 87.9701 134.036 87.3221 133.676C86.6861 133.304 86.1761 132.776 85.7921 132.092C85.4201 131.396 85.2341 130.562 85.2341 129.59C85.2341 128.606 85.4381 127.772 85.8461 127.088C86.2541 126.392 86.7941 125.864 87.4661 125.504C88.1501 125.132 88.8821 124.946 89.6621 124.946C90.2261 124.946 90.7181 125.042 91.1381 125.234C91.5581 125.426 91.9301 125.66 92.2541 125.936L91.2461 127.286C91.0181 127.082 90.7841 126.926 90.5441 126.818C90.3041 126.698 90.0461 126.638 89.7701 126.638C89.0621 126.638 88.4801 126.908 88.0241 127.448C87.5801 127.988 87.3581 128.702 87.3581 129.59C87.3581 130.466 87.5741 131.174 88.0061 131.714C88.4501 132.254 89.0201 132.524 89.7161 132.524C90.0641 132.524 90.3881 132.452 90.6881 132.308C91.0001 132.152 91.2821 131.972 91.5341 131.768L92.3801 133.136C91.9721 133.496 91.5161 133.766 91.0121 133.946C90.5081 134.126 90.0041 134.216 89.5001 134.216Z" fill="#333333"/>
<path d="M488 168H691" stroke="#F7931E" stroke-width="2"/>
<path d="M696 167.999C696 167.999 686 173 686 173L687.999 167.999L686 163C686 163 696 167.999 696 167.999Z" fill="#F7931E"/>
</svg>
