<?xml version="1.0" encoding="UTF-8"?>
<svg width="792px" height="564px" viewBox="0 0 792 564" version="1.1" xmlns="http://www.w3.org/2000/svg" xmlns:xlink="http://www.w3.org/1999/xlink">
    <!-- Generator: Sketch 63 (92445) - https://sketch.com -->
    <title>loginom-desktop-comparison</title>
    <desc>Created with Sketch.</desc>
    <g id="loginom-desktop-comparison" stroke="none" stroke-width="1" fill="none" fill-rule="evenodd">
        <rect fill="#FFFFFF" x="0" y="0" width="792" height="564"></rect>
        <rect id="Rectangle" fill="#E3EFF8" x="306" y="107" width="180" height="354" rx="3"></rect>
        <g id="img/pc" transform="translate(321.000000, 232.000000)">
            <path d="M4,0 L146,0 C148.209139,-4.05812251e-16 150,1.790861 150,4 L150,80.3571429 L150,80.3571429 L0,80.3571429 L0,4 C-2.705415e-16,1.790861 1.790861,4.05812251e-16 4,0 Z" id="Rectangle" fill="#83BCE8"></path>
            <path d="M4,80.3571429 L146,80.3571429 C148.209139,80.3571429 150,82.1480039 150,84.3571429 L150,93.75 L150,93.75 L0,93.75 L0,84.3571429 C-2.705415e-16,82.1480039 1.790861,80.3571429 4,80.3571429 Z" id="Rectangle-Copy" fill="#73B0DE" transform="translate(75.000000, 87.053571) scale(1, -1) translate(-75.000000, -87.053571) "></path>
            <polygon id="Fill-6" fill="#77AAD0" points="95.0892857 109.821429 54.9107143 109.821429 57.542441 93.75 92.457559 93.75"></polygon>
            <path d="M100.448134,112.5 L49.551866,112.5 C48.8121841,112.5 48.2142857,111.9 48.2142857,111.160714 C48.2142857,110.421429 48.8121841,109.821429 49.551866,109.821429 L100.448134,109.821429 C101.186478,109.821429 101.785714,110.421429 101.785714,111.160714 C101.785714,111.9 101.186478,112.5 100.448134,112.5" id="Fill-8" fill="#73B0DE"></path>
        </g>
        <path d="M723,254 L723,387.064748 C723,388.685843 721.656854,390 720,390 L546,390 C544.343146,390 543,388.685843 543,387.064748 L543,254 L723,254 Z" id="Path" fill="#ECEDF2"></path>
        <path d="M543,110 C543,108.343146 544.343146,107 546,107 L720,107 C721.656854,107 723,108.343146 723,110 L723,246 L543,246 L543,110 Z" id="Path" fill="#ECEDF2"></path>
        <polyline id="Path" stroke="#73B0DE" stroke-width="4" points="135 46 760 46 760 522 32 522 32 46 64 46"></polyline>
        <path d="M226,82 L398.95921,82 L735,82 L735,250 L727.132494,250 M539.015214,250 L515,250 L515,434 M515,444 L515,486 L57,486 L57,82 L84,82" id="Shape" stroke="#8D4390" stroke-width="2"></path>
        <path d="M72.784,51 L72.784,46.84 L74.496,46.84 C76.8,46.84 78.384,45.816 78.384,43.592 C78.384,41.288 76.784,40.504 74.432,40.504 L71.44,40.504 L71.44,51 L72.784,51 Z M74.336,45.752 L72.784,45.752 L72.784,41.592 L74.272,41.592 C76.112,41.592 77.04,42.088 77.04,43.592 C77.04,45.08 76.16,45.752 74.336,45.752 Z M83.136,51.192 C84.208,51.192 85.04,50.872 85.712,50.392 L85.248,49.544 C84.704,49.912 84.048,50.12 83.296,50.12 C81.824,50.12 80.848,49.064 80.736,47.464 L85.968,47.464 C86.016,47.208 86.032,46.968 86.032,46.68 C86.032,44.44 84.896,43.032 82.912,43.032 C81.136,43.032 79.424,44.584 79.424,47.112 C79.424,49.688 81.056,51.192 83.136,51.192 Z M84.848,46.44 L80.736,46.44 C80.896,44.952 81.856,44.088 82.944,44.088 C84.128,44.088 84.848,44.904 84.848,46.44 Z M89.264,51 L89.264,46.008 C89.792,44.696 90.576,44.232 91.232,44.232 C91.536,44.232 91.712,44.264 91.936,44.328 L92.224,43.192 C91.984,43.08 91.744,43.032 91.392,43.032 C90.528,43.032 89.728,43.656 89.184,44.632 L89.136,44.632 L89.024,43.224 L87.936,43.224 L87.936,51 L89.264,51 Z M95.472,51.192 C97.312,51.192 98.32,50.136 98.32,48.872 C98.32,47.464 97.152,46.936 95.936,46.504 C94.96,46.168 94.288,45.88 94.288,45.176 C94.288,44.6 94.72,44.056 95.712,44.056 C96.4,44.056 96.96,44.28 97.504,44.68 L98.112,43.912 C97.504,43.4 96.672,43.032 95.696,43.032 C94,43.032 93.008,43.992 93.008,45.24 C93.008,46.52 94.128,47.08 95.296,47.496 C96.176,47.816 97.04,48.152 97.04,48.952 C97.04,49.624 96.544,50.152 95.52,50.152 C94.56,50.152 93.856,49.864 93.184,49.304 L92.576,50.072 C93.296,50.776 94.336,51.192 95.472,51.192 Z M103.168,51.192 C105.072,51.192 106.784,49.704 106.784,47.128 C106.784,44.52 105.072,43.032 103.168,43.032 C101.264,43.032 99.568,44.52 99.568,47.128 C99.568,49.704 101.264,51.192 103.168,51.192 Z M103.168,50.088 C101.84,50.088 100.944,48.904 100.944,47.128 C100.944,45.336 101.84,44.136 103.168,44.136 C104.512,44.136 105.408,45.336 105.408,47.128 C105.408,48.904 104.512,50.088 103.168,50.088 Z M110.144,51 L110.144,45.368 C110.912,44.584 111.472,44.184 112.256,44.184 C113.28,44.184 113.728,44.792 113.728,46.248 L113.728,51 L115.056,51 L115.056,46.072 C115.056,44.088 114.32,43.032 112.672,43.032 C111.6,43.032 110.8,43.608 110.064,44.344 L110.016,44.344 L109.904,43.224 L108.816,43.224 L108.816,51 L110.144,51 Z M119.36,51.192 C120.336,51.192 121.184,50.696 121.92,50.072 L121.968,50.072 L122.096,51 L123.184,51 L123.184,46.216 C123.184,44.296 122.368,43.032 120.48,43.032 C119.232,43.032 118.144,43.56 117.424,44.04 L117.936,44.936 C118.544,44.536 119.36,44.136 120.256,44.136 C121.52,44.136 121.84,45.08 121.856,46.056 C118.528,46.424 117.088,47.256 117.088,48.984 C117.088,50.392 118.064,51.192 119.36,51.192 Z M119.728,50.104 C118.976,50.104 118.384,49.768 118.384,48.904 C118.384,47.896 119.232,47.304 121.856,47 L121.856,49.112 C121.104,49.768 120.48,50.104 119.728,50.104 Z M127.024,51.192 C127.36,51.192 127.6,51.144 127.792,51.048 L127.616,50.056 C127.488,50.088 127.424,50.088 127.344,50.088 C127.136,50.088 126.96,49.944 126.96,49.528 L126.96,39.608 L125.632,39.608 L125.632,49.432 C125.632,50.552 126.032,51.192 127.024,51.192 Z" id="Personal" fill="#5EA3D6" fill-rule="nonzero"></path>
        <path d="M95.408,87.192 C96.752,87.192 97.776,86.648 98.624,85.672 L97.888,84.872 C97.216,85.608 96.464,86.008 95.456,86.008 C93.472,86.008 92.224,84.36 92.224,81.72 C92.224,79.112 93.536,77.496 95.504,77.496 C96.4,77.496 97.088,77.864 97.648,78.44 L98.384,77.608 C97.76,76.92 96.768,76.312 95.488,76.312 C92.816,76.312 90.832,78.376 90.832,81.752 C90.832,85.176 92.784,87.192 95.408,87.192 Z M103.472,87.192 C105.376,87.192 107.088,85.704 107.088,83.128 C107.088,80.52 105.376,79.032 103.472,79.032 C101.568,79.032 99.872,80.52 99.872,83.128 C99.872,85.704 101.568,87.192 103.472,87.192 Z M103.472,86.088 C102.144,86.088 101.248,84.904 101.248,83.128 C101.248,81.336 102.144,80.136 103.472,80.136 C104.816,80.136 105.712,81.336 105.712,83.128 C105.712,84.904 104.816,86.088 103.472,86.088 Z M110.448,87 L110.448,81.368 C111.168,80.568 111.808,80.184 112.384,80.184 C113.376,80.184 113.824,80.792 113.824,82.248 L113.824,87 L115.152,87 L115.152,81.368 C115.872,80.568 116.496,80.184 117.104,80.184 C118.08,80.184 118.544,80.792 118.544,82.248 L118.544,87 L119.872,87 L119.872,82.072 C119.872,80.088 119.104,79.032 117.504,79.032 C116.56,79.032 115.744,79.64 114.944,80.504 C114.624,79.592 113.984,79.032 112.784,79.032 C111.856,79.032 111.056,79.608 110.368,80.344 L110.32,80.344 L110.208,79.224 L109.12,79.224 L109.12,87 L110.448,87 Z M123.712,87 L123.712,81.368 C124.432,80.568 125.072,80.184 125.648,80.184 C126.64,80.184 127.088,80.792 127.088,82.248 L127.088,87 L128.416,87 L128.416,81.368 C129.136,80.568 129.76,80.184 130.368,80.184 C131.344,80.184 131.808,80.792 131.808,82.248 L131.808,87 L133.136,87 L133.136,82.072 C133.136,80.088 132.368,79.032 130.768,79.032 C129.824,79.032 129.008,79.64 128.208,80.504 C127.888,79.592 127.248,79.032 126.048,79.032 C125.12,79.032 124.32,79.608 123.632,80.344 L123.584,80.344 L123.472,79.224 L122.384,79.224 L122.384,87 L123.712,87 Z M137.92,87.192 C138.992,87.192 139.76,86.632 140.48,85.784 L140.528,85.784 L140.64,87 L141.728,87 L141.728,79.224 L140.4,79.224 L140.4,84.728 C139.68,85.64 139.12,86.04 138.336,86.04 C137.312,86.04 136.864,85.416 136.864,83.976 L136.864,79.224 L135.536,79.224 L135.536,84.152 C135.536,86.136 136.272,87.192 137.92,87.192 Z M145.68,87 L145.68,81.368 C146.448,80.584 147.008,80.184 147.792,80.184 C148.816,80.184 149.264,80.792 149.264,82.248 L149.264,87 L150.592,87 L150.592,82.072 C150.592,80.088 149.856,79.032 148.208,79.032 C147.136,79.032 146.336,79.608 145.6,80.344 L145.552,80.344 L145.44,79.224 L144.352,79.224 L144.352,87 L145.68,87 Z M153.776,77.624 C154.288,77.624 154.656,77.288 154.656,76.76 C154.656,76.248 154.288,75.896 153.776,75.896 C153.264,75.896 152.896,76.248 152.896,76.76 C152.896,77.288 153.264,77.624 153.776,77.624 Z M154.432,87 L154.432,79.224 L153.104,79.224 L153.104,87 L154.432,87 Z M159.504,87.192 C160.032,87.192 160.56,87.048 160.976,86.856 L160.704,85.912 C160.384,86.056 160.096,86.104 159.808,86.104 C158.928,86.104 158.608,85.56 158.608,84.616 L158.608,80.296 L160.72,80.296 L160.72,79.224 L158.608,79.224 L158.608,76.728 L157.504,76.728 L157.344,79.224 L156.128,79.304 L156.128,80.296 L157.28,80.296 L157.28,84.584 C157.28,86.136 157.84,87.192 159.504,87.192 Z M162.624,90.344 C164.176,90.344 164.992,89.176 165.536,87.64 L168.464,79.224 L167.168,79.224 L165.776,83.512 C165.568,84.2 165.344,85 165.136,85.704 L165.072,85.704 C164.816,84.984 164.56,84.184 164.304,83.512 L162.736,79.224 L161.36,79.224 L164.48,87.016 L164.304,87.592 C163.984,88.552 163.424,89.24 162.56,89.24 C162.368,89.24 162.176,89.208 161.984,89.144 L161.696,90.184 C161.952,90.28 162.256,90.344 162.624,90.344 Z M179.504,87 L179.504,85.864 L174.64,85.864 L174.64,82.056 L178.608,82.056 L178.608,80.92 L174.64,80.92 L174.64,77.64 L179.344,77.64 L179.344,76.504 L173.296,76.504 L173.296,87 L179.504,87 Z M184.096,87.192 C185.008,87.192 185.84,86.68 186.448,86.088 L186.496,86.088 L186.608,87 L187.696,87 L187.696,75.608 L186.368,75.608 L186.368,78.6 L186.432,79.928 C185.744,79.368 185.152,79.032 184.256,79.032 C182.48,79.032 180.88,80.6 180.88,83.128 C180.88,85.72 182.144,87.192 184.096,87.192 Z M184.384,86.072 C183.024,86.072 182.256,84.968 182.256,83.112 C182.256,81.336 183.248,80.152 184.48,80.152 C185.12,80.152 185.712,80.36 186.368,80.952 L186.368,85.016 C185.728,85.72 185.104,86.072 184.384,86.072 Z M190.992,77.624 C191.504,77.624 191.872,77.288 191.872,76.76 C191.872,76.248 191.504,75.896 190.992,75.896 C190.48,75.896 190.112,76.248 190.112,76.76 C190.112,77.288 190.48,77.624 190.992,77.624 Z M191.648,87 L191.648,79.224 L190.32,79.224 L190.32,87 L191.648,87 Z M196.72,87.192 C197.248,87.192 197.776,87.048 198.192,86.856 L197.92,85.912 C197.6,86.056 197.312,86.104 197.024,86.104 C196.144,86.104 195.824,85.56 195.824,84.616 L195.824,80.296 L197.936,80.296 L197.936,79.224 L195.824,79.224 L195.824,76.728 L194.72,76.728 L194.56,79.224 L193.344,79.304 L193.344,80.296 L194.496,80.296 L194.496,84.584 C194.496,86.136 195.056,87.192 196.72,87.192 Z M200.368,77.624 C200.88,77.624 201.248,77.288 201.248,76.76 C201.248,76.248 200.88,75.896 200.368,75.896 C199.856,75.896 199.488,76.248 199.488,76.76 C199.488,77.288 199.856,77.624 200.368,77.624 Z M201.024,87 L201.024,79.224 L199.696,79.224 L199.696,87 L201.024,87 Z M206.672,87.192 C208.576,87.192 210.288,85.704 210.288,83.128 C210.288,80.52 208.576,79.032 206.672,79.032 C204.768,79.032 203.072,80.52 203.072,83.128 C203.072,85.704 204.768,87.192 206.672,87.192 Z M206.672,86.088 C205.344,86.088 204.448,84.904 204.448,83.128 C204.448,81.336 205.344,80.136 206.672,80.136 C208.016,80.136 208.912,81.336 208.912,83.128 C208.912,84.904 208.016,86.088 206.672,86.088 Z M213.648,87 L213.648,81.368 C214.416,80.584 214.976,80.184 215.76,80.184 C216.784,80.184 217.232,80.792 217.232,82.248 L217.232,87 L218.56,87 L218.56,82.072 C218.56,80.088 217.824,79.032 216.176,79.032 C215.104,79.032 214.304,79.608 213.568,80.344 L213.52,80.344 L213.408,79.224 L212.32,79.224 L212.32,87 L213.648,87 Z" id="CommunityEdition" fill="#8D4390" fill-rule="nonzero"></path>
        <g id="Group" transform="translate(69.000000, 369.000000)">
            <g id="img/cloud-hight" fill="#ECEDF2">
                <path d="M25.4464286,92 C11.3321,91.6428493 0,80.3058128 0,66.3714286 C0,53.6466719 9.45004353,43.0878905 21.8387575,41.084912 C21.5701148,39.9184057 21.4285714,38.7039953 21.4285714,37.4571429 C21.4285714,28.3838934 28.9238044,21.0285714 38.1696429,21.0285714 C41.6550396,21.0285714 44.8916651,22.0738054 47.5717824,23.8622809 C54.8472136,9.70746578 69.7951784,0 87.0535714,0 C111.462585,0 131.25,19.41805 131.25,43.3714286 C131.25,44.0054688 131.236136,44.6363313 131.208689,45.2637402 C141.964695,47.6378853 150,57.0695145 150,68.3428571 C150,81.4083364 139.206865,92 125.892857,92 L125.892857,92 L25.4464286,92 Z" id="Combined-Shape-Copy"></path>
            </g>
            <path d="M34.168,60 L34.168,55.568 L36.056,55.568 L38.584,60 L40.104,60 L37.432,55.424 C38.856,55.056 39.784,54.096 39.784,52.464 C39.784,50.272 38.248,49.504 36.104,49.504 L32.824,49.504 L32.824,60 L34.168,60 Z M35.912,54.48 L34.168,54.48 L34.168,50.592 L35.912,50.592 C37.544,50.592 38.44,51.088 38.44,52.464 C38.44,53.808 37.544,54.48 35.912,54.48 Z M48.152,60 L48.152,58.864 L43.288,58.864 L43.288,55.056 L47.256,55.056 L47.256,53.92 L43.288,53.92 L43.288,50.64 L47.992,50.64 L47.992,49.504 L41.944,49.504 L41.944,60 L48.152,60 Z M53.288,60.192 C55.496,60.192 56.872,58.864 56.872,57.2 C56.872,55.648 55.928,54.912 54.712,54.4 L53.208,53.744 C52.392,53.408 51.48,53.024 51.48,52.016 C51.48,51.088 52.248,50.496 53.416,50.496 C54.328,50.496 55.144,50.864 55.784,51.472 L56.52,50.576 C55.784,49.84 54.696,49.312 53.416,49.312 C51.512,49.312 50.12,50.496 50.12,52.096 C50.12,53.648 51.256,54.384 52.232,54.8 L53.752,55.472 C54.728,55.904 55.496,56.24 55.496,57.312 C55.496,58.32 54.68,59.008 53.304,59.008 C52.2,59.008 51.128,58.528 50.36,57.744 L49.608,58.624 C50.52,59.6 51.784,60.192 53.288,60.192 Z M62.12,60 L62.12,50.64 L65.304,50.64 L65.304,49.504 L57.608,49.504 L57.608,50.64 L60.776,50.64 L60.776,60 L62.12,60 Z M68.904,56.496 L68.904,55.472 L65.224,55.472 L65.224,56.496 L68.904,56.496 Z M73.064,60.192 C74.744,60.192 76.2,59.296 76.2,57.856 C76.2,56.736 75.496,56.16 74.584,55.92 L74.584,55.856 C75.4,55.536 75.88,54.88 75.88,54.128 C75.88,52.704 74.568,52.032 73.048,52.032 C71.912,52.032 71.064,52.368 70.312,52.896 L70.872,53.76 C71.496,53.312 72.088,53.072 72.984,53.072 C73.928,53.072 74.6,53.456 74.6,54.256 C74.6,54.992 73.976,55.456 72.728,55.456 L71.832,55.456 L71.832,56.464 L72.904,56.464 C74.2,56.464 74.904,56.896 74.904,57.744 C74.904,58.608 74.04,59.152 72.968,59.152 C72.184,59.152 71.416,58.944 70.696,58.352 L70.136,59.2 C71.048,59.952 71.992,60.192 73.064,60.192 Z M79.944,60.192 C80.92,60.192 81.768,59.696 82.504,59.072 L82.552,59.072 L82.68,60 L83.768,60 L83.768,55.216 C83.768,53.296 82.952,52.032 81.064,52.032 C79.816,52.032 78.728,52.56 78.008,53.04 L78.52,53.936 C79.128,53.536 79.944,53.136 80.84,53.136 C82.104,53.136 82.424,54.08 82.44,55.056 C79.112,55.424 77.672,56.256 77.672,57.984 C77.672,59.392 78.648,60.192 79.944,60.192 Z M80.312,59.104 C79.56,59.104 78.968,58.768 78.968,57.904 C78.968,56.896 79.816,56.304 82.44,56 L82.44,58.112 C81.688,58.768 81.064,59.104 80.312,59.104 Z M87.56,60 L87.56,53.296 L91.128,53.296 L91.128,60 L92.456,60 L92.456,52.224 L86.232,52.224 L86.232,60 L87.56,60 Z M96.408,63.28 L96.408,60.656 L96.376,59.296 C97.08,59.856 97.816,60.192 98.52,60.192 C100.296,60.192 101.896,58.64 101.896,56 C101.896,53.584 100.808,52.032 98.808,52.032 C97.912,52.032 97.032,52.528 96.328,53.12 L96.28,53.12 L96.168,52.224 L95.08,52.224 L95.08,63.28 L96.408,63.28 Z M98.296,59.072 C97.784,59.072 97.112,58.864 96.408,58.272 L96.408,54.208 C97.16,53.504 97.816,53.152 98.472,53.152 C99.928,53.152 100.52,54.288 100.52,56 C100.52,57.92 99.576,59.072 98.296,59.072 Z M106.984,60.192 C108.888,60.192 110.6,58.704 110.6,56.128 C110.6,53.52 108.888,52.032 106.984,52.032 C105.08,52.032 103.384,53.52 103.384,56.128 C103.384,58.704 105.08,60.192 106.984,60.192 Z M106.984,59.088 C105.656,59.088 104.76,57.904 104.76,56.128 C104.76,54.336 105.656,53.136 106.984,53.136 C108.328,53.136 109.224,54.336 109.224,56.128 C109.224,57.904 108.328,59.088 106.984,59.088 Z M115.704,60.192 C116.632,60.192 117.512,59.84 118.216,59.2 L117.64,58.352 C117.176,58.768 116.536,59.088 115.816,59.088 C114.392,59.088 113.432,57.904 113.432,56.128 C113.432,54.336 114.456,53.136 115.864,53.136 C116.488,53.136 116.984,53.376 117.416,53.776 L118.072,52.944 C117.528,52.432 116.824,52.032 115.8,52.032 C113.8,52.032 112.056,53.52 112.056,56.128 C112.056,58.704 113.64,60.192 115.704,60.192 Z" id="REST-запрос" fill="#333333" fill-rule="nonzero"></path>
        </g>
        <g id="arrea/area-2-angle-copy-5" transform="translate(69.000000, 205.000000)">
            <path d="M20,0 L150,0 L150,0 L150,44 C150,55.045695 141.045695,64 130,64 L0,64 L0,64 L0,20 C-1.3527075e-15,8.954305 8.954305,2.02906125e-15 20,0 Z" id="Rectangle-Copy" fill="#ECEDF2"></path>
            <path d="M73.48,37.52 L73.48,36.416 L71.384,36.416 L71.384,27.312 L70.36,27.312 C69.8,27.648 69.128,27.904 68.184,28.064 L68.184,28.928 L70.056,28.928 L70.056,36.416 L67.72,36.416 L67.72,37.52 L73.48,37.52 Z M79.816,37.712 C81.16,37.712 82.184,37.168 83.032,36.192 L82.296,35.392 C81.624,36.128 80.872,36.528 79.864,36.528 C77.88,36.528 76.632,34.88 76.632,32.24 C76.632,29.632 77.944,28.016 79.912,28.016 C80.808,28.016 81.496,28.384 82.056,28.96 L82.792,28.128 C82.168,27.44 81.176,26.832 79.896,26.832 C77.224,26.832 75.24,28.896 75.24,32.272 C75.24,35.696 77.192,37.712 79.816,37.712 Z" id="1С" fill="#333333" fill-rule="nonzero"></path>
        </g>
        <g id="arrea/area-gray" transform="translate(69.000000, 107.000000)">
            <rect id="Rectangle-Copy" fill="#ECEDF2" x="0" y="0" width="150" height="80" rx="3"></rect>
            <path d="M45.176,27.592 L45.176,26.088 C48.024,25.992 49.704,24.568 49.704,22.104 C49.704,19.656 48.024,18.28 45.176,18.2 L45.176,16.712 L43.992,16.712 L43.992,18.2 C41.144,18.28 39.48,19.656 39.48,22.104 C39.48,24.568 41.144,25.992 43.992,26.088 L43.992,27.592 L45.176,27.592 Z M43.992,25.048 C41.928,24.984 40.776,23.912 40.776,22.104 C40.776,20.312 41.928,19.304 43.992,19.24 L43.992,25.048 Z M45.176,25.048 L45.176,19.24 C47.256,19.304 48.408,20.312 48.408,22.104 C48.408,23.912 47.256,24.984 45.176,25.048 Z M53.224,27.592 C54.2,27.592 55.048,27.096 55.784,26.472 L55.832,26.472 L55.96,27.4 L57.048,27.4 L57.048,22.616 C57.048,20.696 56.232,19.432 54.344,19.432 C53.096,19.432 52.008,19.96 51.288,20.44 L51.8,21.336 C52.408,20.936 53.224,20.536 54.12,20.536 C55.384,20.536 55.704,21.48 55.72,22.456 C52.392,22.824 50.952,23.656 50.952,25.384 C50.952,26.792 51.928,27.592 53.224,27.592 Z M53.592,26.504 C52.84,26.504 52.248,26.168 52.248,25.304 C52.248,24.296 53.096,23.704 55.72,23.4 L55.72,25.512 C54.968,26.168 54.344,26.504 53.592,26.504 Z M62.76,18.232 C64.552,18.232 65.208,17.032 65.272,15.784 L64.184,15.784 C64.152,16.696 63.816,17.448 62.76,17.448 C61.704,17.448 61.368,16.696 61.336,15.784 L60.248,15.784 C60.312,17.032 60.968,18.232 62.76,18.232 Z M60.936,27.4 L63.704,23.016 C64.008,22.536 64.408,21.832 64.712,21.24 L64.776,21.24 C64.696,22.36 64.648,23.32 64.648,24.152 L64.648,27.4 L65.912,27.4 L65.912,19.624 L64.504,19.624 L61.72,24.024 C61.416,24.504 61.016,25.224 60.712,25.784 L60.648,25.784 C60.728,24.68 60.792,23.704 60.792,22.872 L60.792,19.624 L59.512,19.624 L59.512,27.4 L60.936,27.4 Z M68.12,27.544 C69.256,27.544 69.96,26.696 70.184,25 C70.36,23.576 70.52,22.136 70.696,20.696 L73.096,20.696 L73.096,27.4 L74.424,27.4 L74.424,19.624 L69.64,19.624 C69.448,21.304 69.256,22.984 69.048,24.664 C68.904,25.768 68.552,26.264 68.008,26.264 C67.864,26.264 67.752,26.232 67.656,26.2 L67.4,27.416 C67.624,27.512 67.816,27.544 68.12,27.544 Z M80.072,27.592 C81.976,27.592 83.688,26.104 83.688,23.528 C83.688,20.92 81.976,19.432 80.072,19.432 C78.168,19.432 76.472,20.92 76.472,23.528 C76.472,26.104 78.168,27.592 80.072,27.592 Z M80.072,26.488 C78.744,26.488 77.848,25.304 77.848,23.528 C77.848,21.736 78.744,20.536 80.072,20.536 C81.416,20.536 82.312,21.736 82.312,23.528 C82.312,25.304 81.416,26.488 80.072,26.488 Z M88.824,27.4 C90.632,27.4 91.896,26.712 91.896,25.176 C91.896,24.056 91.144,23.512 90.28,23.32 L90.28,23.256 C91.08,23.016 91.576,22.456 91.576,21.592 C91.576,20.184 90.408,19.624 88.712,19.624 L85.72,19.624 L85.72,27.4 L88.824,27.4 Z M88.488,22.856 L87,22.856 L87,20.6 L88.568,20.6 C89.784,20.6 90.296,21.016 90.296,21.72 C90.296,22.424 89.784,22.856 88.488,22.856 Z M88.696,26.408 L87,26.408 L87,23.864 L88.6,23.864 C89.928,23.864 90.616,24.328 90.616,25.096 C90.616,25.928 89.992,26.408 88.696,26.408 Z M96.264,27.4 C98.104,27.4 99.352,26.648 99.352,24.92 C99.352,23.208 98.104,22.488 96.264,22.488 L95.176,22.488 L95.176,19.624 L93.848,19.624 L93.848,27.4 L96.264,27.4 Z M102.024,27.4 L102.024,19.624 L100.696,19.624 L100.696,27.4 L102.024,27.4 Z M96.12,26.344 L95.176,26.344 L95.176,23.512 L96.12,23.512 C97.432,23.512 98.056,23.944 98.056,24.92 C98.056,25.896 97.432,26.344 96.12,26.344 Z M107.784,27.592 C108.856,27.592 109.688,27.272 110.36,26.792 L109.896,25.944 C109.352,26.312 108.696,26.52 107.944,26.52 C106.472,26.52 105.496,25.464 105.384,23.864 L110.616,23.864 C110.664,23.608 110.68,23.368 110.68,23.08 C110.68,20.84 109.544,19.432 107.56,19.432 C105.784,19.432 104.072,20.984 104.072,23.512 C104.072,26.088 105.704,27.592 107.784,27.592 Z M109.496,22.84 L105.384,22.84 C105.544,21.352 106.504,20.488 107.592,20.488 C108.776,20.488 109.496,21.304 109.496,22.84 Z M38.168,45.4 L40.936,41.016 C41.24,40.536 41.64,39.832 41.944,39.24 L42.008,39.24 C41.928,40.36 41.88,41.32 41.88,42.152 L41.88,45.4 L43.144,45.4 L43.144,37.624 L41.736,37.624 L38.952,42.024 C38.648,42.504 38.248,43.224 37.944,43.784 L37.88,43.784 C37.96,42.68 38.024,41.704 38.024,40.872 L38.024,37.624 L36.744,37.624 L36.744,45.4 L38.168,45.4 Z M48.84,45.592 C49.768,45.592 50.648,45.24 51.352,44.6 L50.776,43.752 C50.312,44.168 49.672,44.488 48.952,44.488 C47.528,44.488 46.568,43.304 46.568,41.528 C46.568,39.736 47.592,38.536 49,38.536 C49.624,38.536 50.12,38.776 50.552,39.176 L51.208,38.344 C50.664,37.832 49.96,37.432 48.936,37.432 C46.936,37.432 45.192,38.92 45.192,41.528 C45.192,44.104 46.776,45.592 48.84,45.592 Z M55.944,45.4 L55.944,38.696 L58.536,38.696 L58.536,37.624 L52.008,37.624 L52.008,38.696 L54.616,38.696 L54.616,45.4 L55.944,45.4 Z M63.064,45.592 C64.968,45.592 66.68,44.104 66.68,41.528 C66.68,38.92 64.968,37.432 63.064,37.432 C61.16,37.432 59.464,38.92 59.464,41.528 C59.464,44.104 61.16,45.592 63.064,45.592 Z M63.064,44.488 C61.736,44.488 60.84,43.304 60.84,41.528 C60.84,39.736 61.736,38.536 63.064,38.536 C64.408,38.536 65.304,39.736 65.304,41.528 C65.304,43.304 64.408,44.488 63.064,44.488 Z M74.296,45.4 L74.296,37.624 L72.968,37.624 L72.968,41.24 C72.52,41.336 72.168,41.384 71.704,41.384 C70.296,41.384 69.672,40.904 69.672,39.752 L69.672,37.624 L68.344,37.624 L68.344,39.752 C68.344,41.688 69.48,42.472 71.448,42.472 C72.136,42.472 72.424,42.408 72.968,42.312 L72.968,45.4 L74.296,45.4 Z M78.248,45.4 L78.248,41.944 L81.976,41.944 L81.976,45.4 L83.304,45.4 L83.304,37.624 L81.976,37.624 L81.976,40.776 L78.248,40.776 L78.248,37.624 L76.92,37.624 L76.92,45.4 L78.248,45.4 Z M87.336,45.4 L90.104,41.016 C90.408,40.536 90.808,39.832 91.112,39.24 L91.176,39.24 C91.096,40.36 91.048,41.32 91.048,42.152 L91.048,45.4 L92.312,45.4 L92.312,37.624 L90.904,37.624 L88.12,42.024 C87.816,42.504 87.416,43.224 87.112,43.784 L87.048,43.784 C87.128,42.68 87.192,41.704 87.192,40.872 L87.192,37.624 L85.912,37.624 L85.912,45.4 L87.336,45.4 Z M96.248,45.4 L96.248,41.896 L97.928,41.896 L99.96,45.4 L101.4,45.4 L98.904,41.304 L99.56,39.784 C99.96,38.888 100.28,38.76 100.68,38.76 C100.792,38.76 100.84,38.776 100.936,38.808 L101.176,37.56 C101.048,37.496 100.888,37.464 100.712,37.464 C99.864,37.464 99.272,37.72 98.648,39.096 L97.88,40.824 L96.248,40.824 L96.248,37.624 L94.936,37.624 L94.936,45.4 L96.248,45.4 Z M104.28,45.4 L107.048,41.016 C107.352,40.536 107.752,39.832 108.056,39.24 L108.12,39.24 C108.04,40.36 107.992,41.32 107.992,42.152 L107.992,45.4 L109.256,45.4 L109.256,37.624 L107.848,37.624 L105.064,42.024 C104.76,42.504 104.36,43.224 104.056,43.784 L103.992,43.784 C104.072,42.68 104.136,41.704 104.136,40.872 L104.136,37.624 L102.856,37.624 L102.856,45.4 L104.28,45.4 Z M111.64,48.12 C112.952,47.592 113.752,46.504 113.752,45.128 C113.752,44.152 113.336,43.56 112.632,43.56 C112.104,43.56 111.656,43.912 111.656,44.488 C111.656,45.096 112.088,45.416 112.6,45.416 C112.664,45.416 112.712,45.416 112.776,45.4 C112.776,46.248 112.232,46.952 111.32,47.352 L111.64,48.12 Z M34.248,63.592 C36.152,63.592 37.672,62.024 37.672,59.544 C37.672,57.272 36.392,55.912 34.552,55.912 C33.576,55.912 32.616,56.36 31.928,57.208 C32.168,54.008 33.24,53.8 35.736,53.432 C36.392,53.336 36.936,53.192 37.352,52.92 L37.08,51.72 C36.6,51.944 36.328,52.024 35.464,52.152 C32.504,52.6 30.584,53.432 30.584,58.68 C30.584,61.816 31.928,63.592 34.248,63.592 Z M34.248,62.488 C32.664,62.488 31.864,61.176 31.864,58.936 L31.864,58.328 L31.864,58.328 C32.648,57.272 33.464,56.936 34.216,56.936 C35.56,56.936 36.296,57.944 36.296,59.544 C36.296,61.304 35.448,62.488 34.248,62.488 Z M41.384,63.592 C42.36,63.592 43.208,63.096 43.944,62.472 L43.992,62.472 L44.12,63.4 L45.208,63.4 L45.208,58.616 C45.208,56.696 44.392,55.432 42.504,55.432 C41.256,55.432 40.168,55.96 39.448,56.44 L39.96,57.336 C40.568,56.936 41.384,56.536 42.28,56.536 C43.544,56.536 43.864,57.48 43.88,58.456 C40.552,58.824 39.112,59.656 39.112,61.384 C39.112,62.792 40.088,63.592 41.384,63.592 Z M41.752,62.504 C41,62.504 40.408,62.168 40.408,61.304 C40.408,60.296 41.256,59.704 43.88,59.4 L43.88,61.512 C43.128,62.168 42.504,62.504 41.752,62.504 Z M49.88,63.592 C51.56,63.592 53.016,62.696 53.016,61.256 C53.016,60.136 52.312,59.56 51.4,59.32 L51.4,59.256 C52.216,58.936 52.696,58.28 52.696,57.528 C52.696,56.104 51.384,55.432 49.864,55.432 C48.728,55.432 47.88,55.768 47.128,56.296 L47.688,57.16 C48.312,56.712 48.904,56.472 49.8,56.472 C50.744,56.472 51.416,56.856 51.416,57.656 C51.416,58.392 50.792,58.856 49.544,58.856 L48.648,58.856 L48.648,59.864 L49.72,59.864 C51.016,59.864 51.72,60.296 51.72,61.144 C51.72,62.008 50.856,62.552 49.784,62.552 C49,62.552 48.232,62.344 47.512,61.752 L46.952,62.6 C47.864,63.352 48.808,63.592 49.88,63.592 Z M57.384,63.4 C59.224,63.4 60.472,62.648 60.472,60.92 C60.472,59.208 59.224,58.488 57.384,58.488 L56.296,58.488 L56.296,55.624 L54.968,55.624 L54.968,63.4 L57.384,63.4 Z M63.144,63.4 L63.144,55.624 L61.816,55.624 L61.816,63.4 L63.144,63.4 Z M57.24,62.344 L56.296,62.344 L56.296,59.512 L57.24,59.512 C58.552,59.512 59.176,59.944 59.176,60.92 C59.176,61.896 58.552,62.344 57.24,62.344 Z M69.24,66.152 L69.24,63.4 L74.552,63.4 L74.552,66.152 L75.688,66.152 L75.832,63.16 L75.832,62.312 L74.696,62.312 L74.696,55.624 L69.848,55.624 L69.432,59.064 C69.128,61.56 68.776,62.088 68.344,62.312 L67.96,62.312 L67.96,63.16 L68.104,66.152 L69.24,66.152 Z M73.368,62.312 L69.768,62.312 C70.12,61.752 70.424,60.84 70.6,59.32 L70.904,56.696 L73.368,56.696 L73.368,62.312 Z M79.352,63.592 C80.328,63.592 81.176,63.096 81.912,62.472 L81.96,62.472 L82.088,63.4 L83.176,63.4 L83.176,58.616 C83.176,56.696 82.36,55.432 80.472,55.432 C79.224,55.432 78.136,55.96 77.416,56.44 L77.928,57.336 C78.536,56.936 79.352,56.536 80.248,56.536 C81.512,56.536 81.832,57.48 81.848,58.456 C78.52,58.824 77.08,59.656 77.08,61.384 C77.08,62.792 78.056,63.592 79.352,63.592 Z M79.72,62.504 C78.968,62.504 78.376,62.168 78.376,61.304 C78.376,60.296 79.224,59.704 81.848,59.4 L81.848,61.512 C81.096,62.168 80.472,62.504 79.72,62.504 Z M86.968,63.4 L86.968,59.944 L90.696,59.944 L90.696,63.4 L92.024,63.4 L92.024,55.624 L90.696,55.624 L90.696,58.776 L86.968,58.776 L86.968,55.624 L85.64,55.624 L85.64,63.4 L86.968,63.4 Z M95.96,63.4 L95.96,59.944 L99.688,59.944 L99.688,63.4 L101.016,63.4 L101.016,55.624 L99.688,55.624 L99.688,58.776 L95.96,58.776 L95.96,55.624 L94.632,55.624 L94.632,63.4 L95.96,63.4 Z M106.04,63.4 C107.88,63.4 109.128,62.648 109.128,60.92 C109.128,59.208 107.88,58.488 106.04,58.488 L104.952,58.488 L104.952,55.624 L103.624,55.624 L103.624,63.4 L106.04,63.4 Z M111.8,63.4 L111.8,55.624 L110.472,55.624 L110.472,63.4 L111.8,63.4 Z M105.896,62.344 L104.952,62.344 L104.952,59.512 L105.896,59.512 C107.208,59.512 107.832,59.944 107.832,60.92 C107.832,61.896 107.208,62.344 105.896,62.344 Z M114.728,63.4 L115.768,61.592 C116.04,61.128 116.296,60.648 116.552,60.2 L116.616,60.2 C116.904,60.648 117.192,61.128 117.464,61.592 L118.6,63.4 L120.04,63.4 L117.512,59.48 L119.864,55.624 L118.472,55.624 L117.528,57.32 C117.288,57.752 117.064,58.184 116.824,58.616 L116.76,58.616 C116.504,58.184 116.248,57.752 116.008,57.32 L114.968,55.624 L113.528,55.624 L115.88,59.336 L113.336,63.4 L114.728,63.4 Z" id="Файловыеисточники,базыданных" fill="#333333" fill-rule="nonzero"></path>
        </g>
        <g id="arrea/area-2-angle-copy-2" transform="translate(69.000000, 287.000000)">
            <path d="M20,0 L150,0 L150,0 L150,44 C150,55.045695 141.045695,64 130,64 L0,64 L0,64 L0,20 C-1.3527075e-15,8.954305 8.954305,2.02906125e-15 20,0 Z" id="Rectangle-Copy" fill="#ECEDF2"></path>
            <path d="M53.512,37.52 L53.512,28.16 L56.696,28.16 L56.696,27.024 L49,27.024 L49,28.16 L52.168,28.16 L52.168,37.52 L53.512,37.52 Z M59.064,37.712 C60.04,37.712 60.888,37.216 61.624,36.592 L61.672,36.592 L61.8,37.52 L62.888,37.52 L62.888,32.736 C62.888,30.816 62.072,29.552 60.184,29.552 C58.936,29.552 57.848,30.08 57.128,30.56 L57.64,31.456 C58.248,31.056 59.064,30.656 59.96,30.656 C61.224,30.656 61.544,31.6 61.56,32.576 C58.232,32.944 56.792,33.776 56.792,35.504 C56.792,36.912 57.768,37.712 59.064,37.712 Z M59.432,36.624 C58.68,36.624 58.088,36.288 58.088,35.424 C58.088,34.416 58.936,33.824 61.56,33.52 L61.56,35.632 C60.808,36.288 60.184,36.624 59.432,36.624 Z M68.776,37.712 C70.552,37.712 72.152,36.16 72.152,33.504 C72.152,31.104 71.064,29.552 69.064,29.552 C68.2,29.552 67.336,30.016 66.616,30.624 L66.664,29.232 L66.664,26.128 L65.336,26.128 L65.336,37.52 L66.392,37.52 L66.52,36.72 L66.568,36.72 C67.256,37.344 68.056,37.712 68.776,37.712 Z M68.552,36.592 C68.04,36.592 67.336,36.384 66.664,35.792 L66.664,31.728 C67.4,31.024 68.072,30.672 68.728,30.672 C70.184,30.672 70.776,31.808 70.776,33.52 C70.776,35.44 69.832,36.592 68.552,36.592 Z M75.592,37.712 C75.928,37.712 76.168,37.664 76.36,37.568 L76.184,36.576 C76.056,36.608 75.992,36.608 75.912,36.608 C75.704,36.608 75.528,36.464 75.528,36.048 L75.528,26.128 L74.2,26.128 L74.2,35.952 C74.2,37.072 74.6,37.712 75.592,37.712 Z M81.416,37.712 C82.488,37.712 83.32,37.392 83.992,36.912 L83.528,36.064 C82.984,36.432 82.328,36.64 81.576,36.64 C80.104,36.64 79.128,35.584 79.016,33.984 L84.248,33.984 C84.296,33.728 84.312,33.488 84.312,33.2 C84.312,30.96 83.176,29.552 81.192,29.552 C79.416,29.552 77.704,31.104 77.704,33.632 C77.704,36.208 79.336,37.712 81.416,37.712 Z M83.128,32.96 L79.016,32.96 C79.176,31.472 80.136,30.608 81.224,30.608 C82.408,30.608 83.128,31.424 83.128,32.96 Z M87.784,37.712 C88.76,37.712 89.608,37.216 90.344,36.592 L90.392,36.592 L90.52,37.52 L91.608,37.52 L91.608,32.736 C91.608,30.816 90.792,29.552 88.904,29.552 C87.656,29.552 86.568,30.08 85.848,30.56 L86.36,31.456 C86.968,31.056 87.784,30.656 88.68,30.656 C89.944,30.656 90.264,31.6 90.28,32.576 C86.952,32.944 85.512,33.776 85.512,35.504 C85.512,36.912 86.488,37.712 87.784,37.712 Z M88.152,36.624 C87.4,36.624 86.808,36.288 86.808,35.424 C86.808,34.416 87.656,33.824 90.28,33.52 L90.28,35.632 C89.528,36.288 88.904,36.624 88.152,36.624 Z M96.328,37.712 C97.4,37.712 98.168,37.152 98.888,36.304 L98.936,36.304 L99.048,37.52 L100.136,37.52 L100.136,29.744 L98.808,29.744 L98.808,35.248 C98.088,36.16 97.528,36.56 96.744,36.56 C95.72,36.56 95.272,35.936 95.272,34.496 L95.272,29.744 L93.944,29.744 L93.944,34.672 C93.944,36.656 94.68,37.712 96.328,37.712 Z" id="Tableau" fill="#333333" fill-rule="nonzero"></path>
        </g>
        <g id="arrea/area-gray-copy-8" transform="translate(593.000000, 184.000000)" fill-rule="nonzero">
            <path d="M0,5.78313253 L0,42.1887744 C0,45.3982105 17.9086092,48 40,48 C62.0913908,48 80,45.3982106 80,42.1887744 L80,5.78313253 L0,5.78313253 Z" id="Path" fill="#9A9FAF"></path>
            <ellipse id="Oval" fill="#BDC0C8" cx="40" cy="5.78313253" rx="40" ry="5.78313253"></ellipse>
            <path d="M16.624,34.3253012 L16.624,29.6373012 L20.624,29.6373012 L20.624,28.5013012 L16.624,28.5013012 L16.624,24.9653012 L21.328,24.9653012 L21.328,23.8293012 L15.28,23.8293012 L15.28,34.3253012 L16.624,34.3253012 Z M23.744,24.9493012 C24.256,24.9493012 24.624,24.6133012 24.624,24.0853012 C24.624,23.5733012 24.256,23.2213012 23.744,23.2213012 C23.232,23.2213012 22.864,23.5733012 22.864,24.0853012 C22.864,24.6133012 23.232,24.9493012 23.744,24.9493012 Z M24.4,34.3253012 L24.4,26.5493012 L23.072,26.5493012 L23.072,34.3253012 L24.4,34.3253012 Z M28.352,34.3253012 L28.352,29.3333012 C28.88,28.0213012 29.664,27.5573012 30.32,27.5573012 C30.624,27.5573012 30.8,27.5893012 31.024,27.6533012 L31.312,26.5173012 C31.072,26.4053012 30.832,26.3573012 30.48,26.3573012 C29.616,26.3573012 28.816,26.9813012 28.272,27.9573012 L28.224,27.9573012 L28.112,26.5493012 L27.024,26.5493012 L27.024,34.3253012 L28.352,34.3253012 Z M35.568,34.5173012 C36.64,34.5173012 37.472,34.1973012 38.144,33.7173012 L37.68,32.8693012 C37.136,33.2373012 36.48,33.4453012 35.728,33.4453012 C34.256,33.4453012 33.28,32.3893012 33.168,30.7893012 L38.4,30.7893012 C38.448,30.5333012 38.464,30.2933012 38.464,30.0053012 C38.464,27.7653012 37.328,26.3573012 35.344,26.3573012 C33.568,26.3573012 31.856,27.9093012 31.856,30.4373012 C31.856,33.0133012 33.488,34.5173012 35.568,34.5173012 Z M37.28,29.7653012 L33.168,29.7653012 C33.328,28.2773012 34.288,27.4133012 35.376,27.4133012 C36.56,27.4133012 37.28,28.2293012 37.28,29.7653012 Z M43.808,34.5173012 C45.584,34.5173012 47.184,32.9653012 47.184,30.3093012 C47.184,27.9093012 46.096,26.3573012 44.096,26.3573012 C43.232,26.3573012 42.368,26.8213012 41.648,27.4293012 L41.696,26.0373012 L41.696,22.9333012 L40.368,22.9333012 L40.368,34.3253012 L41.424,34.3253012 L41.552,33.5253012 L41.6,33.5253012 C42.288,34.1493012 43.088,34.5173012 43.808,34.5173012 Z M43.584,33.3973012 C43.072,33.3973012 42.368,33.1893012 41.696,32.5973012 L41.696,28.5333012 C42.432,27.8293012 43.104,27.4773012 43.76,27.4773012 C45.216,27.4773012 45.808,28.6133012 45.808,30.3253012 C45.808,32.2453012 44.864,33.3973012 43.584,33.3973012 Z M49.904,24.9493012 C50.416,24.9493012 50.784,24.6133012 50.784,24.0853012 C50.784,23.5733012 50.416,23.2213012 49.904,23.2213012 C49.392,23.2213012 49.024,23.5733012 49.024,24.0853012 C49.024,24.6133012 49.392,24.9493012 49.904,24.9493012 Z M50.56,34.3253012 L50.56,26.5493012 L49.232,26.5493012 L49.232,34.3253012 L50.56,34.3253012 Z M54.512,34.3253012 L54.512,29.3333012 C55.04,28.0213012 55.824,27.5573012 56.48,27.5573012 C56.784,27.5573012 56.96,27.5893012 57.184,27.6533012 L57.472,26.5173012 C57.232,26.4053012 56.992,26.3573012 56.64,26.3573012 C55.776,26.3573012 54.976,26.9813012 54.432,27.9573012 L54.384,27.9573012 L54.272,26.5493012 L53.184,26.5493012 L53.184,34.3253012 L54.512,34.3253012 Z M61.248,34.5173012 C62.16,34.5173012 62.992,34.0053012 63.6,33.4133012 L63.648,33.4133012 L63.76,34.3253012 L64.848,34.3253012 L64.848,22.9333012 L63.52,22.9333012 L63.52,25.9253012 L63.584,27.2533012 C62.896,26.6933012 62.304,26.3573012 61.408,26.3573012 C59.632,26.3573012 58.032,27.9253012 58.032,30.4533012 C58.032,33.0453012 59.296,34.5173012 61.248,34.5173012 Z M61.536,33.3973012 C60.176,33.3973012 59.408,32.2933012 59.408,30.4373012 C59.408,28.6613012 60.4,27.4773012 61.632,27.4773012 C62.272,27.4773012 62.864,27.6853012 63.52,28.2773012 L63.52,32.3413012 C62.88,33.0453012 62.256,33.3973012 61.536,33.3973012 Z" id="Firebird" fill="#FFFFFF"></path>
        </g>
        <g id="arrea/area-gray-copy-9" transform="translate(593.000000, 268.000000)" fill-rule="nonzero">
            <path d="M0,5.78313253 L0,42.1887744 C0,45.3982105 17.9086092,48 40,48 C62.0913908,48 80,45.3982106 80,42.1887744 L80,5.78313253 L0,5.78313253 Z" id="Path" fill="#9A9FAF"></path>
            <ellipse id="Oval" fill="#BDC0C8" cx="40" cy="5.78313253" rx="40" ry="5.78313253"></ellipse>
            <path d="M17.496,34.3253012 L17.496,28.5333012 C17.496,27.6053012 17.384,26.3093012 17.304,25.3973012 L17.368,25.3973012 L18.2,27.8453012 L20.152,33.2693012 L21.128,33.2693012 L23.096,27.8453012 L23.912,25.3973012 L23.976,25.3973012 C23.896,26.3093012 23.784,27.6053012 23.784,28.5333012 L23.784,34.3253012 L25.048,34.3253012 L25.048,23.8293012 L23.368,23.8293012 L21.384,29.4453012 C21.128,30.1813012 20.936,30.8533012 20.696,31.6373012 L20.632,31.6373012 C20.408,30.8533012 20.184,30.1813012 19.928,29.4453012 L17.944,23.8293012 L16.264,23.8293012 L16.264,34.3253012 L17.496,34.3253012 Z M30.824,34.5173012 C33.032,34.5173012 34.408,33.1893012 34.408,31.5253012 C34.408,29.9733012 33.464,29.2373012 32.248,28.7253012 L30.744,28.0693012 C29.928,27.7333012 29.016,27.3493012 29.016,26.3413012 C29.016,25.4133012 29.784,24.8213012 30.952,24.8213012 C31.864,24.8213012 32.68,25.1893012 33.32,25.7973012 L34.056,24.9013012 C33.32,24.1653012 32.232,23.6373012 30.952,23.6373012 C29.048,23.6373012 27.656,24.8213012 27.656,26.4213012 C27.656,27.9733012 28.792,28.7093012 29.768,29.1253012 L31.288,29.7973012 C32.264,30.2293012 33.032,30.5653012 33.032,31.6373012 C33.032,32.6453012 32.216,33.3333012 30.84,33.3333012 C29.736,33.3333012 28.664,32.8533012 27.896,32.0693012 L27.144,32.9493012 C28.056,33.9253012 29.32,34.5173012 30.824,34.5173012 Z M42.568,34.5173012 C44.776,34.5173012 46.152,33.1893012 46.152,31.5253012 C46.152,29.9733012 45.208,29.2373012 43.992,28.7253012 L42.488,28.0693012 C41.672,27.7333012 40.76,27.3493012 40.76,26.3413012 C40.76,25.4133012 41.528,24.8213012 42.696,24.8213012 C43.608,24.8213012 44.424,25.1893012 45.064,25.7973012 L45.8,24.9013012 C45.064,24.1653012 43.976,23.6373012 42.696,23.6373012 C40.792,23.6373012 39.4,24.8213012 39.4,26.4213012 C39.4,27.9733012 40.536,28.7093012 41.512,29.1253012 L43.032,29.7973012 C44.008,30.2293012 44.776,30.5653012 44.776,31.6373012 C44.776,32.6453012 43.96,33.3333012 42.584,33.3333012 C41.48,33.3333012 40.408,32.8533012 39.64,32.0693012 L38.888,32.9493012 C39.8,33.9253012 41.064,34.5173012 42.568,34.5173012 Z M55.288,36.9653012 C55.928,36.9653012 56.488,36.8533012 56.792,36.7093012 L56.536,35.7013012 C56.264,35.7813012 55.896,35.8453012 55.432,35.8453012 C54.312,35.8453012 53.352,35.3813012 52.872,34.4533012 C55.08,34.0693012 56.568,32.0533012 56.568,29.0293012 C56.568,25.6853012 54.712,23.6373012 52.072,23.6373012 C49.432,23.6373012 47.592,25.6693012 47.592,29.0293012 C47.592,32.1173012 49.128,34.1493012 51.416,34.4693012 C52.024,35.9093012 53.352,36.9653012 55.288,36.9653012 Z M52.072,33.3973012 C50.2,33.3973012 48.984,31.7013012 48.984,29.0293012 C48.984,26.4213012 50.2,24.8213012 52.072,24.8213012 C53.944,24.8213012 55.176,26.4213012 55.176,29.0293012 C55.176,31.7013012 53.944,33.3973012 52.072,33.3973012 Z M64.744,34.3253012 L64.744,33.1893012 L60.168,33.1893012 L60.168,23.8293012 L58.824,23.8293012 L58.824,34.3253012 L64.744,34.3253012 Z" id="MSSQL" fill="#FFFFFF"></path>
        </g>
        <g id="arrea/area-gray-copy-10" transform="translate(593.000000, 328.000000)" fill-rule="nonzero">
            <path d="M0,5.78313253 L0,42.1887744 C0,45.3982105 17.9086092,48 40,48 C62.0913908,48 80,45.3982106 80,42.1887744 L80,5.78313253 L0,5.78313253 Z" id="Path" fill="#9A9FAF"></path>
            <ellipse id="Oval" fill="#BDC0C8" cx="40" cy="5.78313253" rx="40" ry="5.78313253"></ellipse>
            <path d="M23.72,34.5173012 C26.36,34.5173012 28.216,32.4053012 28.216,29.0293012 C28.216,25.6853012 26.36,23.6373012 23.72,23.6373012 C21.08,23.6373012 19.24,25.6693012 19.24,29.0293012 C19.24,32.4053012 21.08,34.5173012 23.72,34.5173012 Z M23.72,33.3333012 C21.848,33.3333012 20.632,31.6533012 20.632,29.0293012 C20.632,26.4213012 21.848,24.8213012 23.72,24.8213012 C25.592,24.8213012 26.824,26.4213012 26.824,29.0293012 C26.824,31.6533012 25.592,33.3333012 23.72,33.3333012 Z M31.672,34.3253012 L31.672,29.3333012 C32.2,28.0213012 32.984,27.5573012 33.64,27.5573012 C33.944,27.5573012 34.12,27.5893012 34.344,27.6533012 L34.632,26.5173012 C34.392,26.4053012 34.152,26.3573012 33.8,26.3573012 C32.936,26.3573012 32.136,26.9813012 31.592,27.9573012 L31.544,27.9573012 L31.432,26.5493012 L30.344,26.5493012 L30.344,34.3253012 L31.672,34.3253012 Z M37.32,34.5173012 C38.296,34.5173012 39.144,34.0213012 39.88,33.3973012 L39.928,33.3973012 L40.056,34.3253012 L41.144,34.3253012 L41.144,29.5413012 C41.144,27.6213012 40.328,26.3573012 38.44,26.3573012 C37.192,26.3573012 36.104,26.8853012 35.384,27.3653012 L35.896,28.2613012 C36.504,27.8613012 37.32,27.4613012 38.216,27.4613012 C39.48,27.4613012 39.8,28.4053012 39.816,29.3813012 C36.488,29.7493012 35.048,30.5813012 35.048,32.3093012 C35.048,33.7173012 36.024,34.5173012 37.32,34.5173012 Z M37.688,33.4293012 C36.936,33.4293012 36.344,33.0933012 36.344,32.2293012 C36.344,31.2213012 37.192,30.6293012 39.816,30.3253012 L39.816,32.4373012 C39.064,33.0933012 38.44,33.4293012 37.688,33.4293012 Z M46.664,34.5173012 C47.592,34.5173012 48.472,34.1653012 49.176,33.5253012 L48.6,32.6773012 C48.136,33.0933012 47.496,33.4133012 46.776,33.4133012 C45.352,33.4133012 44.392,32.2293012 44.392,30.4533012 C44.392,28.6613012 45.416,27.4613012 46.824,27.4613012 C47.448,27.4613012 47.944,27.7013012 48.376,28.1013012 L49.032,27.2693012 C48.488,26.7573012 47.784,26.3573012 46.76,26.3573012 C44.76,26.3573012 43.016,27.8453012 43.016,30.4533012 C43.016,33.0293012 44.6,34.5173012 46.664,34.5173012 Z M52.28,34.5173012 C52.616,34.5173012 52.856,34.4693012 53.048,34.3733012 L52.872,33.3813012 C52.744,33.4133012 52.68,33.4133012 52.6,33.4133012 C52.392,33.4133012 52.216,33.2693012 52.216,32.8533012 L52.216,22.9333012 L50.888,22.9333012 L50.888,32.7573012 C50.888,33.8773012 51.288,34.5173012 52.28,34.5173012 Z M58.104,34.5173012 C59.176,34.5173012 60.008,34.1973012 60.68,33.7173012 L60.216,32.8693012 C59.672,33.2373012 59.016,33.4453012 58.264,33.4453012 C56.792,33.4453012 55.816,32.3893012 55.704,30.7893012 L60.936,30.7893012 C60.984,30.5333012 61,30.2933012 61,30.0053012 C61,27.7653012 59.864,26.3573012 57.88,26.3573012 C56.104,26.3573012 54.392,27.9093012 54.392,30.4373012 C54.392,33.0133012 56.024,34.5173012 58.104,34.5173012 Z M59.816,29.7653012 L55.704,29.7653012 C55.864,28.2773012 56.824,27.4133012 57.912,27.4133012 C59.096,27.4133012 59.816,28.2293012 59.816,29.7653012 Z" id="Oracle" fill="#FFFFFF"></path>
        </g>
        <path d="M599.396,139 L602.596,133.176 L603.668,130.872 L603.732,130.872 C603.62,131.96 603.492,133.304 603.492,134.456 L603.492,139 L605.364,139 L605.332,128.536 L603.268,128.536 L600.068,134.36 L598.996,136.664 L598.932,136.664 C599.044,135.576 599.172,134.248 599.172,133.08 L599.172,128.536 L597.332,128.536 L597.332,139 L599.396,139 Z M609.46,139 L609.46,136.248 C609.46,135.464 609.38,134.008 609.284,133.144 L609.348,133.144 C609.572,133.864 609.828,134.664 610.052,135.32 L611.204,138.296 L612.484,138.296 L613.604,135.32 C613.828,134.664 614.084,133.864 614.308,133.144 L614.372,133.144 C614.276,134.008 614.18,135.464 614.18,136.248 L614.18,139 L615.844,139 L615.844,131.144 L613.604,131.144 L612.452,134.264 C612.26,134.808 612.1,135.416 611.908,136.152 L611.844,136.152 C611.684,135.416 611.492,134.808 611.284,134.264 L610.052,131.144 L607.828,131.144 L607.828,139 L609.46,139 Z M620.068,139 L620.068,132.632 L622.996,132.632 L622.996,139 L624.884,139 L624.884,131.128 L618.164,131.128 L618.164,139 L620.068,139 Z M630.452,139.192 C632.404,139.192 634.196,137.688 634.196,135.08 C634.196,132.456 632.404,130.936 630.452,130.936 C628.484,130.936 626.692,132.456 626.692,135.08 C626.692,137.688 628.484,139.192 630.452,139.192 Z M630.452,137.656 C629.316,137.656 628.644,136.632 628.644,135.08 C628.644,133.512 629.316,132.488 630.452,132.488 C631.588,132.488 632.26,133.512 632.26,135.08 C632.26,136.632 631.588,137.656 630.452,137.656 Z M637.892,142.088 L637.892,139.64 L637.828,138.328 C638.452,138.872 639.14,139.192 639.844,139.192 C641.588,139.192 643.188,137.64 643.188,134.952 C643.188,132.52 642.052,130.936 640.1,130.936 C639.236,130.936 638.404,131.4 637.732,131.96 L637.684,131.96 L637.54,131.128 L635.988,131.128 L635.988,142.088 L637.892,142.088 Z M639.428,137.624 C638.98,137.624 638.436,137.464 637.892,137 L637.892,133.368 C638.484,132.776 639.012,132.504 639.572,132.504 C640.74,132.504 641.252,133.416 641.252,134.968 C641.252,136.728 640.452,137.624 639.428,137.624 Z M648.292,139 L648.292,132.632 L650.74,132.632 L650.74,131.128 L643.94,131.128 L643.94,132.632 L646.404,132.632 L646.404,139 L648.292,139 Z M657.556,139 L659.764,135.224 C660.052,134.744 660.404,134.04 660.692,133.384 L660.756,133.384 C660.628,134.552 660.58,135.48 660.58,136.296 L660.58,139 L662.372,139 L662.372,131.144 L660.34,131.144 L658.132,134.936 C657.844,135.416 657.492,136.152 657.204,136.76 L657.14,136.76 C657.236,135.608 657.316,134.68 657.316,133.848 L657.316,131.144 L655.524,131.144 L655.524,139 L657.556,139 Z M667.06,139.192 C668.788,139.192 670.42,138.328 670.42,136.792 C670.42,135.704 669.764,135.128 668.82,134.888 L668.82,134.824 C669.668,134.536 670.1,133.832 670.1,133.128 C670.1,131.624 668.66,130.952 667.044,130.952 C665.94,130.952 665.028,131.24 664.212,131.784 L664.932,132.984 C665.556,132.568 666.132,132.376 666.932,132.376 C667.78,132.376 668.324,132.696 668.324,133.336 C668.324,133.912 667.828,134.264 666.836,134.264 L665.828,134.264 L665.828,135.64 L666.996,135.64 C668.052,135.64 668.596,135.96 668.596,136.616 C668.596,137.336 667.844,137.768 666.9,137.768 C666.228,137.768 665.476,137.576 664.804,137.048 L664.052,138.232 C665.028,138.984 665.988,139.192 667.06,139.192 Z M565.508,161 L566.308,159.464 C566.548,159 566.772,158.52 567.012,158.072 L567.076,158.072 C567.332,158.52 567.604,159 567.86,159.464 L568.804,161 L570.836,161 L568.356,157.112 L570.676,153.128 L568.708,153.128 L567.988,154.6 C567.78,155.048 567.572,155.496 567.364,155.928 L567.3,155.928 C567.076,155.496 566.82,155.048 566.596,154.6 L565.732,153.128 L563.7,153.128 L566.02,156.904 L563.54,161 L565.508,161 Z M574.116,164.088 L574.116,161.64 L574.052,160.328 C574.676,160.872 575.364,161.192 576.068,161.192 C577.812,161.192 579.412,159.64 579.412,156.952 C579.412,154.52 578.276,152.936 576.324,152.936 C575.46,152.936 574.628,153.4 573.956,153.96 L573.908,153.96 L573.764,153.128 L572.212,153.128 L572.212,164.088 L574.116,164.088 Z M575.652,159.624 C575.204,159.624 574.66,159.464 574.116,159 L574.116,155.368 C574.708,154.776 575.236,154.504 575.796,154.504 C576.964,154.504 577.476,155.416 577.476,156.968 C577.476,158.728 576.676,159.624 575.652,159.624 Z M582.98,161.192 C583.908,161.192 584.676,160.744 585.38,160.136 L585.444,160.136 L585.604,161 L587.14,161 L587.14,156.344 C587.14,154.152 586.148,152.936 584.196,152.936 C582.948,152.936 581.828,153.416 580.964,153.96 L581.636,155.208 C582.34,154.792 583.076,154.472 583.844,154.472 C584.9,154.472 585.22,155.144 585.252,155.944 C582.02,156.296 580.644,157.16 580.644,158.888 C580.644,160.264 581.604,161.192 582.98,161.192 Z M583.556,159.688 C582.916,159.688 582.468,159.432 582.468,158.76 C582.468,157.96 583.108,157.48 585.252,157.224 L585.252,158.888 C584.676,159.432 584.196,159.688 583.556,159.688 Z M591.236,161 L591.236,157.784 L594.308,157.784 L594.308,161 L596.196,161 L596.196,153.128 L594.308,153.128 L594.308,156.12 L591.236,156.12 L591.236,153.128 L589.332,153.128 L589.332,161 L591.236,161 Z M600.548,161 L602.756,157.224 C603.044,156.744 603.396,156.04 603.684,155.384 L603.748,155.384 C603.62,156.552 603.572,157.48 603.572,158.296 L603.572,161 L605.364,161 L605.364,153.144 L603.332,153.144 L601.124,156.936 C600.836,157.416 600.484,158.152 600.196,158.76 L600.132,158.76 C600.228,157.608 600.308,156.68 600.308,155.848 L600.308,153.144 L598.516,153.144 L598.516,161 L600.548,161 Z M607.492,161.16 C608.852,161.16 609.652,160.248 609.892,158.504 C610.068,157.224 610.212,155.912 610.372,154.632 L612.356,154.632 L612.356,161 L614.244,161 L614.244,153.128 L608.868,153.128 C608.676,154.76 608.5,156.376 608.292,157.992 C608.18,158.968 607.844,159.368 607.364,159.368 C607.22,159.368 607.092,159.336 606.98,159.304 L606.66,161.016 C606.916,161.112 607.156,161.16 607.492,161.16 Z M618.596,161 L620.804,157.224 C621.092,156.744 621.444,156.04 621.732,155.384 L621.796,155.384 C621.668,156.552 621.62,157.48 621.62,158.296 L621.62,161 L623.412,161 L623.412,153.144 L621.38,153.144 L619.172,156.936 C618.884,157.416 618.532,158.152 618.244,158.76 L618.18,158.76 C618.276,157.608 618.356,156.68 618.356,155.848 L618.356,153.144 L616.564,153.144 L616.564,161 L618.596,161 Z M636.916,163.752 L637.092,160.728 L637.092,159.496 L635.892,159.496 L635.892,153.128 L634.02,153.128 L634.02,159.496 L631.716,159.496 L631.716,153.128 L629.908,153.128 L629.908,159.496 L627.604,159.496 L627.604,153.128 L625.732,153.128 L625.732,161 L635.284,161 L635.284,163.752 L636.916,163.752 Z M640.5,161.192 C641.428,161.192 642.196,160.744 642.9,160.136 L642.964,160.136 L643.124,161 L644.66,161 L644.66,156.344 C644.66,154.152 643.668,152.936 641.716,152.936 C640.468,152.936 639.348,153.416 638.484,153.96 L639.156,155.208 C639.86,154.792 640.596,154.472 641.364,154.472 C642.42,154.472 642.74,155.144 642.772,155.944 C639.54,156.296 638.164,157.16 638.164,158.888 C638.164,160.264 639.124,161.192 640.5,161.192 Z M641.076,159.688 C640.436,159.688 639.988,159.432 639.988,158.76 C639.988,157.96 640.628,157.48 642.772,157.224 L642.772,158.888 C642.196,159.432 641.716,159.688 641.076,159.688 Z M650.948,163.752 L650.948,161 L655.796,161 L655.796,163.752 L657.428,163.752 L657.604,160.728 L657.604,159.496 L656.404,159.496 L656.404,153.128 L650.964,153.128 L650.58,156.408 C650.292,158.776 649.988,159.288 649.588,159.496 L649.14,159.496 L649.14,160.728 L649.316,163.752 L650.948,163.752 Z M654.516,159.496 L651.492,159.496 C651.828,158.904 652.084,158.04 652.228,156.824 L652.468,154.632 L654.516,154.632 L654.516,159.496 Z M661.044,161.192 C661.972,161.192 662.74,160.744 663.444,160.136 L663.508,160.136 L663.668,161 L665.204,161 L665.204,156.344 C665.204,154.152 664.212,152.936 662.26,152.936 C661.012,152.936 659.892,153.416 659.028,153.96 L659.7,155.208 C660.404,154.792 661.14,154.472 661.908,154.472 C662.964,154.472 663.284,155.144 663.316,155.944 C660.084,156.296 658.708,157.16 658.708,158.888 C658.708,160.264 659.668,161.192 661.044,161.192 Z M661.62,159.688 C660.98,159.688 660.532,159.432 660.532,158.76 C660.532,157.96 661.172,157.48 663.316,157.224 L663.316,158.888 C662.74,159.432 662.26,159.688 661.62,159.688 Z M669.3,161 L669.3,157.784 L672.372,157.784 L672.372,161 L674.26,161 L674.26,153.128 L672.372,153.128 L672.372,156.12 L669.3,156.12 L669.3,153.128 L667.396,153.128 L667.396,161 L669.3,161 Z M678.468,161 L678.468,157.784 L681.54,157.784 L681.54,161 L683.428,161 L683.428,153.128 L681.54,153.128 L681.54,156.12 L678.468,156.12 L678.468,153.128 L676.564,153.128 L676.564,161 L678.468,161 Z M688.436,161 C690.324,161 691.7,160.28 691.7,158.376 C691.7,156.52 690.324,155.816 688.436,155.816 L687.636,155.816 L687.636,153.128 L685.732,153.128 L685.732,161 L688.436,161 Z M694.788,161 L694.788,153.128 L692.9,153.128 L692.9,161 L694.788,161 Z M688.324,159.544 L687.636,159.544 L687.636,157.24 L688.324,157.24 C689.364,157.24 689.876,157.592 689.876,158.376 C689.876,159.16 689.364,159.544 688.324,159.544 Z M698.132,161 L698.932,159.464 C699.172,159 699.396,158.52 699.636,158.072 L699.7,158.072 C699.956,158.52 700.228,159 700.484,159.464 L701.428,161 L703.46,161 L700.98,157.112 L703.3,153.128 L701.332,153.128 L700.612,154.6 C700.404,155.048 700.196,155.496 699.988,155.928 L699.924,155.928 C699.7,155.496 699.444,155.048 699.22,154.6 L698.356,153.128 L696.324,153.128 L698.644,156.904 L696.164,161 L698.132,161 Z" id="Импортизхранилищаданных" fill="#333333" fill-rule="nonzero"></path>
        <g id="arrea/area-2-angle-copy-4" transform="translate(558.000000, 408.000000)">
            <rect id="Rectangle-Copy" fill="#ECEDF2" x="0" y="0" width="150" height="79" rx="3"></rect>
            <path d="M44.728,27.22 L48.552,20.628 L49.688,18.42 L49.752,18.42 C49.672,19.476 49.576,20.628 49.576,21.716 L49.576,27.22 L50.904,27.22 L50.888,16.724 L49.432,16.724 L45.608,23.316 L44.472,25.524 L44.408,25.524 C44.488,24.452 44.584,23.268 44.584,22.18 L44.584,16.724 L43.272,16.724 L43.272,27.22 L44.728,27.22 Z M54.824,27.22 L54.824,23.7 C54.824,23.012 54.76,21.828 54.68,21.012 L54.744,21.012 C54.968,21.652 55.224,22.324 55.448,22.932 L56.904,26.484 L57.896,26.484 L59.336,22.932 C59.56,22.324 59.8,21.652 60.024,21.012 L60.088,21.012 C60.024,21.828 59.944,23.012 59.944,23.7 L59.944,27.22 L61.144,27.22 L61.144,19.444 L59.56,19.444 L58.104,23.076 C57.896,23.652 57.672,24.292 57.448,24.996 L57.384,24.996 C57.192,24.292 56.952,23.652 56.728,23.076 L55.208,19.444 L53.64,19.444 L53.64,27.22 L54.824,27.22 Z M65.096,27.22 L65.096,20.516 L68.664,20.516 L68.664,27.22 L69.992,27.22 L69.992,19.444 L63.768,19.444 L63.768,27.22 L65.096,27.22 Z M75.64,27.412 C77.544,27.412 79.256,25.924 79.256,23.348 C79.256,20.74 77.544,19.252 75.64,19.252 C73.736,19.252 72.04,20.74 72.04,23.348 C72.04,25.924 73.736,27.412 75.64,27.412 Z M75.64,26.308 C74.312,26.308 73.416,25.124 73.416,23.348 C73.416,21.556 74.312,20.356 75.64,20.356 C76.984,20.356 77.88,21.556 77.88,23.348 C77.88,25.124 76.984,26.308 75.64,26.308 Z M82.616,30.5 L82.616,27.876 L82.584,26.516 C83.288,27.076 84.024,27.412 84.728,27.412 C86.504,27.412 88.104,25.86 88.104,23.22 C88.104,20.804 87.016,19.252 85.016,19.252 C84.12,19.252 83.24,19.748 82.536,20.34 L82.488,20.34 L82.376,19.444 L81.288,19.444 L81.288,30.5 L82.616,30.5 Z M84.504,26.292 C83.992,26.292 83.32,26.084 82.616,25.492 L82.616,21.428 C83.368,20.724 84.024,20.372 84.68,20.372 C86.136,20.372 86.728,21.508 86.728,23.22 C86.728,25.14 85.784,26.292 84.504,26.292 Z M92.936,27.22 L92.936,20.516 L95.528,20.516 L95.528,19.444 L89,19.444 L89,20.516 L91.608,20.516 L91.608,27.22 L92.936,27.22 Z M101.88,27.22 L104.648,22.836 C104.952,22.356 105.352,21.652 105.656,21.06 L105.72,21.06 C105.64,22.18 105.592,23.14 105.592,23.972 L105.592,27.22 L106.856,27.22 L106.856,19.444 L105.448,19.444 L102.664,23.844 C102.36,24.324 101.96,25.044 101.656,25.604 L101.592,25.604 C101.672,24.5 101.736,23.524 101.736,22.692 L101.736,19.444 L100.456,19.444 L100.456,27.22 L101.88,27.22 Z M27.44,48.5 L27.44,46.004 L27.408,44.852 C27.904,45.204 28.448,45.412 28.944,45.412 C30.528,45.412 31.904,43.86 31.904,41.22 C31.904,38.804 30.912,37.252 29.088,37.252 C28.512,37.252 27.888,37.492 27.408,37.844 L27.44,36.66 L27.44,33.828 L26.144,33.828 L26.144,36.66 L26.176,37.796 C25.712,37.492 25.216,37.252 24.608,37.252 C23.04,37.252 21.664,38.82 21.664,41.348 C21.664,43.94 22.832,45.412 24.608,45.412 C25.216,45.412 25.744,45.156 26.176,44.836 L26.144,46.004 L26.144,48.5 L27.44,48.5 Z M24.912,44.292 C23.712,44.292 23.04,43.188 23.04,41.332 C23.04,39.556 23.824,38.372 24.848,38.372 C25.296,38.372 25.744,38.5 26.176,38.884 L26.176,43.732 C25.744,44.164 25.36,44.292 24.912,44.292 Z M28.704,44.292 C28.368,44.292 27.872,44.18 27.408,43.764 L27.408,38.9 C27.888,38.484 28.32,38.372 28.752,38.372 C30.016,38.372 30.544,39.508 30.544,41.22 C30.544,43.14 29.792,44.292 28.704,44.292 Z M37.008,45.412 C38.912,45.412 40.624,43.924 40.624,41.348 C40.624,38.74 38.912,37.252 37.008,37.252 C35.104,37.252 33.408,38.74 33.408,41.348 C33.408,43.924 35.104,45.412 37.008,45.412 Z M37.008,44.308 C35.68,44.308 34.784,43.124 34.784,41.348 C34.784,39.556 35.68,38.356 37.008,38.356 C38.352,38.356 39.248,39.556 39.248,41.348 C39.248,43.124 38.352,44.308 37.008,44.308 Z M43.984,48.5 L43.984,45.876 L43.952,44.516 C44.656,45.076 45.392,45.412 46.096,45.412 C47.872,45.412 49.472,43.86 49.472,41.22 C49.472,38.804 48.384,37.252 46.384,37.252 C45.488,37.252 44.608,37.748 43.904,38.34 L43.856,38.34 L43.744,37.444 L42.656,37.444 L42.656,48.5 L43.984,48.5 Z M45.872,44.292 C45.36,44.292 44.688,44.084 43.984,43.492 L43.984,39.428 C44.736,38.724 45.392,38.372 46.048,38.372 C47.504,38.372 48.096,39.508 48.096,41.22 C48.096,43.14 47.152,44.292 45.872,44.292 Z M52.72,45.22 L52.72,41.7 C52.72,41.012 52.656,39.828 52.576,39.012 L52.64,39.012 C52.864,39.652 53.12,40.324 53.344,40.932 L54.8,44.484 L55.792,44.484 L57.232,40.932 C57.456,40.324 57.696,39.652 57.92,39.012 L57.984,39.012 C57.92,39.828 57.84,41.012 57.84,41.7 L57.84,45.22 L59.04,45.22 L59.04,37.444 L57.456,37.444 L56,41.076 C55.792,41.652 55.568,42.292 55.344,42.996 L55.28,42.996 C55.088,42.292 54.848,41.652 54.624,41.076 L53.104,37.444 L51.536,37.444 L51.536,45.22 L52.72,45.22 Z M63.088,45.22 L65.856,40.836 C66.16,40.356 66.56,39.652 66.864,39.06 L66.928,39.06 C66.848,40.18 66.8,41.14 66.8,41.972 L66.8,45.22 L68.064,45.22 L68.064,37.444 L66.656,37.444 L63.872,41.844 C63.568,42.324 63.168,43.044 62.864,43.604 L62.8,43.604 C62.88,42.5 62.944,41.524 62.944,40.692 L62.944,37.444 L61.664,37.444 L61.664,45.22 L63.088,45.22 Z M72.016,48.5 L72.016,45.876 L71.984,44.516 C72.688,45.076 73.424,45.412 74.128,45.412 C75.904,45.412 77.504,43.86 77.504,41.22 C77.504,38.804 76.416,37.252 74.416,37.252 C73.52,37.252 72.64,37.748 71.936,38.34 L71.888,38.34 L71.776,37.444 L70.688,37.444 L70.688,48.5 L72.016,48.5 Z M73.904,44.292 C73.392,44.292 72.72,44.084 72.016,43.492 L72.016,39.428 C72.768,38.724 73.424,38.372 74.08,38.372 C75.536,38.372 76.128,39.508 76.128,41.22 C76.128,43.14 75.184,44.292 73.904,44.292 Z M82.592,45.412 C84.496,45.412 86.208,43.924 86.208,41.348 C86.208,38.74 84.496,37.252 82.592,37.252 C80.688,37.252 78.992,38.74 78.992,41.348 C78.992,43.924 80.688,45.412 82.592,45.412 Z M82.592,44.308 C81.264,44.308 80.368,43.124 80.368,41.348 C80.368,39.556 81.264,38.356 82.592,38.356 C83.936,38.356 84.832,39.556 84.832,41.348 C84.832,43.124 83.936,44.308 82.592,44.308 Z M91.344,45.22 C93.152,45.22 94.416,44.532 94.416,42.996 C94.416,41.876 93.664,41.332 92.8,41.14 L92.8,41.076 C93.6,40.836 94.096,40.276 94.096,39.412 C94.096,38.004 92.928,37.444 91.232,37.444 L88.24,37.444 L88.24,45.22 L91.344,45.22 Z M91.008,40.676 L89.52,40.676 L89.52,38.42 L91.088,38.42 C92.304,38.42 92.816,38.836 92.816,39.54 C92.816,40.244 92.304,40.676 91.008,40.676 Z M91.216,44.228 L89.52,44.228 L89.52,41.684 L91.12,41.684 C92.448,41.684 93.136,42.148 93.136,42.916 C93.136,43.748 92.512,44.228 91.216,44.228 Z M98.16,45.412 C99.136,45.412 99.984,44.916 100.72,44.292 L100.768,44.292 L100.896,45.22 L101.984,45.22 L101.984,40.436 C101.984,38.516 101.168,37.252 99.28,37.252 C98.032,37.252 96.944,37.78 96.224,38.26 L96.736,39.156 C97.344,38.756 98.16,38.356 99.056,38.356 C100.32,38.356 100.64,39.3 100.656,40.276 C97.328,40.644 95.888,41.476 95.888,43.204 C95.888,44.612 96.864,45.412 98.16,45.412 Z M98.528,44.324 C97.776,44.324 97.184,43.988 97.184,43.124 C97.184,42.116 98.032,41.524 100.656,41.22 L100.656,43.332 C99.904,43.988 99.28,44.324 98.528,44.324 Z M105.776,45.22 L105.776,41.764 L109.504,41.764 L109.504,45.22 L110.832,45.22 L110.832,37.444 L109.504,37.444 L109.504,40.596 L105.776,40.596 L105.776,37.444 L104.448,37.444 L104.448,45.22 L105.776,45.22 Z M114.864,45.22 L117.632,40.836 C117.936,40.356 118.336,39.652 118.64,39.06 L118.704,39.06 C118.624,40.18 118.576,41.14 118.576,41.972 L118.576,45.22 L119.84,45.22 L119.84,37.444 L118.432,37.444 L115.648,41.844 C115.344,42.324 114.944,43.044 114.64,43.604 L114.576,43.604 C114.656,42.5 114.72,41.524 114.72,40.692 L114.72,37.444 L113.44,37.444 L113.44,45.22 L114.864,45.22 Z M125.6,45.412 C126.672,45.412 127.504,45.092 128.176,44.612 L127.712,43.764 C127.168,44.132 126.512,44.34 125.76,44.34 C124.288,44.34 123.312,43.284 123.2,41.684 L128.432,41.684 C128.48,41.428 128.496,41.188 128.496,40.9 C128.496,38.66 127.36,37.252 125.376,37.252 C123.6,37.252 121.888,38.804 121.888,41.332 C121.888,43.908 123.52,45.412 125.6,45.412 Z M127.312,40.66 L123.2,40.66 C123.36,39.172 124.32,38.308 125.408,38.308 C126.592,38.308 127.312,39.124 127.312,40.66 Z M62.848,63.22 L64.352,60.404 C64.624,59.876 64.88,59.348 65.184,58.708 L65.248,58.708 C65.584,59.348 65.872,59.876 66.144,60.404 L67.68,63.22 L69.168,63.22 L66.112,57.86 L68.976,52.724 L67.552,52.724 L66.16,55.396 C65.904,55.876 65.696,56.308 65.424,56.932 L65.36,56.932 C65.024,56.308 64.8,55.876 64.544,55.396 L63.12,52.724 L61.632,52.724 L64.48,57.796 L61.424,63.22 L62.848,63.22 Z M72.064,63.22 L72.064,57.428 C72.064,56.5 71.952,55.204 71.872,54.292 L71.936,54.292 L72.768,56.74 L74.72,62.164 L75.696,62.164 L77.664,56.74 L78.48,54.292 L78.544,54.292 C78.464,55.204 78.352,56.5 78.352,57.428 L78.352,63.22 L79.616,63.22 L79.616,52.724 L77.936,52.724 L75.952,58.34 C75.696,59.076 75.504,59.748 75.264,60.532 L75.2,60.532 C74.976,59.748 74.752,59.076 74.496,58.34 L72.512,52.724 L70.832,52.724 L70.832,63.22 L72.064,63.22 Z M88.4,63.22 L88.4,62.084 L83.824,62.084 L83.824,52.724 L82.48,52.724 L82.48,63.22 L88.4,63.22 Z" id="ИмпортиформированиеXML" fill="#333333" fill-rule="nonzero"></path>
        </g>
        <g id="Arrow/Orange-Double/Horizontal-Copy-6" transform="translate(262.500000, 319.000000) scale(-1, 1) translate(-262.500000, -319.000000) translate(219.000000, 314.000000)">
            <g id="Start-point" transform="translate(77.000000, 0.000000)" fill="#F7931E" fill-rule="nonzero">
                <path d="M10,4.99949863 C10,4.99949863 -8.8817842e-16,10 -8.8817842e-16,10 L1.99948634,4.99949863 L-8.8817842e-16,0 C-8.8817842e-16,0 10,4.99949863 10,4.99949863 Z" id="Path"></path>
            </g>
            <line x1="0" y1="5" x2="82" y2="5" id="Path-2" stroke="#F7931E" stroke-width="2"></line>
        </g>
        <g id="Arrow/Orange-Double/Horizontal-Copy-9" transform="translate(262.500000, 439.000000) scale(-1, 1) translate(-262.500000, -439.000000) translate(219.000000, 434.000000)">
            <g id="Start-point-Copy" transform="translate(77.000000, 0.000000)" fill="#F7931E" fill-rule="nonzero">
                <path d="M10,4.99949863 C10,4.99949863 -8.8817842e-16,10 -8.8817842e-16,10 L1.99948634,4.99949863 L-8.8817842e-16,0 C-8.8817842e-16,0 10,4.99949863 10,4.99949863 Z" id="Path"></path>
            </g>
            <g id="Start-point-Copy-2" transform="translate(5.000000, 5.000000) rotate(-180.000000) translate(-5.000000, -5.000000) " fill="#F7931E" fill-rule="nonzero">
                <path d="M10,4.99949863 C10,4.99949863 -8.8817842e-16,10 -8.8817842e-16,10 L1.99948634,4.99949863 L-8.8817842e-16,0 C-8.8817842e-16,0 10,4.99949863 10,4.99949863 Z" id="Path"></path>
            </g>
            <line x1="5" y1="5" x2="82" y2="5" id="Path-2-Copy" stroke="#F7931E" stroke-width="2"></line>
        </g>
        <g id="Arrow/Orange-Double/Horizontal-Copy-10" transform="translate(262.500000, 147.000000) scale(-1, 1) translate(-262.500000, -147.000000) translate(219.000000, 142.000000)">
            <g id="Start-point-Copy" transform="translate(77.000000, 0.000000)" fill="#F7931E" fill-rule="nonzero">
                <path d="M10,4.99949863 C10,4.99949863 -8.8817842e-16,10 -8.8817842e-16,10 L1.99948634,4.99949863 L-8.8817842e-16,0 C-8.8817842e-16,0 10,4.99949863 10,4.99949863 Z" id="Path"></path>
            </g>
            <g id="Start-point-Copy-2" transform="translate(5.000000, 5.000000) rotate(-180.000000) translate(-5.000000, -5.000000) " fill="#F7931E" fill-rule="nonzero">
                <path d="M10,4.99949863 C10,4.99949863 -8.8817842e-16,10 -8.8817842e-16,10 L1.99948634,4.99949863 L-8.8817842e-16,0 C-8.8817842e-16,0 10,4.99949863 10,4.99949863 Z" id="Path"></path>
            </g>
            <line x1="5" y1="5" x2="82" y2="5" id="Path-2-Copy" stroke="#F7931E" stroke-width="2"></line>
        </g>
        <g id="Arrow/Orange-Double/Horizontal-Copy-7" transform="translate(219.000000, 232.000000)">
            <g id="Start-point" transform="translate(77.000000, 0.000000)" fill="#F7931E" fill-rule="nonzero">
                <path d="M10,4.99949863 C10,4.99949863 -8.8817842e-16,10 -8.8817842e-16,10 L1.99948634,4.99949863 L-8.8817842e-16,0 C-8.8817842e-16,0 10,4.99949863 10,4.99949863 Z" id="Path"></path>
            </g>
            <line x1="0" y1="5" x2="82" y2="5" id="Path-2" stroke="#F7931E" stroke-width="2"></line>
        </g>
        <g id="Arrow/Orange-Double/Horizontal-Copy-8" transform="translate(514.500000, 147.000000) scale(-1, 1) translate(-514.500000, -147.000000) translate(486.000000, 142.000000)">
            <g id="Start-point" transform="translate(47.000000, 0.000000)" fill="#F7931E" fill-rule="nonzero">
                <path d="M10,4.99949863 C10,4.99949863 -8.8817842e-16,10 -8.8817842e-16,10 L1.99948634,4.99949863 L-8.8817842e-16,0 C-8.8817842e-16,0 10,4.99949863 10,4.99949863 Z" id="Path"></path>
            </g>
            <line x1="0" y1="5" x2="52" y2="5" id="Path-2" stroke="#F7931E" stroke-width="2"></line>
        </g>
        <g id="Arrow/Orange-Double/Horizontal-Copy-11" transform="translate(522.000000, 439.000000) scale(-1, 1) translate(-522.000000, -439.000000) translate(486.000000, 434.000000)">
            <g id="Start-point" transform="translate(62.000000, 0.000000)" fill="#F7931E" fill-rule="nonzero">
                <path d="M10,4.99949863 C10,4.99949863 -8.8817842e-16,10 -8.8817842e-16,10 L1.99948634,4.99949863 L-8.8817842e-16,0 C-8.8817842e-16,0 10,4.99949863 10,4.99949863 Z" id="Path"></path>
            </g>
            <line x1="0" y1="5" x2="67" y2="5" id="Path-2" stroke="#F7931E" stroke-width="2"></line>
        </g>
        <g id="Group-2-Copy" transform="translate(365.000000, 244.000000)">
            <path d="M9.372,15 L9.372,13.864 L4.796,13.864 L4.796,4.504 L3.452,4.504 L3.452,15 L9.372,15 Z M13.932,15.192 C15.836,15.192 17.548,13.704 17.548,11.128 C17.548,8.52 15.836,7.032 13.932,7.032 C12.028,7.032 10.332,8.52 10.332,11.128 C10.332,13.704 12.028,15.192 13.932,15.192 Z M13.932,14.088 C12.604,14.088 11.708,12.904 11.708,11.128 C11.708,9.336 12.604,8.136 13.932,8.136 C15.276,8.136 16.172,9.336 16.172,11.128 C16.172,12.904 15.276,14.088 13.932,14.088 Z M22.204,18.584 C24.62,18.584 26.14,17.336 26.14,15.88 C26.14,14.6 25.228,14.024 23.42,14.024 L21.916,14.024 C20.876,14.024 20.556,13.672 20.556,13.192 C20.556,12.76 20.764,12.504 21.052,12.264 C21.404,12.44 21.82,12.536 22.204,12.536 C23.788,12.536 25.052,11.496 25.052,9.832 C25.052,9.176 24.796,8.6 24.428,8.248 L26.012,8.248 L26.012,7.224 L23.308,7.224 C23.02,7.112 22.636,7.032 22.204,7.032 C20.62,7.032 19.276,8.104 19.276,9.8 C19.276,10.728 19.772,11.48 20.284,11.896 L20.284,11.96 C19.884,12.232 19.436,12.744 19.436,13.4 C19.436,14.008 19.74,14.424 20.124,14.664 L20.124,14.728 C19.42,15.208 18.988,15.832 18.988,16.488 C18.988,17.832 20.3,18.584 22.204,18.584 Z M22.204,11.64 C21.308,11.64 20.556,10.936 20.556,9.8 C20.556,8.664 21.292,7.992 22.204,7.992 C23.116,7.992 23.852,8.68 23.852,9.8 C23.852,10.936 23.1,11.64 22.204,11.64 Z M22.396,17.656 C20.988,17.656 20.14,17.144 20.14,16.312 C20.14,15.864 20.38,15.4 20.94,15 C21.276,15.096 21.644,15.128 21.948,15.128 L23.276,15.128 C24.3,15.128 24.844,15.368 24.844,16.088 C24.844,16.888 23.868,17.656 22.396,17.656 Z M28.332,5.624 C28.844,5.624 29.212,5.288 29.212,4.76 C29.212,4.248 28.844,3.896 28.332,3.896 C27.82,3.896 27.452,4.248 27.452,4.76 C27.452,5.288 27.82,5.624 28.332,5.624 Z M28.988,15 L28.988,7.224 L27.66,7.224 L27.66,15 L28.988,15 Z M32.94,15 L32.94,9.368 C33.708,8.584 34.268,8.184 35.052,8.184 C36.076,8.184 36.524,8.792 36.524,10.248 L36.524,15 L37.852,15 L37.852,10.072 C37.852,8.088 37.116,7.032 35.468,7.032 C34.396,7.032 33.596,7.608 32.86,8.344 L32.812,8.344 L32.7,7.224 L31.612,7.224 L31.612,15 L32.94,15 Z M43.388,15.192 C45.292,15.192 47.004,13.704 47.004,11.128 C47.004,8.52 45.292,7.032 43.388,7.032 C41.484,7.032 39.788,8.52 39.788,11.128 C39.788,13.704 41.484,15.192 43.388,15.192 Z M43.388,14.088 C42.06,14.088 41.164,12.904 41.164,11.128 C41.164,9.336 42.06,8.136 43.388,8.136 C44.732,8.136 45.628,9.336 45.628,11.128 C45.628,12.904 44.732,14.088 43.388,14.088 Z M50.364,15 L50.364,9.368 C51.084,8.568 51.724,8.184 52.3,8.184 C53.292,8.184 53.74,8.792 53.74,10.248 L53.74,15 L55.068,15 L55.068,9.368 C55.788,8.568 56.412,8.184 57.02,8.184 C57.996,8.184 58.46,8.792 58.46,10.248 L58.46,15 L59.788,15 L59.788,10.072 C59.788,8.088 59.02,7.032 57.42,7.032 C56.476,7.032 55.66,7.64 54.86,8.504 C54.54,7.592 53.9,7.032 52.7,7.032 C51.772,7.032 50.972,7.608 50.284,8.344 L50.236,8.344 L50.124,7.224 L49.036,7.224 L49.036,15 L50.364,15 Z M8.212,35 C11.38,35 13.108,33.048 13.108,29.704 C13.108,26.376 11.38,24.504 8.148,24.504 L5.524,24.504 L5.524,35 L8.212,35 Z M8.052,33.896 L6.868,33.896 L6.868,25.608 L8.052,25.608 C10.5,25.608 11.716,27.064 11.716,29.704 C11.716,32.36 10.5,33.896 8.052,33.896 Z M18.388,35.192 C19.46,35.192 20.292,34.872 20.964,34.392 L20.5,33.544 C19.956,33.912 19.3,34.12 18.548,34.12 C17.076,34.12 16.1,33.064 15.988,31.464 L21.22,31.464 C21.268,31.208 21.284,30.968 21.284,30.68 C21.284,28.44 20.148,27.032 18.164,27.032 C16.388,27.032 14.676,28.584 14.676,31.112 C14.676,33.688 16.308,35.192 18.388,35.192 Z M20.1,30.44 L15.988,30.44 C16.148,28.952 17.108,28.088 18.196,28.088 C19.38,28.088 20.1,28.904 20.1,30.44 Z M25.22,35.192 C27.06,35.192 28.068,34.136 28.068,32.872 C28.068,31.464 26.9,30.936 25.684,30.504 C24.708,30.168 24.036,29.88 24.036,29.176 C24.036,28.6 24.468,28.056 25.46,28.056 C26.148,28.056 26.708,28.28 27.252,28.68 L27.86,27.912 C27.252,27.4 26.42,27.032 25.444,27.032 C23.748,27.032 22.756,27.992 22.756,29.24 C22.756,30.52 23.876,31.08 25.044,31.496 C25.924,31.816 26.788,32.152 26.788,32.952 C26.788,33.624 26.292,34.152 25.268,34.152 C24.308,34.152 23.604,33.864 22.932,33.304 L22.324,34.072 C23.044,34.776 24.084,35.192 25.22,35.192 Z M31.204,35 L31.204,32.952 L32.644,31.272 L34.916,35 L36.356,35 L33.428,30.36 L36.02,27.224 L34.532,27.224 L31.252,31.288 L31.204,31.288 L31.204,23.608 L29.892,23.608 L29.892,35 L31.204,35 Z M39.924,35.192 C40.452,35.192 40.98,35.048 41.396,34.856 L41.124,33.912 C40.804,34.056 40.516,34.104 40.228,34.104 C39.348,34.104 39.028,33.56 39.028,32.616 L39.028,28.296 L41.14,28.296 L41.14,27.224 L39.028,27.224 L39.028,24.728 L37.924,24.728 L37.764,27.224 L36.548,27.304 L36.548,28.296 L37.7,28.296 L37.7,32.584 C37.7,34.136 38.26,35.192 39.924,35.192 Z M45.7,35.192 C47.604,35.192 49.316,33.704 49.316,31.128 C49.316,28.52 47.604,27.032 45.7,27.032 C43.796,27.032 42.1,28.52 42.1,31.128 C42.1,33.704 43.796,35.192 45.7,35.192 Z M45.7,34.088 C44.372,34.088 43.476,32.904 43.476,31.128 C43.476,29.336 44.372,28.136 45.7,28.136 C47.044,28.136 47.94,29.336 47.94,31.128 C47.94,32.904 47.044,34.088 45.7,34.088 Z M52.676,38.28 L52.676,35.656 L52.644,34.296 C53.348,34.856 54.084,35.192 54.788,35.192 C56.564,35.192 58.164,33.64 58.164,31 C58.164,28.584 57.076,27.032 55.076,27.032 C54.18,27.032 53.3,27.528 52.596,28.12 L52.548,28.12 L52.436,27.224 L51.348,27.224 L51.348,38.28 L52.676,38.28 Z M54.564,34.072 C54.052,34.072 53.38,33.864 52.676,33.272 L52.676,29.208 C53.428,28.504 54.084,28.152 54.74,28.152 C56.196,28.152 56.788,29.288 56.788,31 C56.788,32.92 55.844,34.072 54.564,34.072 Z" id="LoginomDesktop" fill="#FFFFFF" fill-rule="nonzero"></path>
            <g id="Group-14" transform="translate(8.000000, 48.000000)" fill="#FBFCFF">
                <path d="M14.9166467,8.62367647 L13.54451,3.12988114 L14.2862764,3.12988114 L14.9304074,5.91001813 C15.0870171,6.59674255 15.2318319,7.27748388 15.3281567,7.80864827 L15.3471595,7.80864827 C15.4349658,7.26352337 15.6046809,6.6087087 15.7875014,5.90137591 L16.5141966,3.12988114 L17.2395812,3.12988114 L17.9014046,5.91400685 C18.0521168,6.57214545 18.1982422,7.21964746 18.2814615,7.79801168 L18.2991538,7.79801168 C18.4066182,7.19637994 18.5573305,6.5841116 18.725735,5.90004633 L19.4419459,3.12988114 L20.1601225,3.12988114 L18.6228575,8.62367647 L17.892886,8.62367647 L17.2114046,5.76509468 C17.0397236,5.05842667 16.9263618,4.52393836 16.8536268,3.96817687 L16.8379003,3.96817687 C16.7481282,4.51928485 16.6223162,5.05377317 16.4204929,5.76376511 L15.6538262,8.62367647 L14.9166467,8.62367647 Z" id="Fill-1"></path>
                <path d="M21.2640359,8.62414182 L22.1430097,8.62414182 L22.1430097,4.6819581 L21.2640359,4.6819581 L21.2640359,8.62414182 Z M22.2519599,3.56777599 C22.2519599,3.81108783 22.0414321,4.01318292 21.6900064,4.01318292 C21.3697094,4.01318292 21.1559049,3.81108783 21.1567218,3.56777599 C21.1559049,3.321805 21.3828162,3.12170427 21.7063899,3.12170427 C22.0356979,3.12170427 22.2503215,3.31715149 22.2519599,3.56777599 L22.2519599,3.56777599 Z" id="Fill-3"></path>
                <path d="M23.4723191,5.74707897 C23.4723191,5.33557615 23.4585584,5.009166 23.4402108,4.68142627 L24.0646838,4.68142627 L24.1033447,5.33025786 L24.1236581,5.33025786 C24.3143419,4.95930701 24.7664786,4.59234488 25.4079886,4.59234488 C25.9420342,4.59234488 26.776849,4.91809025 26.776849,6.27226027 L26.776849,8.62360999 L26.0743989,8.62360999 L26.0743989,6.35070508 C26.0743989,5.71383965 25.8371909,5.18001612 25.1766781,5.18001612 C24.7127464,5.18001612 24.351037,5.51440371 24.2239145,5.91593473 C24.1950826,6.00368654 24.1754245,6.13066076 24.1754245,6.24832796 L24.1754245,8.62360999 L23.4723191,8.62360999 L23.4723191,5.74707897 Z" id="Fill-5"></path>
                <path d="M30.5753219,6.2858884 C30.5753219,6.19215351 30.5674587,6.07382151 30.5458348,5.97942184 C30.4357493,5.52670226 30.055037,5.15442184 29.5229573,5.15442184 C28.7903647,5.15442184 28.3532991,5.80524778 28.3532991,6.67212933 C28.3532991,7.47253223 28.7464615,8.13665391 29.5085413,8.13665391 C29.9816467,8.13665391 30.410849,7.81356769 30.5405926,7.27642023 C30.5661481,7.18202055 30.5753219,7.08097301 30.5753219,6.96862409 L30.5753219,6.2858884 Z M31.2777721,2.83697623 L31.2777721,7.6068191 C31.2777721,7.95782635 31.2915328,8.35137994 31.3098803,8.62394239 L30.6821311,8.62394239 L30.6460912,7.94187147 L30.6277436,7.94187147 C30.4115043,8.38196011 29.943641,8.71302377 29.3086838,8.71302377 C28.3677151,8.71302377 27.6409945,7.90597301 27.6409945,6.71068695 C27.6357778,5.39308018 28.4411054,4.59201249 29.3879715,4.59201249 C29.9842678,4.59201249 30.3859487,4.87587631 30.5602507,5.19098509 L30.5753219,5.19098509 L30.5753219,2.83697623 L31.2777721,2.83697623 Z" id="Fill-6"></path>
                <path d="M32.9353447,6.66049557 C32.9353447,7.52538276 33.4235214,8.1762087 34.1128661,8.1762087 C34.790416,8.1762087 35.2969402,7.53402498 35.2969402,6.63988719 C35.2969402,5.97244158 34.9660285,5.12949234 34.1259715,5.12949234 C33.2963989,5.12949234 32.9353447,5.91327558 32.9353447,6.66049557 M36.0157721,6.61529009 C36.0157721,8.07516116 35.0177949,8.71335616 34.0840342,8.71335616 C33.030359,8.71335616 32.2158575,7.93422643 32.2158575,6.68243352 C32.2158575,5.36349718 33.0709858,4.59234488 34.1456296,4.59234488 C35.2628661,4.59234488 36.0157721,5.41468574 36.0157721,6.61529009" id="Fill-7"></path>
                <path d="M37.3078348,4.68169218 L37.8300855,6.68203465 C37.9414815,7.12212329 38.0404274,7.53429089 38.1184046,7.93981064 L38.1387179,7.93981064 C38.2245584,7.54293312 38.3529915,7.11481064 38.4866667,6.68801773 L39.1209687,4.68169218 L39.7152991,4.68169218 L40.320114,6.65344883 C40.4590313,7.12079371 40.5730484,7.5389444 40.6634758,7.93981064 L40.6818234,7.93981064 C40.7532479,7.54093876 40.8574359,7.12544722 40.9832479,6.6600967 L41.5389174,4.68169218 L42.2354701,4.68169218 L40.9799715,8.62387591 L40.3384615,8.62387591 L39.7480627,6.743195 C39.6078348,6.30111201 39.4977493,5.90622885 39.4033903,5.44353747 L39.3870085,5.44353747 C39.2887179,5.91885979 39.1688034,6.32836825 39.0311966,6.7485133 L38.4073789,8.62387591 L37.7606268,8.62387591 L36.5890028,4.68169218 L37.3078348,4.68169218 Z" id="Fill-8"></path>
                <path d="M43.0677293,7.89400685 C43.2806923,8.0289585 43.6522308,8.17454674 44.0041111,8.17454674 C44.5204644,8.17454674 44.7596382,7.91727438 44.7596382,7.58754029 C44.7596382,7.2431809 44.5538832,7.06235898 44.0368746,6.86624698 C43.3350798,6.60764504 43.0028575,6.22007454 43.0041681,5.74741136 C43.0041681,5.11320508 43.5133134,4.59201249 44.3487835,4.59201249 C44.744567,4.59201249 45.0846524,4.70103747 45.3002365,4.83465955 L45.1246239,5.35651692 C44.9752222,5.26078767 44.6908348,5.12384166 44.3278148,5.12384166 C43.9110627,5.12384166 43.6836838,5.36781829 43.6836838,5.66431305 C43.6836838,5.99138799 43.9130285,6.13631144 44.4215185,6.33707695 C45.0918604,6.5903606 45.4398091,6.93339041 45.4417749,7.52172643 C45.4417749,8.220417 44.9064188,8.70969984 43.9877293,8.70969984 C43.5624587,8.70969984 43.1699516,8.59801571 42.8960484,8.43447824 L43.0677293,7.89400685 Z" id="Fill-9"></path>
                <polygon id="Fill-10" points="4.40931624 5.16539081 4.40931624 0.876853344 0 1.47516116 0 5.16539081"></polygon>
                <polygon id="Fill-11" points="5.04283191 5.16539081 10.8649117 5.16539081 10.8649117 -0.000664786463 5.04283191 0.790431104"></polygon>
                <polygon id="Fill-12" points="4.40931624 5.80744158 0 5.80744158 0 9.3913054 4.40931624 10.0328243"></polygon>
                <polygon id="Fill-13" points="5.04283191 5.80744158 5.04283191 10.1252297 10.8649117 10.9728324 10.8649117 5.80744158"></polygon>
            </g>
        </g>
        <line x1="543" y1="250" x2="723" y2="250" id="Path-2" stroke="#8D4390" stroke-width="2" stroke-dasharray="4,4"></line>
    </g>
</svg>